<?xml version="1.0" encoding="UTF-8"?>
<svg width="212px" height="200px" viewBox="0 0 212 200" version="1.1" xmlns="http://www.w3.org/2000/svg" xmlns:xlink="http://www.w3.org/1999/xlink">
    <!-- Generator: Sketch 56.3 (81716) - https://sketch.com -->
    <title>6</title>
    <desc>Created with Sketch.</desc>
    <g id="Page-1" stroke="none" stroke-width="1" fill="none" fill-rule="evenodd">
        <g id="6" fill="#000000" fill-rule="nonzero">
            <path d="M209.046794,76.4644714 C207.79896,81.3518198 206.10052,86.1005199 204.090121,90.6412478 C202.045061,95.2512998 199.757366,99.3414211 197.12305,103.570191 C194.558059,107.660312 191.819757,111.542461 188.908146,115.181976 C186.031196,118.82149 183.119584,122.287695 180.138648,125.580589 C174.211438,132.20104 168.284229,138.197574 162.842288,143.916811 C161.490468,145.337955 160.138648,146.759099 158.82149,148.180243 C157.538995,149.566724 156.256499,150.953206 155.043328,152.305026 C152.54766,155.008666 150.259965,157.746967 148.041594,160.34662 C143.708839,165.580589 140,170.641248 137.019064,175.320624 C134.038128,180 131.750433,184.263432 130.051993,187.902946 C128.457539,191.577123 127.279029,194.558059 126.620451,196.60312 C125.92721,198.682842 125.580589,199.792028 125.580589,199.792028 C125.580589,199.792028 125.684575,198.613518 125.857886,196.429809 C126.10052,194.246101 126.516464,191.02253 127.521664,187.001733 C128.561525,182.980936 130.051993,178.12825 132.37435,172.824957 C134.696707,167.487002 137.816291,161.69844 141.663778,155.667244 C143.604853,152.686308 145.684575,149.601386 147.937608,146.516464 C149.046794,144.956672 150.225303,143.431542 151.438475,141.837088 C152.651646,140.277296 153.864818,138.717504 155.112652,137.12305 C160.138648,130.814558 165.580589,124.40208 170.883882,117.712305 C173.518198,114.350087 176.187175,110.953206 178.682842,107.45234 C181.17851,103.951473 183.570191,100.311958 185.788562,96.6031196 C187.902946,93.0329289 189.982669,89.0121317 191.681109,85.1299827 C193.379549,81.2131716 194.766031,77.1577123 195.805893,73.0329289 C197.954939,64.8180243 198.544194,56.3604853 197.157712,48.492201 C196.94974,47.5216638 196.741768,46.5511265 196.533795,45.5805893 C196.291161,44.6793761 196.013865,43.847487 195.805893,42.9462738 C195.493934,41.9757366 195.043328,40.8665511 194.696707,39.8266898 L194.558059,39.4454073 L194.488735,39.3067591 L194.176776,38.6481802 L193.587522,37.3310225 C191.923744,33.864818 189.740035,30.6759099 187.209705,27.7642981 C182.149047,22.0103986 175.736568,17.6429809 169.046794,14.8006932 C168.214905,14.4540728 167.383016,14.1074523 166.551127,13.7954939 C165.684575,13.5181976 164.852686,13.2062392 164.020797,12.9289428 C163.22357,12.6863085 162.391681,12.4783362 161.594454,12.270364 C161.213172,12.1663778 160.762565,12.0623917 160.277296,11.9584055 L158.890815,11.6811092 C155.59792,11.0225303 152.166378,10.6412478 148.942808,10.6412478 C145.684575,10.6065858 142.530329,10.8145581 139.549393,11.2651646 C138.058925,11.4384749 136.60312,11.7850953 135.181976,12.0277296 C133.795494,12.3743501 132.409012,12.6863085 131.091854,13.0329289 C125.857886,14.5233969 121.35182,16.3951473 117.781629,18.1975737 C115.979203,19.0987868 114.454073,20 113.067591,20.762565 C111.854419,21.4904679 110.814558,22.1143847 109.948007,22.6689775 C113.691508,27.3136915 116.152513,31.9930676 117.885615,35.9445407 C119.82669,40.2426343 120.589255,43.882149 121.213172,46.2738302 C121.629116,48.7001733 121.837088,50.017331 121.837088,50.017331 C121.837088,50.017331 121.35182,48.8041594 120.450607,46.4818024 C119.445407,44.2634315 117.954939,40.9705373 115.493934,37.1923744 C113.032929,33.4142114 109.670711,29.0814558 105.129983,24.9566724 C102.87695,22.8769497 100.277296,20.9012132 97.4350087,19.0294627 C94.627383,17.3310225 91.507799,15.6325823 88.1109185,14.2114385 C86.3778163,13.5875217 84.644714,12.8942808 82.8076256,12.4090121 C82.3570191,12.270364 81.9064125,12.1317158 81.4558059,11.9930676 C81.3864818,11.9584055 81.6637782,12.0623917 81.4904679,12.0277296 L81.3864818,11.9930676 L81.2131716,11.9584055 L80.8318891,11.8890815 L80.0693241,11.7157712 C79.5493934,11.6117851 79.0641248,11.4731369 78.5441941,11.3691508 L77.7816291,11.1958406 L77.0883882,11.0918544 C76.152513,10.9532062 75.2166378,10.8145581 74.2807626,10.6759099 C73.3102253,10.5719237 72.305026,10.5025997 71.2998267,10.3986135 C69.2894281,10.2946274 67.2443674,10.2253033 65.1993068,10.3639515 C56.94974,10.745234 48.3882149,12.9982669 40.6585789,17.2616984 C36.8110919,19.4107452 33.1715771,22.0450607 29.9480069,25.1646447 L29.7053726,25.407279 L29.6360485,25.4766031 L29.4627383,25.6499133 L28.8041594,26.3431542 L27.4870017,27.729636 C27.0017331,28.2149047 26.6897747,28.5961872 26.3778163,29.0121317 L25.372617,30.2599653 C24.0207972,31.9584055 22.6689775,33.864818 21.4904679,35.8405546 C16.7764298,43.6741768 13.9688042,52.8942808 13.6915078,62.1837088 C13.5181976,66.8284229 13.9341421,71.4731369 15.0086655,75.9792028 L15.1819757,76.8110919 L15.2166378,77.0190641 L15.2512998,77.1230503 C15.2512998,77.0883882 15.2859619,77.1923744 15.2512998,77.1923744 L15.355286,77.5043328 L15.9098787,79.3760832 L16.4644714,81.2478336 L17.0190641,82.8076256 L17.5736568,84.3674177 C17.7816291,84.8873484 18.0242634,85.4419411 18.2322357,85.9965338 C18.6828423,87.0710572 19.1334489,88.1802426 19.6880416,89.220104 C21.7331023,93.4835355 24.1941075,97.5389948 26.897747,101.421144 C29.6360485,105.268631 32.6863085,108.908146 35.8405546,112.409012 C42.1837088,119.376083 49.0467938,125.545927 55.9098787,131.369151 C62.6689775,137.12305 69.3240901,142.564991 75.2859619,147.833622 C81.2824957,153.067591 86.5511265,158.197574 90.9532062,163.015598 C95.389948,167.79896 98.8214905,172.37435 101.455806,176.221837 C102.114385,177.192374 102.70364,178.12825 103.258232,178.994801 C103.847487,179.861352 104.263432,180.727903 104.7487,181.490468 C105.649913,183.05026 106.412478,184.367418 106.932409,185.511265 C108.006932,187.729636 108.596187,188.942808 108.596187,188.942808 C108.596187,188.942808 107.79896,187.902946 106.27383,185.961872 C105.545927,184.956672 104.540728,183.812825 103.39688,182.461005 C102.287695,181.074523 100.866551,179.618718 99.3414211,177.920277 C96.187175,174.627383 92.2010399,170.84922 87.3830156,166.793761 C82.5303293,162.772964 76.8110919,158.544194 70.4332756,154.038128 C64.0554593,149.532062 57.0190641,144.818024 49.5667244,139.410745 C42.2530329,134.107452 34.4540728,128.041594 27.1750433,120.797227 C19.8960139,113.587522 12.9289428,105.129983 7.86828423,95.0779896 C7.20970537,93.864818 6.65511265,92.5476603 6.06585789,91.2651646 C5.78856153,90.6065858 5.47660312,89.982669 5.19930676,89.3240901 L4.40207972,87.2443674 L3.60485269,85.1646447 C3.39688042,84.5060659 3.22357019,83.9168111 3.01559792,83.2928943 L2.4610052,81.4211438 L2.32235702,80.9358752 L2.21837088,80.5892548 L2.18370884,80.4506066 L2.11438475,80.1733102 L1.87175043,79.0987868 C0.485268631,73.4142114 -0.103986135,67.5563258 0.103986135,61.6984402 C0.554592721,50.017331 4.09012132,38.47487 10.3292894,28.8041594 C11.8890815,26.3778163 13.5528596,24.1247834 15.4592721,21.8717504 L16.94974,20.2079723 C17.4350087,19.6533795 17.9549393,19.0641248 18.4055459,18.6828423 L19.7573657,17.3656846 L20.4506066,16.7071057 L20.9705373,16.2218371 L21.3864818,15.8752166 C25.6152513,12.0970537 30.2946274,9.01213172 35.1819757,6.62045061 C44.9566724,1.83708839 55.4592721,-0.103986135 65.2339688,0.20797227 C67.694974,0.242634315 70.0866551,0.519930676 72.4436742,0.831889081 C73.6221837,1.03986135 74.7660312,1.24783362 75.9098787,1.45580589 C77.0883882,1.69844021 78.2668977,2.01039861 79.4107452,2.32235702 L80.2772964,2.53032929 L81.0398614,2.7729636 C81.52513,2.94627383 82.0450607,3.11958406 82.5303293,3.25823224 C83.084922,3.43154246 83.6048527,3.60485269 84.1594454,3.77816291 C84.6793761,3.98613518 85.1993068,4.19410745 85.7192374,4.40207972 C87.7989601,5.16464471 89.7053726,6.16984402 91.6117851,7.10571924 C95.3206239,9.1507799 98.6135182,11.4384749 101.559792,13.830156 C104.40208,16.3258232 106.967071,18.8561525 109.081456,21.4211438 C109.254766,21.6291161 109.428076,21.8370884 109.601386,22.0450607 C111.161179,20.5199307 113.379549,18.3015598 116.568458,15.9445407 C119.861352,13.4488735 124.124783,10.6065858 129.4974,8.14558059 C134.835355,5.68457539 141.317158,3.63951473 148.734835,2.80762565 C149.670711,2.73830156 150.606586,2.63431542 151.542461,2.53032929 C152.512998,2.49566724 153.448873,2.4610052 154.419411,2.4610052 C155.389948,2.42634315 156.395147,2.49566724 157.365685,2.49566724 C157.850953,2.53032929 158.370884,2.53032929 158.856153,2.56499133 L159.029463,2.56499133 C159.133449,2.56499133 158.960139,2.56499133 159.272097,2.59965338 L159.376083,2.59965338 L159.722704,2.63431542 L160.415945,2.70363951 L161.837088,2.84228769 C162.287695,2.87694974 162.772964,2.94627383 163.327556,3.05025997 C164.40208,3.22357019 165.476603,3.39688042 166.551127,3.60485269 C167.590988,3.847487 168.630849,4.09012132 169.670711,4.33275563 C170.710572,4.61005199 171.750433,4.9220104 172.790295,5.2339688 C181.074523,7.93760832 189.358752,12.5823224 196.221837,19.5493934 C199.65338,23.0155979 202.70364,27.0363951 205.129983,31.5771231 L205.996534,33.3102253 L206.412478,34.1767764 L206.516464,34.3847487 L206.585789,34.4887348 L206.724437,34.8006932 L206.897747,35.1819757 C207.313692,36.2564991 207.764298,37.1923744 208.180243,38.3708839 C208.596187,39.6533795 209.046794,40.9705373 209.428076,42.2530329 C209.740035,43.5008666 210.017331,44.7487002 210.329289,45.9965338 C212.270364,56.187175 211.507799,66.6897747 209.046794,76.4644714 Z M128.804159,156.013865 C130.190641,154.003466 131.611785,151.889081 133.240901,149.844021 C134.038128,148.804159 134.835355,147.764298 135.667244,146.724437 C136.117851,146.169844 136.568458,145.649913 137.019064,145.095321 L137.712305,144.263432 L138.370884,143.500867 C141.975737,139.202773 146.10052,134.870017 150.363951,130.294627 C152.512998,128.006932 154.731369,125.649913 156.94974,123.292894 C158.058925,122.079723 159.202773,120.866551 160.311958,119.65338 C161.421144,118.405546 162.530329,117.12305 163.639515,115.875217 C168.110919,110.779896 172.478336,105.233969 176.395147,99.2720971 C180.277296,93.2409012 183.674177,86.7590988 185.996534,79.7920277 C186.551127,77.9549393 187.071057,76.117851 187.590988,74.3154246 C187.97227,72.6169844 188.214905,71.0571924 188.526863,69.4627383 L188.804159,67.9722704 L188.97747,66.6204506 C189.081456,65.7192374 189.185442,64.8526863 189.254766,63.9514731 C189.32409,63.05026 189.358752,62.1837088 189.393414,61.2824957 C189.428076,60.3812825 189.428076,59.5147314 189.393414,58.6481802 C189.254766,51.6117851 187.868284,44.7833622 185.095321,38.8214905 C183.708839,35.8405546 182.079723,33.102253 180.103986,30.6065858 C179.584055,29.982669 179.064125,29.3240901 178.544194,28.7348354 C178.058925,28.2495667 177.608319,27.7642981 177.157712,27.3136915 L176.707106,26.8284229 L176.291161,26.4471404 L175.459272,25.7192374 C174.939341,25.2339688 174.350087,24.7833622 173.795494,24.3674177 C171.542461,22.6689775 169.254766,21.2478336 166.932409,20.2079723 C164.644714,19.1334489 162.357019,18.3708839 160.17331,17.8856153 C155.805893,16.8804159 151.889081,16.915078 148.838821,17.4003466 C145.753899,17.8162912 143.500867,18.8561525 142.010399,19.4454073 C140.589255,20.1733102 139.861352,20.6239168 139.861352,20.6239168 C139.861352,20.6239168 140.693241,20.4852686 142.287695,20.2079723 C143.847487,20.034662 146.135182,19.8613518 148.942808,20.1039861 C151.750433,20.3812825 155.07799,21.2478336 158.544194,22.8769497 C159.410745,23.2582322 160.242634,23.7781629 161.143847,24.2287695 C161.975737,24.7833622 162.87695,25.2686308 163.708839,25.9272097 C165.407279,27.1403813 167.071057,28.5961872 168.596187,30.2599653 C168.97747,30.6759099 169.358752,31.0918544 169.705373,31.542461 L170.259965,32.2010399 L170.537262,32.5476603 L170.571924,32.5823224 C170.363951,32.339688 170.537262,32.5476603 170.5026,32.5129983 L170.571924,32.6169844 L170.710572,32.8249567 C171.091854,33.3448873 171.473137,33.8994801 171.889081,34.4540728 C172.166378,34.9393414 172.443674,35.389948 172.720971,35.8752166 C173.830156,37.8856153 174.870017,40.1733102 175.632582,42.5649913 C177.192374,47.3830156 177.712305,52.8596187 177.365685,58.47487 C177.331023,59.1681109 177.261698,59.8960139 177.192374,60.5892548 C177.12305,61.2824957 177.019064,62.0103986 176.915078,62.7036395 C176.811092,63.3968804 176.707106,64.1247834 176.568458,64.8180243 L176.395147,65.7538995 C176.395147,65.7538995 176.395147,65.7538995 176.395147,65.7538995 L176.360485,65.8925477 L176.291161,66.2045061 L176.152513,66.7937608 C175.736568,68.3535529 175.389948,70.017331 174.939341,71.507799 C174.454073,72.8249567 174.038128,74.1767764 173.587522,75.4939341 C171.438475,81.0745234 168.526863,86.5857886 165.060659,91.8890815 C161.629116,97.2270364 157.642981,102.357019 153.587522,107.417678 C151.507799,109.948007 149.462738,112.478336 147.417678,114.939341 C145.372617,117.435009 143.292894,119.896014 141.317158,122.426343 C137.331023,127.417678 133.518198,132.409012 130.225303,137.435009 L129.566724,138.405546 L129.012132,139.306759 C128.630849,139.930676 128.249567,140.519931 127.868284,141.143847 C127.105719,142.426343 126.343154,143.674177 125.684575,144.92201 C124.298094,147.417678 123.084922,149.878683 122.010399,152.270364 C119.861352,157.12305 118.336222,161.733102 117.365685,165.892548 C116.360485,170.017331 115.979203,173.691508 115.805893,176.707106 C115.493934,175.320624 115.147314,173.89948 114.696707,172.409012 C113.206239,167.556326 110.883882,162.253033 107.62565,156.94974 C105.996534,154.280763 104.159445,151.611785 102.079723,148.942808 C101.074523,147.62565 99.8960139,146.204506 98.7868284,144.92201 C98.2322357,144.298094 97.677643,143.674177 97.1230503,143.05026 C96.4991334,142.391681 95.9098787,141.733102 95.2859619,141.074523 C90.3986135,135.944541 84.9220104,130.987868 79.237435,126.10052 C76.4298094,123.639515 73.5181976,121.213172 70.6412478,118.752166 C67.7642981,116.291161 64.8873484,113.795494 62.0797227,111.265165 C56.4644714,106.169844 51.0571924,100.901213 46.6204506,95.0779896 C42.0797227,89.3587522 38.5441941,83.1195841 36.2911612,76.5684575 L35.5285962,74.1074523 C35.3206239,73.3102253 35.1473137,72.5476603 34.9046794,71.7504333 C34.6967071,70.8838821 34.5233969,69.8786828 34.3154246,68.9428076 L34.2461005,68.5961872 L34.2114385,68.4228769 L34.1767764,68.3188908 C34.1767764,68.3188908 34.1767764,68.3188908 34.1767764,68.3188908 L34.1074523,67.7989601 L33.9341421,66.5857886 C33.5181976,63.3275563 33.5528596,60.0693241 33.8994801,56.8804159 C34.6620451,50.5025997 37.0190641,44.4714038 40.3466205,39.4800693 C40.797227,38.8561525 41.2131716,38.2322357 41.6291161,37.6429809 C42.1143847,37.0537262 42.5649913,36.4991334 43.0155979,35.9098787 C43.9861352,34.8006932 44.7487002,33.8994801 46.0311958,32.7556326 C48.1109185,30.779896 50.3292894,29.0814558 52.6516464,27.694974 L53.5181976,27.1750433 L54.4194107,26.7244367 C55.0086655,26.4124783 55.5979203,26.1005199 56.187175,25.8232236 C57.4003466,25.3032929 58.5441941,24.7487002 59.7573657,24.3674177 C62.1143847,23.4662045 64.4714038,22.9462738 66.7244367,22.4956672 C71.2305026,21.6984402 75.3206239,21.6291161 78.7175043,21.9410745 C80.4159445,22.0797227 81.9064125,22.3570191 83.2235702,22.5303293 C84.5407279,22.7729636 85.6152513,23.05026 86.5511265,23.2582322 C88.3535529,23.7781629 89.3240901,24.0554593 89.3240901,24.0554593 C89.3240901,24.0554593 88.457539,23.5355286 86.8630849,22.5303293 C85.1993068,21.6637782 82.7036395,20.2772964 79.2720971,19.2720971 C75.8405546,18.1975737 71.4731369,17.2616984 66.3084922,17.2616984 C63.7435009,17.2616984 60.9705373,17.4696707 58.0935875,18.0242634 C55.2166378,18.5095321 52.2357019,19.4454073 49.1854419,20.6932409 C46.169844,21.9064125 43.1542461,23.6741768 40.2772964,25.7538995 C39.0641248,26.5857886 37.4696707,27.9722704 36.117851,29.220104 C35.4592721,29.8786828 34.8006932,30.5372617 34.1421144,31.1958406 C33.5181976,31.8890815 32.8942808,32.6169844 32.270364,33.3102253 C27.3830156,39.1681109 23.6395147,46.6551127 22.0450607,54.9740035 C21.2131716,59.1334489 20.9705373,63.4662045 21.3171577,67.8682842 L21.4558059,69.4974003 L21.52513,70.3292894 L21.6637782,71.2305026 C21.8024263,72.2010399 21.9410745,73.102253 22.1143847,74.1421144 C22.3570191,75.2512998 22.5996534,76.3604853 22.8422877,77.4696707 C23.1195841,78.5441941 23.4315425,79.5493934 23.7088388,80.6239168 C24.9913345,84.7833622 26.6551127,88.8734835 28.7348354,92.6863085 C30.8145581,96.5337955 33.2409012,100.138648 35.8405546,103.535529 C41.1438475,110.294627 47.2097054,116.117851 53.3448873,121.282496 C56.3951473,123.882149 59.5147314,126.343154 62.5649913,128.700173 C65.6499133,131.057192 68.6655113,133.344887 71.6117851,135.563258 C77.5389948,140 83.1542461,144.228769 88.1455806,148.526863 C88.7348354,149.046794 89.3587522,149.566724 89.9480069,150.086655 C90.5719237,150.641248 91.1958406,151.230503 91.7850953,151.785095 C92.9636049,152.894281 94.0034662,153.89948 95.1126516,155.008666 C97.2963605,157.157712 99.237435,159.376083 101.074523,161.559792 C108.388215,170.329289 112.443674,179.133449 114.176776,185.684575 C114.974003,188.97747 115.459272,191.646447 115.59792,193.518198 C115.771231,195.389948 115.840555,196.395147 115.840555,196.395147 C115.840555,196.395147 116.013865,195.42461 116.395147,193.55286 C116.672444,191.681109 116.984402,188.908146 116.880416,185.303293 C116.845754,184.7487 116.811092,184.124783 116.741768,183.535529 C117.053726,182.010399 117.642981,179.930676 118.405546,177.365685 C120.103986,171.646447 123.39688,164.090121 128.804159,156.013865 Z" id="Shape"></path>
        </g>
    </g>
</svg>