<?xml version="1.0" encoding="UTF-8"?>
<svg width="265px" height="200px" viewBox="0 0 265 200" version="1.1" xmlns="http://www.w3.org/2000/svg" xmlns:xlink="http://www.w3.org/1999/xlink">
    <!-- Generator: Sketch 56.3 (81716) - https://sketch.com -->
    <title>5</title>
    <desc>Created with Sketch.</desc>
    <g id="Page-1" stroke="none" stroke-width="1" fill="none" fill-rule="evenodd">
        <g id="5" fill="#000000" fill-rule="nonzero">
            <path d="M53.6633663,39.009901 C53.7029703,39.3267327 53.4653465,39.6435644 53.1485149,39.6831683 C52.6336634,39.9207921 52.2376238,40.2772277 51.7227723,40.5148515 C49.9405941,41.4257426 48.1584158,42.4554455 46.5742574,43.9207921 C43.6039604,46.6930693 41.3069307,50.4158416 39.6039604,53.5841584 C34.7722772,60.8712871 33.7425743,69.3861386 34.7326733,78.019802 C35.9207921,88.5148515 40.2772277,99.1287129 45.1485149,108.118812 C46.4950495,110.613861 47.7623762,112.990099 49.1881188,115.207921 C49.6633663,115.841584 49.5445545,116.792079 48.9108911,117.267327 C48.2772277,117.742574 47.3663366,117.623762 46.8910891,116.990099 C45.1089109,114.930693 43.3267327,112.792079 41.6633663,110.376238 C35.4851485,101.346535 30.4554455,90.019802 28.8712871,78.8514851 C27.4455446,68.7920792 28.950495,58.7722772 34.5742574,50.2178218 C37.1089109,47.0891089 40.4356436,43.3663366 44.3960396,41.029703 C47.1683168,39.4059406 50.0594059,38.4158416 53.029703,38.4950495 C53.3069307,38.4158416 53.6237624,38.6534653 53.6633663,39.009901 Z M167.881188,113.742574 C166.336634,114.732673 165.069307,115.287129 163.841584,116.594059 C159.920792,120.831683 158.178218,126.653465 154.455446,131.168317 C150.970297,136.118812 147.049505,140.633663 143.009901,145.069307 C136.831683,151.841584 130.376238,158.257426 123.405941,164.237624 C122.693069,164.792079 122.534653,165.821782 123.089109,166.574257 C123.643564,167.287129 124.673267,167.445545 125.386139,166.891089 C131.881188,162.534653 138.257426,158.059406 144.118812,152.871287 C150.019802,147.643564 155.326733,141.782178 160.158416,135.445545 C163.168317,130.930693 165.544554,126.138614 167.564356,121.188119 C168,120.158416 168.475248,119.168317 168.673267,118.09901 C168.950495,116.752475 168.752475,115.80198 168.871287,114.376238 C169.069307,114.09901 168.990099,113.70297 168.673267,113.544554 C168.435644,113.346535 168.079208,113.425743 167.881188,113.742574 Z M264.277228,5.42574257 C263.643564,8 261.227723,11.7623762 260.633663,12.8712871 L246.772277,35.6039604 L239.920792,46.6930693 L237.584158,50.3366337 C237.188119,50.970297 236.792079,52.3960396 236.435644,52.950495 C235.920792,53.6633663 235.287129,53.980198 234.732673,54.0990099 C233.821782,54.3366337 232.673267,54.2574257 231.762376,52.8712871 C231.168317,52 230.811881,50.7326733 230.693069,49.3069307 C230.534653,47.2871287 230.891089,44.7920792 230.930693,43.3663366 C231.207921,39.4851485 231.445545,35.5643564 231.920792,31.6831683 C230.059406,33.2673267 228.316832,34.9306931 226.415842,36.4752475 C220.435644,41.3069307 214.217822,45.7821782 208.039604,50.3366337 C209.623762,54.9306931 210.693069,59.7227723 211.049505,64.7524752 C212.237624,85.7029703 202.653465,108.950495 186.732673,130.217822 C170.693069,151.643564 148.633663,171.485149 126.257426,184.673267 C120.158416,188.237624 114.059406,191.168317 108.079208,193.70297 C108.039604,193.70297 108,193.70297 107.960396,193.70297 C107.762376,193.782178 107.60396,193.742574 107.366337,193.742574 C107.168317,193.742574 106.970297,193.782178 106.772277,193.70297 C106.732673,193.70297 106.693069,193.70297 106.653465,193.70297 C100.594059,191.128713 94.4158416,188.316832 88.3168317,184.871287 C76.1188119,178.019802 64.1584158,169.50495 53.1881188,159.841584 C50.0990099,162.257426 47.009901,164.673267 43.8415842,167.009901 C44.2376238,168.356436 44.3168317,169.782178 44.3564356,171.287129 C44.3960396,172.831683 44.4356436,174.534653 44.1980198,176.158416 C44,177.386139 43.7227723,178.574257 43.2079208,179.643564 C42.5742574,180.990099 41.7425743,181.980198 40.7920792,182.891089 C39.5643564,184.039604 38.0990099,184.950495 36.5544554,185.980198 L23.8019802,193.70297 L14.3762376,198.415842 C13.6237624,198.772277 12.950495,199.445545 12.1188119,199.683168 C11.6039604,199.80198 11.2475248,199.80198 10.7326733,199.683168 C10.2574257,199.445545 10.2178218,199.564356 10.3366337,199.326733 C10.3762376,199.247525 10.6138614,198.811881 10.7326733,198.613861 L11.3663366,197.306931 L13.1485149,193.861386 C14.4158416,190.49505 14.6930693,187.207921 15.4851485,183.80198 C14.4158416,183.920792 13.3465347,184 12.2772277,184.277228 C9.98019802,184.831683 7.76237624,185.70297 5.54455446,186.613861 C5.02970297,186.732673 3.24752475,187.722772 2.0990099,187.722772 C1.18811881,187.722772 0.594059406,187.564356 0.356435644,187.128713 C0.277227723,187.049505 -0.198019802,186.415842 0.277227723,185.663366 C0.594059406,185.148515 1.5049505,183.920792 1.58415842,183.841584 L5.9009901,177.663366 C7.96039604,174.613861 10.1386139,171.762376 12.4752475,169.108911 C14.8514851,166.415842 17.4257426,163.960396 20.1980198,161.50495 C22.1386139,160.158416 23.6435644,157.90099 25.9009901,157.50495 C25.9009901,157.50495 25.9405941,157.50495 25.9405941,157.50495 C26.3762376,156.950495 27.049505,156.594059 27.7227723,156.871287 C28.5544554,156.950495 29.3465347,156.871287 30.1782178,157.069307 C33.2673267,157.782178 36.2376238,159.366337 39.049505,160.871287 C39.4059406,161.069307 39.8415842,161.227723 40.2376238,161.425743 C42.8118812,159.366337 45.4257426,157.306931 48,155.247525 C40.1188119,147.762376 32.8712871,139.683168 26.5742574,131.128713 C12.1584158,111.366337 3.32673267,88.8316832 3.56435644,65.0693069 C3.96039604,47.5643564 13.1881188,31.1683168 26.8910891,21.4653465 C40.4752475,11.8415842 58.2574257,8.75247525 75.7227723,16.950495 C85.3069307,21.8217822 93.5841584,28.4752475 99.3663366,36.990099 C103.287129,42.7722772 106.138614,49.2277228 107.722772,56.1980198 C109.663366,50.0990099 112.475248,44.2772277 116.158416,38.9306931 C121.623762,31.049505 129.267327,24.6732673 138.613861,19.8811881 C155.960396,11.6831683 173.306931,14.019802 186.653465,22.6930693 C194.138614,27.5643564 200.277228,34.5346535 204.554455,42.6534653 C210.138614,38.3762376 215.80198,34.1386139 221.623762,30.1386139 C222.455446,29.5841584 223.287129,29.0693069 224.079208,28.5148515 C220.633663,28.2376238 217.188119,27.7623762 213.742574,27.3663366 L207.722772,26.6138614 C206.851485,26.5346535 204.990099,26.8910891 204.158416,26.8118812 C203.247525,26.7326733 202.653465,26.3366337 202.257426,26.019802 C201.108911,25.1089109 200.237624,23.6435644 202.019802,21.4653465 C203.247525,20 204.990099,18.7722772 206.930693,17.7821782 C210.574257,15.9207921 215.128713,14.8118812 218.336634,13.7425743 L247.920792,4.31683168 L257.306931,1.26732673 C257.465347,1.22772277 259.485149,0.475247525 260.316832,0.237623762 C262.217822,-0.237623762 263.366337,0.910891089 263.564356,1.22772277 C264.356436,2.21782178 264.712871,3.68316832 264.277228,5.42574257 Z M24.5544554,164.079208 C25.6633663,164.079208 26.8118812,164.158416 27.9207921,164.475248 C29.8217822,164.950495 31.5643564,166.019802 33.1881188,167.128713 C34.2178218,166.29703 35.2871287,165.465347 36.3168317,164.594059 C33.3861386,163.60396 30.3762376,162.732673 27.8019802,161.108911 C27.8019802,161.108911 27.8019802,161.108911 27.8019802,161.108911 C26.8910891,162.257426 25.7425743,163.168317 24.5544554,164.079208 Z M16.6732673,170.415842 C17.7821782,170.415842 18.9306931,170.613861 20,171.049505 C21.7029703,171.722772 23.2079208,172.910891 24.6336634,174.178218 C26.5346535,172.554455 28.4752475,170.930693 30.4554455,169.346535 C29.6237624,168.950495 28.7920792,168.554455 27.960396,168.158416 C26.0594059,167.247525 24.1980198,166.376238 22.1782178,165.980198 C20.2772277,167.366337 18.4554455,168.871287 16.6732673,170.415842 Z M9.06930693,177.980198 C10.7326733,177.70297 12.4752475,177.544554 14.1782178,177.742574 C15.8811881,177.940594 17.5445545,178.49505 19.0891089,179.207921 C19.5643564,178.732673 20.039604,178.217822 20.5148515,177.742574 C21.3861386,176.950495 22.2970297,176.19802 23.1683168,175.405941 C21.8217822,174.613861 20.4356436,173.90099 19.049505,173.267327 C17.6237624,172.633663 16.2376238,172.118812 14.7326733,172.118812 C12.7920792,173.980198 10.8910891,175.920792 9.06930693,177.980198 Z M15.6831683,182.851485 C15.7623762,182.732673 15.7623762,182.574257 15.8811881,182.49505 C15.8811881,182.49505 15.8811881,182.49505 15.9207921,182.455446 C15.9207921,182.336634 16.0792079,182.217822 16.2376238,182.138614 C16.6336634,181.742574 16.990099,181.346535 17.3861386,180.950495 C15.7227723,180.594059 14.019802,180.39604 12.2772277,180.237624 C10.5742574,180.079208 8.95049505,179.920792 7.28712871,179.960396 L3.48514851,184.435644 C4.03960396,184 4.51485149,183.60396 4.71287129,183.524752 C7.16831683,183.168317 9.58415842,182.851485 12.039604,182.772277 C13.2673267,182.772277 14.4950495,182.772277 15.6831683,182.851485 Z M21.2673267,182.534653 C20.5940594,182.930693 19.8811881,183.287129 19.1683168,183.683168 C19.2475248,184.277228 18.970297,184.950495 18.8514851,185.544554 C18.1782178,188.871287 16.4752475,191.683168 14.6930693,194.653465 L13.5841584,196 C15.049505,194.772277 16.4752475,193.50495 18.0594059,192.39604 C18.8514851,191.841584 19.6831683,191.366337 20.4752475,190.891089 L21.2673267,182.534653 Z M27.049505,186.930693 L26.7326733,179.089109 C25.5445545,179.881188 24.3564356,180.673267 23.1287129,181.425743 C23.6831683,183.326733 24.039604,185.306931 23.8415842,187.326733 C23.7623762,187.920792 23.6435644,188.475248 23.4851485,189.029703 L27.049505,186.930693 Z M33.5445545,183.089109 C33.3069307,182.851485 33.1881188,182.534653 33.2277228,182.178218 L32.950495,174.811881 C31.4059406,175.920792 29.8613861,176.990099 28.3168317,178.059406 C28.990099,179.722772 29.5049505,181.346535 29.5841584,183.009901 C29.6237624,183.841584 29.5445545,184.673267 29.4257426,185.50495 L33.5445545,183.089109 Z M39.5247525,175.089109 C39.5247525,173.940594 39.3267327,172.792079 39.1683168,171.722772 C39.0891089,171.326733 38.970297,170.930693 38.8514851,170.574257 C37.3861386,171.643564 35.9207921,172.712871 34.4554455,173.782178 C35.0891089,174.970297 35.6039604,176.237624 35.8019802,177.584158 C36,179.009901 35.8019802,180.435644 35.5643564,181.861386 C36.4356436,181.306931 37.2673267,180.752475 37.9405941,180.039604 C38.4950495,179.485149 38.8910891,178.811881 39.1683168,177.980198 C39.5247525,177.029703 39.5643564,176.039604 39.5247525,175.089109 Z M198.653465,65.6633663 C198.455446,63.1287129 197.980198,60.6732673 197.386139,58.2574257 C190.851485,62.970297 184.158416,67.5643564 177.821782,72.5544554 C177.821782,72.5544554 177.821782,72.5544554 177.821782,72.5940594 C178.732673,74.0990099 179.326733,75.7227723 180.158416,77.3861386 C180.950495,78.4950495 180.673267,80.039604 179.564356,80.8316832 C178.455446,81.6237624 176.950495,81.3465347 176.158416,80.2376238 C174.851485,78.8514851 173.465347,77.7029703 172.39604,76.2772277 C170.574257,73.8217822 169.346535,71.1683168 168.633663,68.3960396 C167.920792,65.5841584 166.574257,62.1782178 168.475248,59.3663366 C168.950495,58.6930693 168.990099,58.970297 169.742574,58.5346535 C169.782178,58.2178218 170.09901,57.9405941 170.415842,57.980198 C170.732673,58.019802 171.009901,58.3366337 170.970297,58.6534653 C171.564356,59.2079208 171.722772,58.8910891 172.079208,59.6039604 C173.227723,61.980198 173.108911,64.3168317 174.059406,66.3762376 C174.059406,66.4158416 174.09901,66.4554455 174.09901,66.4554455 C174.336634,66.2574257 174.574257,66.0990099 174.811881,65.9009901 C180.831683,60.2772277 187.881188,55.7623762 194.29703,50.6138614 C194.376238,50.5346535 194.455446,50.4950495 194.534653,50.4158416 C191.207921,43.4455446 186.09901,37.5049505 179.841584,33.3465347 C169.782178,26.6534653 156.752475,24.5544554 143.445545,30.4158416 C135.287129,33.7029703 128.712871,38.7326733 123.287129,44.6336634 C117.90099,50.4554455 113.623762,56.990099 110.217822,64.0792079 C110.019802,64.4752475 109.940594,64.950495 109.623762,65.2673267 C108.990099,65.9009901 108.712871,65.7029703 107.920792,66.1386139 C107.920792,66.1782178 107.881188,66.1782178 107.841584,66.2178218 C107.80198,66.2970297 107.762376,66.3366337 107.683168,66.3762376 C107.60396,66.4158416 107.564356,66.4554455 107.485149,66.4950495 C107.445545,66.4950495 107.445545,66.5346535 107.405941,66.5346535 C107.366337,66.5346535 107.326733,66.4950495 107.247525,66.4950495 C107.207921,66.4950495 107.168317,66.5346535 107.089109,66.4950495 C107.049505,66.4950495 107.049505,66.4554455 107.009901,66.4158416 C106.930693,66.3762376 106.891089,66.3366337 106.811881,66.2574257 C106.772277,66.2178218 106.732673,66.1386139 106.693069,66.0594059 C106.693069,66.019802 106.653465,66.019802 106.653465,65.980198 C105.940594,65.3465347 105.50495,65.3465347 104.950495,64.5940594 C104.19802,63.5247525 104,62.1782178 103.485149,60.950495 C100.712871,54.019802 96.8712871,47.960396 92.1188119,42.5742574 C86.3762376,36.1188119 79.3267327,30.8514851 70.970297,27.4455446 C57.6633663,21.5445545 44.3960396,24.3564356 34.2178218,31.6831683 C23.7623762,39.4059406 16.3960396,51.8811881 16,65.3861386 C15.0891089,86.6534653 22.8514851,106.930693 35.009901,125.188119 C40.7920792,133.90099 47.6831683,142.09901 55.1287129,149.782178 C56.0792079,149.069307 57.029703,148.316832 57.980198,147.564356 C60.4356436,145.742574 62.9306931,143.960396 65.4653465,142.29703 C63.5643564,140.752475 61.5445545,139.326733 59.5643564,138.178218 C59.3663366,138.059406 59.0891089,138.019802 58.970297,137.821782 C58.4950495,137.029703 58.970297,137.584158 58.970297,136.673267 C58.6534653,136.554455 58.5346535,136.19802 58.6534653,135.881188 C58.7722772,135.564356 59.1287129,135.405941 59.4455446,135.564356 C60.1188119,134.970297 59.4455446,134.970297 60.3564356,134.811881 C60.5148515,134.772277 60.6732673,134.930693 60.8712871,134.970297 C63.7623762,135.960396 66.7722772,137.386139 69.4653465,139.326733 C71.3267327,140.673267 73.1089109,142.178218 74.2574257,144.079208 C75.0891089,145.465347 75.5247525,146.930693 75.8019802,148.514851 C76.1188119,149.386139 75.7227723,150.336634 74.8514851,150.693069 C73.980198,151.009901 73.029703,150.613861 72.7128713,149.742574 C72.1584158,148.910891 71.4455446,148.356436 70.7722772,147.60396 C70.2970297,147.009901 69.7425743,146.455446 69.2277228,145.90099 C67.4851485,147.722772 65.7821782,149.50495 63.9207921,151.207921 C62.6534653,152.39604 61.2673267,153.465347 59.9207921,154.613861 C69.8217822,164.118812 80.5544554,172.712871 91.4059406,180.158416 C96.6732673,183.762376 101.980198,187.326733 107.326733,190.49505 C112.554455,187.366337 117.782178,183.762376 123.128713,179.881188 C143.445545,165.188119 163.841584,145.50495 178.376238,124.19802 C191.643564,104.712871 200.277228,84.1980198 198.653465,65.6633663 Z M256.712871,7.72277228 L249.90099,10.2970297 L220.356436,20.039604 C218.336634,20.6336634 215.762376,21.1881188 213.267327,21.980198 L214.574257,22.2178218 C218.178218,22.8514851 221.821782,23.2475248 225.386139,24.0792079 C226.772277,24.3960396 228.237624,24.5544554 229.584158,24.950495 C236.514851,20.4752475 243.485149,16.1980198 250.217822,11.4455446 C250.732673,11.009901 251.485149,11.0891089 251.920792,11.6039604 C252.356436,12.1188119 252.277228,12.9108911 251.762376,13.3069307 C247.168317,17.7821782 242.49505,22.1782178 237.782178,26.4950495 C238.059406,27.8019802 237.90099,29.1485149 237.821782,30.5346535 C237.584158,34.7326733 236.594059,38.8910891 236.237624,43.0891089 L242.653465,33.1089109 L256.039604,10.4158416 C256.19802,10.0594059 256.435644,8.95049505 256.712871,7.72277228 Z" id="Shape"></path>
        </g>
    </g>
</svg>