<?xml version="1.0" encoding="UTF-8"?>
<svg width="192px" height="200px" viewBox="0 0 192 200" version="1.1" xmlns="http://www.w3.org/2000/svg" xmlns:xlink="http://www.w3.org/1999/xlink">
    <!-- Generator: Sketch 56.3 (81716) - https://sketch.com -->
    <title>10</title>
    <desc>Created with Sketch.</desc>
    <g id="Page-1" stroke="none" stroke-width="1" fill="none" fill-rule="evenodd">
        <g id="10" fill="#2F241F" fill-rule="nonzero">
            <path d="M186.015301,93.5464481 C186.040437,93.7273224 185.627322,94.1174863 185.295082,94.4311475 C184.981967,94.7262295 184.66776,95.0677596 184.386339,95.4491803 C183.463934,94.5513661 182.50929,93.7803279 181.525137,93.1497268 C182.606557,92.963388 183.710383,92.9131148 184.797268,93.0431694 C185.572678,93.1355191 185.995082,93.4153005 186.015301,93.5464481 Z" id="Path"></path>
            <path d="M183.015301,102.72459 C181.482514,104.264481 179.855738,105.356831 178.179235,106.014754 C176.397268,104.963388 174.536066,104.060109 172.600546,103.313661 C173.750273,102.555738 174.874317,101.755191 175.946448,100.88306 C176.210929,100.667213 176.365574,100.342623 176.365574,100.000546 C176.365574,99.6584699 176.210929,99.3338798 175.946448,99.1180328 C174.874317,98.2453552 173.750273,97.4448087 172.600546,96.6868852 C174.536066,95.9404372 176.397268,95.0371585 178.179235,93.9857923 C179.855191,94.6431694 181.481421,95.7355191 183.015301,97.2775956 C183.79071,98.0551913 184.540437,98.9322404 185.337705,100 C184.540437,101.066667 183.791257,101.944809 183.015301,102.72459 Z" id="Path"></path>
            <path d="M181.218579,121.362842 C181.608743,122.284699 181.956831,123.237158 182.304372,124.189071 C182.865574,125.72623 183.442623,127.305464 184.20765,128.780874 C182.721858,129.524044 181.329508,130.461202 179.972678,131.37377 C179.130055,131.94153 178.287978,132.508197 177.428962,133.024044 C174.903825,134.539344 172.168306,135.605464 169.301093,136.232787 C168.353552,134.545902 167.196175,132.978689 165.837158,131.595628 C167.231694,131.060656 168.589071,130.438251 169.918579,129.819126 C172.140984,128.783607 174.239344,127.806557 176.438798,127.278142 C176.82459,127.184699 177.133333,126.899454 177.255738,126.522404 C177.378142,126.146448 177.295628,125.733333 177.039344,125.43224 C175.569945,123.712022 174.446448,121.685792 173.256284,119.542077 C172.545355,118.260109 171.813115,116.959563 170.999454,115.707104 C172.912568,115.386339 174.769945,114.798907 176.527869,113.991257 C178.480328,116.186339 180.066667,118.656284 181.218579,121.362842 Z" id="Path"></path>
            <path d="M164.725137,153.568852 C162.577049,153.914754 160.620219,153.840984 158.878689,153.387432 C158.048087,151.474317 157.063388,149.635519 155.923497,147.879781 C156.561202,147.909836 157.194536,147.985792 157.83388,147.985792 C158.584153,147.985792 159.336612,147.965574 160.087978,147.923497 C160.430055,147.906011 160.744809,147.733333 160.945902,147.456831 C161.146995,147.180328 161.213661,146.826776 161.12623,146.495628 C160.772678,145.162842 160.334973,143.857377 159.851366,142.571585 C161.859016,143.106011 163.897268,143.477049 165.959016,143.67377 C166.922951,145.186339 167.593443,147.019672 167.927869,149.161749 C168.098361,150.247541 168.187978,151.397814 168.206011,152.730055 C166.942623,153.120219 165.797814,153.395628 164.725137,153.568852 Z" id="Path"></path>
            <path d="M145.424044,174.959016 C144.408197,174.922404 143.393443,174.886339 142.395628,174.798907 C139.462295,174.539891 136.622404,173.793989 133.93388,172.615847 C134.159563,170.694536 134.143169,168.746448 133.856831,166.828415 C135.3,167.214754 136.763388,167.50929 138.202186,167.789617 C140.60929,168.25847 142.881967,168.702186 144.97377,169.566667 C145.113661,169.624044 145.261749,169.653552 145.408197,169.653552 C145.644809,169.653552 145.879235,169.579781 146.077049,169.435519 C146.396721,169.203279 146.57377,168.821311 146.542623,168.426776 C146.36612,166.170492 146.646995,163.871038 146.943716,161.437158 C147.124044,159.965574 147.296721,158.465574 147.37377,156.955738 C149.112022,157.824044 150.94918,158.45082 152.84918,158.83224 C153.144262,161.766667 152.976503,164.710929 152.313661,167.59235 C152.089071,168.568852 151.808743,169.545902 151.530055,170.522404 C151.080874,172.093989 150.619672,173.708743 150.372131,175.350273 C148.734973,175.079235 147.057377,175.017486 145.424044,174.959016 Z" id="Path"></path>
            <path d="M120.042623,183.951366 C118.101093,182.969399 116.560109,181.760109 115.419126,180.368852 C115.868306,178.350273 116.151913,176.301093 116.263934,174.228962 C117.339344,175.087978 118.448087,175.90929 119.609836,176.659016 C119.795082,176.779235 120.009836,176.840984 120.22623,176.840984 C120.344262,176.840984 120.462842,176.822404 120.577596,176.785246 C120.903279,176.679781 121.163934,176.432787 121.287432,176.113115 C121.786339,174.824044 122.2,173.508197 122.565574,172.180874 C123.87377,173.791257 125.308197,175.282514 126.85847,176.652459 C126.751913,178.448634 126.216393,180.332787 125.224044,182.26776 C124.728415,183.23388 124.112568,184.237158 123.350273,185.318579 C122.088525,184.889617 121.022951,184.448087 120.042623,183.951366 Z" id="Path"></path>
            <path d="M101.759016,188.002186 C101.002186,188.660109 100.202732,189.285792 99.4027322,189.911475 C98.1163934,190.919672 96.7945355,191.954098 95.6289617,193.137705 C94.463388,191.954098 93.1393443,190.918033 91.852459,189.910383 C91.052459,189.284153 90.2535519,188.659016 89.4978142,188.002186 C87.2781421,186.069945 85.4202186,183.797814 83.9360656,181.262842 C85.2469945,179.840437 86.379235,178.255738 87.2748634,176.536066 C88.2147541,177.696721 89.2251366,178.794536 90.2245902,179.866667 C91.8961749,181.661202 93.4748634,183.356284 94.6584699,185.285792 C94.8650273,185.622951 95.2333333,185.828962 95.6284153,185.828962 C96.0240437,185.828962 96.3918033,185.622951 96.5983607,185.285792 C97.7819672,183.356284 99.3601093,181.661202 101.032787,179.866667 C102.031148,178.794536 103.04153,177.696721 103.981421,176.536066 C104.877049,178.256284 106.009836,179.84153 107.321311,181.263388 C105.837158,183.799454 103.978142,186.071038 101.759016,188.002186 Z" id="Path"></path>
            <path d="M71.2153005,183.951366 C70.2360656,184.448087 69.1704918,184.888525 67.9071038,185.318579 C67.1442623,184.237158 66.5289617,183.23388 66.0333333,182.26776 C65.0420765,180.334426 64.5060109,178.450273 64.4,176.652459 C65.9502732,175.281967 67.3846995,173.791803 68.6923497,172.181421 C69.057377,173.508743 69.4715847,174.82459 69.9699454,176.113115 C70.0934426,176.433333 70.3546448,176.679781 70.6803279,176.785246 C70.7945355,176.821858 70.9136612,176.840984 71.031694,176.840984 C71.2480874,176.840984 71.4628415,176.779235 71.6480874,176.659016 C72.8098361,175.908743 73.9185792,175.087432 74.9945355,174.227869 C75.1060109,176.299454 75.3901639,178.348634 75.8393443,180.368306 C74.6983607,181.759016 73.1562842,182.969399 71.2153005,183.951366 Z" id="Path"></path>
            <path d="M48.8612022,174.798907 C47.863388,174.886339 46.8486339,174.922404 45.8327869,174.959016 C44.1994536,175.017486 42.5218579,175.079235 40.884153,175.350273 C40.6360656,173.708743 40.1754098,172.093989 39.7262295,170.522404 C39.447541,169.545902 39.1672131,168.568852 38.942623,167.59235 C38.2797814,164.710929 38.1114754,161.766667 38.4071038,158.83224 C40.3071038,158.451366 42.1448087,157.824044 43.8825137,156.955738 C43.9595628,158.46612 44.1327869,159.967213 44.3125683,161.439891 C44.6103825,163.873224 44.8918033,166.171585 44.7147541,168.426776 C44.6836066,168.821311 44.8606557,169.203279 45.1803279,169.435519 C45.3781421,169.580328 45.6125683,169.653552 45.8491803,169.653552 C45.9961749,169.653552 46.1437158,169.624044 46.2836066,169.566667 C48.3743169,168.702186 50.647541,168.25847 53.0535519,167.789617 C54.4934426,167.50929 55.9568306,167.215301 57.3994536,166.828415 C57.1136612,168.746995 57.0978142,170.694536 57.3224044,172.615847 C54.6349727,173.793989 51.7956284,174.539891 48.8612022,174.798907 Z" id="Path"></path>
            <path d="M23.0530055,152.730055 C23.0704918,151.40765 23.1617486,150.232787 23.3295082,149.161749 C23.663388,147.019672 24.3338798,145.186339 25.2983607,143.67377 C27.3595628,143.477596 29.3978142,143.106011 31.4054645,142.571585 C30.9224044,143.857377 30.4846995,145.162295 30.1306011,146.495628 C30.042623,146.82623 30.1092896,147.180328 30.310929,147.456831 C30.5120219,147.73388 30.8262295,147.906011 31.1688525,147.923497 C31.9202186,147.965574 32.6715847,147.985792 33.4229508,147.985792 C34.0622951,147.985792 34.6961749,147.90929 35.3338798,147.879781 C34.1945355,149.634426 33.2092896,151.473224 32.3786885,153.387432 C30.6382514,153.840437 28.6803279,153.915847 26.5327869,153.568852 C25.4601093,153.396721 24.3153005,153.120219 23.0530055,152.730055 Z" id="Path"></path>
            <path d="M13.8278689,133.024044 C12.9677596,132.508743 12.1251366,131.940984 11.2825137,131.37377 C9.92677596,130.461202 8.53442623,129.524044 7.04972678,128.780874 C7.81420765,127.30765 8.39016393,125.730601 8.95081967,124.194536 C9.2989071,123.240984 9.64644809,122.286339 10.0387978,121.363388 C11.1918033,118.653552 12.7781421,116.183607 14.7300546,113.99071 C16.4868852,114.798361 18.3442623,115.385792 20.2568306,115.706557 C19.4431694,116.959016 18.7103825,118.260109 17.9989071,119.542623 C16.8098361,121.686339 15.6863388,123.711475 14.2169399,125.431694 C13.9601093,125.732787 13.8781421,126.146448 14.0005464,126.521858 C14.1229508,126.898361 14.431694,127.184153 14.8174863,127.277596 C17.0163934,127.806557 19.115847,128.783607 21.3387978,129.818579 C22.668306,130.437705 24.0251366,131.059563 25.4196721,131.595082 C24.0606557,132.978689 22.9032787,134.545355 21.9557377,136.231694 C19.0885246,135.604372 16.3530055,134.539344 13.8278689,133.024044 Z" id="Path"></path>
            <path d="M5.91967213,100 C6.71092896,98.9420765 7.47431694,98.0464481 8.24153005,97.2765027 C9.77540984,95.7355191 11.4021858,94.642623 13.0781421,93.9852459 C14.8595628,95.036612 16.7213115,95.9398907 18.6568306,96.6863388 C17.5071038,97.4442623 16.3830601,98.2448087 15.3103825,99.1174863 C15.0459016,99.3333333 14.8912568,99.657377 14.8912568,100 C14.8912568,100.342623 15.0459016,100.667213 15.3103825,100.882514 C16.3825137,101.755191 17.5071038,102.555738 18.6568306,103.313115 C16.720765,104.059563 14.8595628,104.963388 13.0781421,106.014754 C11.4010929,105.357377 9.77486339,104.264481 8.24153005,102.72459 C7.47431694,101.953552 6.71092896,101.056831 5.91967213,100 Z" id="Path"></path>
            <path d="M10.0393443,78.6360656 C9.64699454,77.7136612 9.29945355,76.7579235 8.95027322,75.8032787 C8.39016393,74.268306 7.81420765,72.6928962 7.04972678,71.2191257 C8.53442623,70.4770492 9.92677596,69.5398907 11.2825137,68.6262295 C12.1262295,68.0595628 12.9672131,67.4918033 13.8278689,66.9759563 C16.3491803,65.4628415 19.0846995,64.3967213 21.9562842,63.7677596 C22.9032787,65.4540984 24.0606557,67.0213115 25.4196721,68.4043716 C24.0251366,68.9393443 22.668306,69.5617486 21.3387978,70.1803279 C19.1163934,71.2163934 17.0169399,72.1928962 14.8174863,72.7218579 C14.431694,72.8153005 14.1229508,73.1010929 14.0005464,73.4775956 C13.8781421,73.8535519 13.9606557,74.2666667 14.2169399,74.5677596 C15.6863388,76.2879781 16.8098361,78.3131148 17.9989071,80.4568306 C18.7103825,81.7393443 19.4431694,83.0398907 20.2568306,84.2928962 C18.3442623,84.6131148 16.4874317,85.2010929 14.7300546,86.0081967 C12.7786885,83.815847 11.1923497,81.3459016 10.0393443,78.6360656 Z" id="Path"></path>
            <path d="M26.5327869,46.4322404 C28.6770492,46.0896175 30.6371585,46.1606557 32.3786885,46.6131148 C33.2021858,48.5103825 34.1765027,50.3338798 35.3027322,52.0743169 C33.9273224,52.0114754 32.5480874,51.9994536 31.1688525,52.0765027 C30.826776,52.0945355 30.5120219,52.2666667 30.310929,52.5431694 C30.1098361,52.8196721 30.0431694,53.173224 30.1306011,53.5032787 C30.4846995,54.8404372 30.9245902,56.1497268 31.4098361,57.4393443 C29.4060109,56.9076503 27.3699454,56.5469945 25.3114754,56.3497268 C24.3398907,54.8327869 23.6650273,52.9907104 23.3295082,50.8382514 C23.1617486,49.7672131 23.0704918,48.5934426 23.0530055,47.2710383 C24.3278689,46.8754098 25.4486339,46.6054645 26.5327869,46.4322404 Z" id="Path"></path>
            <path d="M45.8327869,25.0415301 C46.8486339,25.0781421 47.863388,25.1136612 48.8612022,25.2010929 C51.7934426,25.4601093 54.6327869,26.2060109 57.3234973,27.3836066 C57.0983607,29.304918 57.1131148,31.2530055 57.4,33.1715847 C55.9568306,32.7846995 54.4939891,32.4901639 53.0540984,32.2103825 C50.6480874,31.7415301 48.3748634,31.2978142 46.284153,30.4333333 C45.9185792,30.2846995 45.5016393,30.3300546 45.1803279,30.5644809 C44.8606557,30.7967213 44.6836066,31.179235 44.7147541,31.5737705 C44.8912568,33.8284153 44.6103825,36.126776 44.3125683,38.5606557 C44.1344262,40.0163934 43.9617486,41.4989071 43.884153,42.9912568 C42.1486339,42.1262295 40.3005464,41.5092896 38.4043716,41.1295082 C38.1147541,38.2076503 38.2825137,35.2770492 38.942623,32.4081967 C39.1672131,31.4311475 39.4469945,30.4546448 39.7262295,29.4775956 C40.1754098,27.9060109 40.636612,26.2912568 40.884153,24.6502732 C42.5218579,24.9213115 44.1994536,24.9825137 45.8327869,25.0415301 Z" id="Path"></path>
            <path d="M71.2153005,16.047541 C73.1562842,17.0306011 74.6983607,18.2415301 75.8387978,19.631694 C75.3896175,21.6513661 75.1060109,23.7005464 74.9945355,25.7721311 C73.9185792,24.9125683 72.8092896,24.0912568 71.647541,23.3409836 C71.3612022,23.1551913 71.0027322,23.1098361 70.6797814,23.2142077 C70.3540984,23.3196721 70.0928962,23.5666667 69.9693989,23.8863388 C69.4710383,25.1754098 69.057377,26.4912568 68.6918033,27.8185792 C67.384153,26.2087432 65.9502732,24.7180328 64.3994536,23.3480874 C64.5060109,21.5508197 65.0415301,19.6666667 66.0327869,17.7322404 C66.5349727,16.7540984 67.1371585,15.7710383 67.9065574,14.6814208 C69.1704918,15.1114754 70.2360656,15.5513661 71.2153005,16.047541 Z" id="Path"></path>
            <path d="M89.4978142,11.9989071 C90.2535519,11.3409836 91.052459,10.7153005 91.852459,10.0896175 C93.1393443,9.08142077 94.4628415,8.04590164 95.6289617,6.86229508 C96.7945355,8.04590164 98.1163934,9.08032787 99.4027322,10.0885246 C100.202732,10.7142077 101.002186,11.3398907 101.759016,11.9989071 C103.978142,13.9289617 105.837158,16.2010929 107.321858,18.736612 C106.010383,20.1590164 104.877596,21.7442623 103.980874,23.4644809 C103.040984,22.3032787 102.030055,21.204918 101.031148,20.1311475 C99.3595628,18.3371585 97.7819672,16.6437158 96.5994536,14.7153005 C96.1863388,14.0398907 95.0726776,14.0398907 94.6590164,14.7153005 C93.4765027,16.6437158 91.8972678,18.3371585 90.2273224,20.1311475 C89.2273224,21.2043716 88.2163934,22.3032787 87.2765027,23.4644809 C86.3803279,21.7448087 85.2480874,20.1590164 83.936612,18.7371585 C85.4202186,16.2021858 87.2786885,13.9300546 89.4978142,11.9989071 Z" id="Path"></path>
            <path d="M120.042623,16.0486339 C121.022951,15.5519126 122.088525,15.110929 123.349727,14.6819672 C124.119126,15.7710383 124.721311,16.7546448 125.223497,17.7327869 C126.215847,19.6688525 126.751366,21.5535519 126.857923,23.3486339 C125.30765,24.7180328 123.873224,26.2092896 122.565027,27.8196721 C122.199454,26.4923497 121.785792,25.1765027 121.286885,23.8874317 C121.163388,23.5677596 120.902186,23.320765 120.577049,23.2153005 C120.251366,23.1142077 119.894536,23.1579235 119.60929,23.3420765 C118.448087,24.0918033 117.339344,24.9131148 116.263388,25.7726776 C116.151366,23.7005464 115.867213,21.6513661 115.418579,19.6322404 C116.560109,18.2398907 118.101093,17.0306011 120.042623,16.0486339 Z" id="Path"></path>
            <path d="M142.395628,25.2010929 C143.393443,25.1136612 144.408197,25.0775956 145.424044,25.0415301 C147.057377,24.9825137 148.734973,24.9213115 150.372678,24.6502732 C150.620765,26.2912568 151.081421,27.9060109 151.530601,29.4775956 C151.80929,30.4546448 152.089617,31.4311475 152.314208,32.4081967 C152.974317,35.2775956 153.142077,38.2098361 152.852459,41.131694 C150.956284,41.5114754 149.108197,42.1273224 147.372678,42.9918033 C147.294536,41.5 147.122404,40.0174863 146.944262,38.5622951 C146.647541,36.1284153 146.36612,33.8289617 146.543169,31.573224 C146.574317,31.1786885 146.397268,30.7967213 146.077596,30.5639344 C145.757923,30.3295082 145.340984,30.284153 144.97377,30.4327869 C142.881967,31.2972678 140.609836,31.7409836 138.202186,32.2098361 C136.763388,32.4901639 135.3,32.784153 133.856831,33.1710383 C134.143169,31.252459 134.15847,29.3043716 133.933333,27.3836066 C136.625137,26.2060109 139.464481,25.4601093 142.395628,25.2010929 Z" id="Path"></path>
            <path d="M168.204918,47.2710383 C168.186885,48.6027322 168.097268,49.7530055 167.926776,50.8382514 C167.591257,52.9901639 166.916393,54.8322404 165.945355,56.3486339 C163.887432,56.5453552 161.851366,56.9071038 159.846448,57.4387978 C160.33224,56.1491803 160.771038,54.8404372 161.125683,53.5027322 C161.213661,53.1726776 161.146995,52.8191257 160.945355,52.542623 C160.744262,52.2655738 160.429508,52.0934426 160.087432,52.0759563 C158.70765,51.9989071 157.328962,52.0114754 155.954098,52.0737705 C157.080874,50.331694 158.055738,48.5081967 158.878689,46.6114754 C160.619672,46.1579235 162.577596,46.0836066 164.725137,46.4311475 C165.808743,46.6054645 166.930055,46.8754098 168.204918,47.2710383 Z" id="Path"></path>
            <path d="M177.428962,66.9759563 C178.287978,67.4918033 179.130055,68.0584699 179.972678,68.6262295 C181.329508,69.5387978 182.722404,70.4765027 184.20765,71.2191257 C183.442077,72.695082 182.865027,74.273224 182.305464,75.8098361 C181.956284,76.7622951 181.609836,77.715847 181.218579,78.6360656 C180.066667,81.3437158 178.480328,83.8136612 176.527869,86.0092896 C174.770492,85.2016393 172.912568,84.6142077 171,84.2934426 C171.813115,83.0409836 172.545355,81.7404372 173.256284,80.4584699 C174.446448,78.3147541 175.569945,76.2885246 177.039344,74.568306 C177.296175,74.2672131 177.378142,73.8535519 177.255738,73.4781421 C177.133333,73.1016393 176.82459,72.815847 176.438798,72.7224044 C174.239891,72.1934426 172.14153,71.2169399 169.918579,70.1808743 C168.589071,69.5617486 167.231694,68.9398907 165.837158,68.404918 C167.196175,67.0218579 168.353552,65.4546448 169.301093,63.768306 C172.171585,64.3967213 174.906011,65.4622951 177.428962,66.9759563 Z" id="Path"></path>
            <path d="M179.507104,109.543169 C176.620765,111.808743 173.10929,113.208197 169.455191,113.592896 C169.183607,113.257923 168.922404,112.915301 168.627322,112.598361 C166.840984,110.679235 164.609836,109.20765 162.177596,108.256284 C164.938251,107.4 167.603825,106.244809 170.131148,104.824044 C173.483607,105.928962 176.633333,107.50765 179.507104,109.543169 Z" id="Path"></path>
            <path d="M169.096175,141.582514 C165.577049,141.540437 162.101639,140.96612 158.737705,139.890164 C157.517486,137.230055 156.021858,134.70765 154.271585,132.374863 C155.756284,132.768852 157.275956,133.029508 158.813115,133.029508 C159.911475,133.029508 161.00929,132.92623 162.09071,132.715301 C162.516393,132.63224 162.928962,132.508197 163.345355,132.396721 C166.074863,134.855191 168.093989,138.052459 169.096175,141.582514 Z" id="Path"></path>
            <path d="M157.878689,157.022404 C154.208743,157.174317 150.547541,156.229508 147.365574,154.392896 C147.342623,153.961749 147.332787,153.531148 147.280328,153.1 C146.962842,150.495628 146.025137,147.995628 144.615847,145.796175 C147.353005,146.72623 150.189617,147.362842 153.071585,147.698361 C155.13224,150.563934 156.75082,153.690164 157.878689,157.022404 Z" id="Path"></path>
            <path d="M130.623497,176.82459 C127.802186,174.720219 125.327322,172.213115 123.237705,169.36612 C123.80929,166.522951 124.083607,163.631148 124.045355,160.74153 C125.701093,162.760656 127.789071,164.42623 130.16776,165.533333 C130.561202,165.715847 130.96776,165.859016 131.370492,166.013115 C132.133333,169.607104 131.886885,173.379235 130.623497,176.82459 Z" id="Path"></path>
            <path d="M112.473224,182.722404 C109.42623,180.677596 107.010383,177.769945 105.514208,174.414754 C105.748634,174.053005 105.993989,173.698361 106.204372,173.319672 C107.478689,171.02623 108.189071,168.451913 108.342077,165.844262 C110.009836,168.204918 111.931694,170.38306 114.065027,172.346995 C114.048634,175.878142 113.520219,179.361202 112.473224,182.722404 Z" id="Path"></path>
            <path d="M43.9770492,153.1 C43.9240437,153.530601 43.9142077,153.961749 43.8918033,154.392896 C40.7087432,156.228962 37.0404372,157.174317 33.3781421,157.022404 C34.5076503,153.687978 36.126776,150.561202 38.1868852,147.698361 C41.0677596,147.363388 43.904918,146.726776 46.6420765,145.796721 C45.2327869,147.995082 44.2945355,150.495082 43.9770492,153.1 Z" id="Path"></path>
            <path d="M22.1606557,141.582514 C23.1628415,138.053552 25.1808743,134.857377 27.9114754,132.396721 C28.3278689,132.508197 28.7409836,132.63224 29.1661202,132.715301 C30.247541,132.92623 31.3453552,133.029508 32.4431694,133.029508 C33.9803279,133.029508 35.5,132.76776 36.9852459,132.374863 C35.2349727,134.70765 33.7393443,137.230055 32.5191257,139.890164 C29.1551913,140.96612 25.6808743,141.540437 22.1606557,141.582514 Z" id="Path"></path>
            <path d="M11.7508197,109.543169 C14.6234973,107.50765 17.7726776,105.928962 21.1262295,104.823497 C23.6535519,106.245355 26.3191257,107.4 29.0803279,108.256284 C26.6480874,109.207104 24.4180328,110.678142 22.6306011,112.597814 C22.3349727,112.914754 22.0737705,113.257377 21.8021858,113.59235 C18.147541,113.20765 14.6355191,111.808197 11.7508197,109.543169 Z" id="Path"></path>
            <path d="M11.7508197,90.4568306 C14.6355191,88.1912568 18.147541,86.7923497 21.8027322,86.4071038 C22.0743169,86.7420765 22.3355191,87.0846995 22.6311475,87.4021858 C24.420765,89.3251366 26.6562842,90.7896175 29.0928962,91.7398907 C26.3278689,92.5967213 23.6579235,93.752459 21.126776,95.1765027 C17.7721311,94.0710383 14.6234973,92.4923497 11.7508197,90.4568306 Z" id="Path"></path>
            <path d="M22.1606557,58.4174863 C25.6819672,58.4606557 29.1590164,59.0349727 32.5191257,60.1098361 C33.7284153,62.7459016 35.2065574,65.247541 36.936612,67.563388 C34.4092896,66.9032787 31.7415301,66.7830601 29.1661202,67.2846995 C28.7404372,67.3677596 28.3278689,67.4912568 27.9114754,67.6027322 C25.1808743,65.142623 23.1628415,61.9464481 22.1606557,58.4174863 Z" id="Path"></path>
            <path d="M33.3781421,42.9781421 C37.0404372,42.8289617 40.7087432,43.7721311 43.8918033,45.6087432 C43.9142077,46.0393443 43.9240437,46.4699454 43.9770492,46.9 C44.2945355,49.5043716 45.2327869,52.0043716 46.6415301,54.2032787 C43.9043716,53.2726776 41.068306,52.6387978 38.1879781,52.3032787 C36.1273224,49.4404372 34.5081967,46.3125683 33.3781421,42.9781421 Z" id="Path"></path>
            <path d="M60.6333333,23.1754098 C63.4568306,25.2808743 65.931694,27.7879781 68.0185792,30.6338798 C67.447541,33.4765027 67.173224,36.3688525 67.2120219,39.2590164 C65.5557377,37.2393443 63.4677596,35.5743169 61.089071,34.4672131 C60.6956284,34.284153 60.289071,34.1415301 59.8857923,33.9868852 C59.1240437,30.3928962 59.3699454,26.6213115 60.6333333,23.1754098 Z" id="Path"></path>
            <path d="M78.7846995,17.2775956 C81.8322404,19.3234973 84.2486339,22.2306011 85.7431694,25.5863388 C85.5081967,25.9480874 85.2628415,26.3027322 85.052459,26.6814208 C83.7781421,28.9754098 83.068306,31.5491803 82.9153005,34.1562842 C81.2480874,31.7961749 79.3256831,29.6174863 77.1928962,27.6540984 C77.2087432,24.1240437 77.736612,20.6415301 78.7846995,17.2775956 Z" id="Path"></path>
            <path d="M147.279781,46.9 C147.33224,46.4693989 147.342623,46.0393443 147.365027,45.6087432 C150.547541,43.7726776 154.208197,42.8289617 157.878142,42.9786885 C156.750273,46.310929 155.131694,49.4377049 153.069399,52.3038251 C150.189071,52.6393443 147.352459,53.2721311 144.615847,54.2032787 C146.025137,52.0038251 146.962842,49.5038251 147.279781,46.9 Z" id="Path"></path>
            <path d="M169.096175,58.4174863 C168.092896,61.947541 166.074317,65.1442623 163.344809,67.6027322 C162.928415,67.4912568 162.515847,67.3677596 162.090164,67.2846995 C159.51694,66.7830601 156.848087,66.9032787 154.319126,67.5639344 C156.049727,65.2480874 157.527869,62.7464481 158.737705,60.1098361 C162.099454,59.0349727 165.57377,58.4606557 169.096175,58.4174863 Z" id="Path"></path>
            <path d="M166.962842,85.8502732 C164.756831,88.2185792 161.782514,89.7989071 158.619126,90.4065574 C158.625683,90.4 158.634426,90.3956284 158.64153,90.389071 C160.100546,88.9098361 160.65082,86.8754098 160.042623,85.2081967 C159.528415,83.7912568 158.223497,82.6710383 156.271038,81.9688525 C155.861202,81.820765 155.440984,81.6923497 155.021858,81.5644809 C154.565027,81.4245902 154.121858,81.289071 153.704918,81.1300546 C153.948087,80.7579235 154.227322,80.389071 154.513661,80.0076503 C154.778142,79.657377 155.042623,79.3060109 155.287978,78.9437158 C156.453552,77.2256831 156.850273,75.5519126 156.434973,74.1060109 C155.946995,72.3989071 154.305464,71.0775956 152.255191,70.7377049 C152.239344,70.7349727 152.222951,70.7355191 152.207104,70.7327869 C155.125683,69.3562842 158.469399,68.8978142 161.655191,69.5185792 C164.151366,70.0065574 166.486339,71.0934426 168.957923,72.2448087 C170.666667,73.0404372 172.421858,73.857377 174.239891,74.457377 C173.120765,76.0120219 172.181421,77.7060109 171.26612,79.3551913 C169.943169,81.7387978 168.693989,83.9901639 166.962842,85.8502732 Z" id="Path"></path>
            <path d="M129.243169,152.028962 C129.212022,152.990164 129.004918,154.268306 128.201639,154.897268 C127.393443,155.528415 126.140984,155.365027 125.260109,154.924044 C124.438251,154.512022 123.725683,153.85082 123.053005,153.137705 C125.187978,152.039344 127.244262,150.781421 129.245355,149.42459 C129.227322,149.897814 129.232787,150.367213 129.240984,150.826776 C129.247541,151.228415 129.255191,151.629508 129.243169,152.028962 Z" id="Path"></path>
            <path d="M62.0120219,149.424044 C64.0131148,150.781421 66.0693989,152.039344 68.2038251,153.137705 C67.5300546,153.851366 66.8180328,154.512568 65.9967213,154.922951 C65.1174863,155.365574 63.8639344,155.528415 63.057377,154.897268 C62.2519126,154.268306 62.0448087,152.990164 62.0142077,152.030055 C62.0021858,151.630055 62.0092896,151.228415 62.0174863,150.827322 C62.0245902,150.366667 62.0300546,149.897814 62.0120219,149.424044 Z" id="Path"></path>
            <path d="M62.0136612,47.9710383 C62.0448087,47.0098361 62.2513661,45.731694 63.0557377,45.1027322 C63.8639344,44.4737705 65.1153005,44.6327869 65.9961749,45.0775956 C66.8174863,45.4879781 67.5306011,46.1486339 68.2038251,46.8622951 C66.0688525,47.9606557 64.0125683,49.2185792 62.0114754,50.5759563 C62.0295082,50.1021858 62.0240437,49.6333333 62.0163934,49.1737705 C62.0092896,48.7710383 62.0016393,48.3704918 62.0136612,47.9710383 Z" id="Path"></path>
            <path d="M129.245355,50.5759563 C127.244262,49.2185792 125.187432,47.9606557 123.053005,46.8622951 C123.72623,46.1491803 124.438251,45.4885246 125.260109,45.0775956 C126.139344,44.6349727 127.393989,44.4743169 128.200546,45.1016393 C129.004918,45.731694 129.212022,47.0098361 129.243169,47.9699454 C129.255191,48.3699454 129.247541,48.7710383 129.240984,49.1726776 C129.232787,49.6333333 129.227322,50.1021858 129.245355,50.5759563 Z" id="Path"></path>
            <path d="M157.020765,88.7912568 C156.374317,89.4459016 155.52623,89.9191257 154.640984,90.3387978 C154.255191,87.9693989 153.694536,85.6245902 153.021311,83.3016393 C153.467213,83.4655738 153.914754,83.6060109 154.355738,83.7404372 C154.740437,83.8579235 155.123497,83.9748634 155.499454,84.1103825 C156.404372,84.4349727 157.554645,85.0251366 157.904372,85.9874317 C158.254098,86.9497268 157.713115,88.089071 157.020765,88.7912568 Z" id="Path"></path>
            <path d="M152.696721,78.6371585 C152.419672,79.0043716 152.139344,79.3814208 151.87541,79.7754098 C151.055191,77.5 150.130601,75.2737705 149.04918,73.1300546 C150.00929,72.9491803 150.972678,72.8338798 151.884153,72.9825137 C152.856831,73.1437158 153.96612,73.7480874 154.248087,74.7344262 C154.529508,75.7153005 153.944809,76.8704918 153.405464,77.6650273 C153.180874,77.9956284 152.938798,78.315847 152.696721,78.6371585 Z" id="Path"></path>
            <path d="M149.178142,67.8448087 C148.778142,68.8081967 148.227869,69.6868852 147.610383,70.5185792 C146.780328,69.0617486 145.89235,67.6415301 144.94153,66.2606557 C145.942623,66.0311475 146.998361,66.004918 147.997814,66.1994536 C148.748087,66.342623 149.331148,66.689071 149.384699,67.0218579 C149.423497,67.2535519 149.251366,67.6693989 149.178142,67.8448087 Z" id="Path"></path>
            <path d="M143.957923,60.6404372 C143.831694,61.6513661 143.481967,62.6464481 142.954645,63.526776 C141.934426,62.195082 140.85847,60.9120219 139.730055,59.6726776 C140.712568,59.342623 141.718033,59.0901639 142.757377,59.0076503 C142.947541,58.9945355 143.395082,58.9584699 143.605464,59.0661202 C143.904918,59.2202186 144.052459,59.8814208 143.957923,60.6404372 Z" id="Path"></path>
            <path d="M138.706011,54.8469945 C138.569399,55.7557377 138.161202,56.6371585 137.691257,57.4972678 C135.986339,55.8060109 134.155191,54.2393443 132.245902,52.7557377 C132.700546,52.626776 133.144262,52.4770492 133.578142,52.3278689 C133.95847,52.1967213 134.339891,52.0655738 134.725137,51.9530055 C135.646448,51.6863388 136.92459,51.4852459 137.772678,52.057377 C138.622951,52.6306011 138.854098,53.8721311 138.706011,54.8469945 Z" id="Path"></path>
            <path d="M115.693443,43.7191257 C116.36776,42.9453552 117.206011,42.304918 118.128962,41.8726776 C118.821311,41.5491803 119.493443,41.4846995 119.735519,41.7245902 C119.903825,41.8901639 120.007104,42.3245902 120.051366,42.5103825 C120.293443,43.5234973 120.363934,44.5584699 120.353552,45.595082 C118.826776,44.9043716 117.274317,44.2770492 115.693443,43.7191257 Z" id="Path"></path>
            <path d="M107.604372,41.452459 C108.205464,40.6065574 108.871038,39.8114754 109.663934,39.1338798 C109.808743,39.0092896 110.147541,38.7191257 110.380874,38.6825137 C110.727322,38.6437158 111.224044,39.0814208 111.593443,39.7480874 C112.085246,40.6404372 112.386885,41.6508197 112.477596,42.6737705 C110.869945,42.1967213 109.245355,41.7918033 107.604372,41.452459 Z" id="Path"></path>
            <path d="M97.4825137,40.2557377 C97.7754098,39.8836066 98.0469945,39.5016393 98.310929,39.1245902 C98.5409836,38.7945355 98.7710383,38.4644809 99.0169399,38.1491803 C99.6060109,37.3901639 100.524044,36.4775956 101.544809,36.4409836 C102.546448,36.4185792 103.485246,37.273224 103.939891,38.1491803 C104.363388,38.9666667 104.551366,39.9196721 104.675956,40.8907104 C102.302732,40.5245902 99.8994536,40.3338798 97.4825137,40.2557377 Z" id="Path"></path>
            <path d="M86.5819672,40.8907104 C86.7071038,39.9174863 86.8956284,38.963388 87.3174863,38.1497268 C87.7721311,37.2737705 88.6912568,36.4459016 89.7120219,36.4415301 C90.7344262,36.4781421 91.6513661,37.3907104 92.2404372,38.1497268 C92.4846995,38.4655738 92.7147541,38.7945355 92.9464481,39.1229508 C93.2103825,39.5005464 93.4819672,39.8830601 93.7754098,40.2557377 C91.3584699,40.3338798 88.9551913,40.5240437 86.5819672,40.8907104 Z" id="Path"></path>
            <path d="M83.6530055,41.4519126 C82.0125683,41.7907104 80.3874317,42.1961749 78.7803279,42.6737705 C78.8710383,41.6513661 79.1721311,40.6409836 79.6639344,39.7480874 C80.0327869,39.0814208 80.5562842,38.6437158 80.8748634,38.6825137 C81.1098361,38.7180328 81.4497268,39.0103825 81.5961749,39.1360656 C82.3885246,39.8125683 83.0530055,40.6071038 83.6530055,41.4519126 Z" id="Path"></path>
            <path d="M70.9032787,45.595082 C70.8923497,44.5579235 70.963388,43.5234973 71.2065574,42.5098361 C71.2508197,42.3245902 71.3551913,41.8885246 71.5234973,41.7218579 C71.7612022,41.4874317 72.436612,41.547541 73.1289617,41.8721311 C74.0519126,42.304918 74.8907104,42.9459016 75.5644809,43.7185792 C73.9830601,44.2775956 72.4306011,44.9043716 70.9032787,45.595082 Z" id="Path"></path>
            <path d="M53.5655738,57.4978142 C53.0961749,56.6398907 52.6885246,55.7590164 52.5497268,54.8469945 C52.4027322,53.8721311 52.6338798,52.6306011 53.4830601,52.057377 C54.3333333,51.4874317 55.6114754,51.6852459 56.5327869,51.9540984 C56.9185792,52.0650273 57.3005464,52.1972678 57.6819672,52.3289617 C58.1153005,52.4775956 58.5579235,52.626776 59.0120219,52.7557377 C57.1021858,54.2393443 55.2704918,55.8065574 53.5655738,57.4978142 Z" id="Path"></path>
            <path d="M47.6530055,59.0655738 C47.8606557,58.9557377 48.3087432,58.9912568 48.5,59.0081967 C49.5387978,59.0907104 50.5448087,59.342623 51.5273224,59.673224 C50.3983607,60.9125683 49.3224044,62.1956284 48.3027322,63.526776 C47.7754098,62.6459016 47.4245902,61.6508197 47.2989071,60.6393443 C47.2043716,59.8814208 47.3519126,59.2202186 47.6530055,59.0655738 Z" id="Path"></path>
            <path d="M43.647541,70.5196721 C43.0289617,69.6885246 42.4786885,68.8098361 42.0786885,67.8459016 C42.0054645,67.6693989 41.8333333,67.2535519 41.8721311,67.0213115 C41.9256831,66.689071 42.5098361,66.3420765 43.2601093,66.1989071 C44.263388,66.0027322 45.3174863,66.0295082 46.3169399,66.2595628 C45.3650273,67.6420765 44.4770492,69.0628415 43.647541,70.5196721 Z" id="Path"></path>
            <path d="M42.2087432,73.1306011 C41.1273224,75.2737705 40.2032787,77.5005464 39.3819672,79.7759563 C39.1185792,79.3825137 38.8393443,79.0065574 38.5622951,78.6393443 C38.3202186,78.3180328 38.0775956,77.9967213 37.852459,77.6655738 C37.3120219,76.8699454 36.7278689,75.7153005 37.0092896,74.7338798 C37.2928962,73.7480874 38.4005464,73.1431694 39.3726776,72.9819672 C40.2814208,72.8338798 41.2459016,72.9491803 42.2087432,73.1306011 Z" id="Path"></path>
            <path d="M38.2360656,83.3016393 C37.5628415,85.6240437 37.0016393,87.9688525 36.6163934,90.3382514 C35.731694,89.9191257 34.8836066,89.4459016 34.2371585,88.7907104 C33.5437158,88.0885246 33.0010929,86.9491803 33.352459,85.9857923 C33.7027322,85.0245902 34.8530055,84.4344262 35.757377,84.1087432 C36.1333333,83.9743169 36.5163934,83.857377 36.9010929,83.7398907 C37.3420765,83.6054645 37.7901639,83.4650273 38.2360656,83.3016393 Z" id="Path"></path>
            <path d="M32.7546448,95.0836066 C32.8612022,94.8710383 33.242623,94.6382514 33.4043716,94.5387978 C34.2956284,93.9939891 35.2568306,93.6065574 36.2448087,93.2972678 C36.0601093,94.963388 35.9431694,96.6333333 35.9005464,98.3092896 C34.9562842,97.9071038 34.089071,97.3081967 33.3918033,96.5639344 C32.8715847,96.0071038 32.6027322,95.3836066 32.7546448,95.0836066 Z" id="Path"></path>
            <path d="M35.9016393,101.691257 C35.9448087,103.367213 36.0606557,105.037158 36.2453552,106.702732 C35.257377,106.393443 34.2961749,106.006011 33.404918,105.461749 C33.242623,105.362295 32.8617486,105.129508 32.7551913,104.91694 C32.6027322,104.61694 32.8715847,103.994536 33.3939891,103.435519 C34.089071,102.69235 34.9568306,102.093989 35.9016393,101.691257 Z" id="Path"></path>
            <path d="M34.2371585,111.208743 C34.8836066,110.554098 35.7311475,110.080874 36.6163934,109.661749 C37.0016393,112.031694 37.5628415,114.375956 38.2360656,116.698907 C37.7907104,116.534973 37.3420765,116.394536 36.9010929,116.260109 C36.5163934,116.142077 36.1333333,116.025137 35.757377,115.89071 C34.852459,115.565027 33.7021858,114.974863 33.352459,114.014754 C33.0016393,113.050273 33.5437158,111.910929 34.2371585,111.208743 Z" id="Path"></path>
            <path d="M38.5622951,121.361749 C38.8387978,120.994536 39.1180328,120.619126 39.3814208,120.225137 C40.2027322,122.5 41.126776,124.726776 42.2081967,126.870492 C41.2453552,127.053005 40.2797814,127.170492 39.3726776,127.017486 C38.4005464,126.856284 37.2923497,126.252459 37.0092896,125.26612 C36.7278689,124.283607 37.3125683,123.131694 37.852459,122.336066 C38.0770492,122.004372 38.3202186,121.68306 38.5622951,121.361749 Z" id="Path"></path>
            <path d="M42.0786885,132.155191 C42.4786885,131.19071 43.0289617,130.312568 43.6469945,129.480874 C44.4765027,130.938251 45.3644809,132.35847 46.3153005,133.739344 C45.315847,133.968852 44.263388,133.995082 43.2601093,133.800546 C42.5098361,133.657377 41.9256831,133.310929 41.8721311,132.978142 C41.8333333,132.746448 42.0054645,132.330601 42.0786885,132.155191 Z" id="Path"></path>
            <path d="M47.2989071,139.361749 C47.4245902,138.34918 47.7754098,137.354645 48.3021858,136.474317 C49.3224044,137.805464 50.3978142,139.088525 51.526776,140.327322 C50.5442623,140.657923 49.5382514,140.909836 48.4983607,140.99235 C48.3060109,141.008743 47.8628415,141.042623 47.6513661,140.935519 C47.3530055,140.780874 47.2043716,140.118579 47.2989071,139.361749 Z" id="Path"></path>
            <path d="M52.5497268,145.153005 C52.6885246,144.240984 53.0967213,143.360656 53.5655738,142.502186 C55.2699454,144.192896 57.1021858,145.760109 59.0120219,147.244262 C58.5579235,147.373224 58.1147541,147.522404 57.6814208,147.671038 C57.3,147.802186 56.9180328,147.934426 56.5311475,148.046995 C55.6076503,148.314754 54.3284153,148.513661 53.4836066,147.942623 C52.6338798,147.369399 52.4027322,146.127869 52.5497268,145.153005 Z" id="Path"></path>
            <path d="M75.5644809,156.281421 C74.8907104,157.054098 74.0519126,157.694536 73.1284153,158.127869 C72.4382514,158.453552 71.7606557,158.51694 71.5245902,158.279781 C71.3557377,158.112022 71.2513661,157.67541 71.2065574,157.488525 C70.963388,156.475956 70.8923497,155.442077 70.9032787,154.404918 C72.4306011,155.095628 73.9836066,155.723497 75.5644809,156.281421 Z" id="Path"></path>
            <path d="M83.6530055,158.548087 C83.0530055,159.392896 82.3879781,160.187432 81.5961749,160.865027 C81.3551913,161.070492 81.0803279,161.285246 80.8759563,161.317486 C80.5338798,161.363934 80.0327869,160.919126 79.6644809,160.252459 C79.1721311,159.359016 78.8704918,158.348634 78.7797814,157.32623 C80.3874317,157.803279 82.0125683,158.208197 83.6530055,158.548087 Z" id="Path"></path>
            <path d="M93.7754098,159.744262 C93.4819672,160.11694 93.2103825,160.5 92.9464481,160.877049 C92.7153005,161.206011 92.4852459,161.534973 92.2404372,161.850273 C91.6513661,162.609836 90.7344262,163.521858 89.7120219,163.55847 C88.6595628,163.546448 87.7704918,162.725137 87.3174863,161.850273 C86.8956284,161.036612 86.7076503,160.082514 86.5819672,159.108743 C88.9551913,159.47541 91.3584699,159.66612 93.7754098,159.744262 Z" id="Path"></path>
            <path d="M104.67541,159.10929 C104.550273,160.079781 104.362842,161.033333 103.939344,161.85082 C103.485792,162.726776 102.597814,163.540437 101.544262,163.559016 C100.522951,163.522404 99.6054645,162.610383 99.0163934,161.85082 C98.7704918,161.535519 98.5404372,161.204918 98.3103825,160.87541 C98.0464481,160.498907 97.7754098,160.116393 97.4825137,159.744809 C99.8994536,159.66612 102.302732,159.47541 104.67541,159.10929 Z" id="Path"></path>
            <path d="M107.604372,158.548087 C109.245902,158.208743 110.870492,157.803825 112.477049,157.32623 C112.385792,158.348634 112.084153,159.360109 111.591803,160.251913 C111.222951,160.923497 110.718033,161.362295 110.381421,161.318033 C110.146995,161.281421 109.807104,160.99071 109.662295,160.866667 C108.870492,160.188525 108.205464,159.392896 107.604372,158.548087 Z" id="Path"></path>
            <path d="M120.353552,154.404918 C120.364481,155.442077 120.293443,156.476503 120.051366,157.490164 C120.006557,157.675956 119.902186,158.111475 119.733333,158.279235 C119.493443,158.515301 118.820765,158.450273 118.127869,158.128415 C117.205464,157.696175 116.36776,157.054645 115.693443,156.280874 C117.274317,155.721858 118.826776,155.095082 120.353552,154.404918 Z" id="Path"></path>
            <path d="M137.691257,142.503279 C138.161202,143.362842 138.569945,144.244262 138.707104,145.153005 C138.854098,146.127869 138.622951,147.369399 137.772678,147.942077 C136.92459,148.514754 135.647541,148.314754 134.724044,148.045355 C134.339344,147.934426 133.95847,147.803279 133.578142,147.671585 C133.144262,147.522404 132.701093,147.372678 132.245902,147.243716 C134.155191,145.760656 135.986885,144.193989 137.691257,142.503279 Z" id="Path"></path>
            <path d="M143.606011,140.934426 C143.39235,141.044262 142.94918,141.010383 142.757923,140.991803 C141.718579,140.909836 140.712568,140.657923 139.730601,140.326776 C140.859563,139.087432 141.936066,137.804918 142.955191,136.47377 C143.48306,137.354098 143.832787,138.34918 143.957923,139.361202 C144.052459,140.118579 143.903825,140.780874 143.606011,140.934426 Z" id="Path"></path>
            <path d="M147.610383,129.481421 C148.227869,130.313115 148.778142,131.191257 149.178142,132.154098 C149.251366,132.330601 149.424044,132.746448 149.384699,132.978689 C149.331148,133.310929 148.748087,133.657923 147.997814,133.801093 C146.996175,133.994536 145.942077,133.968852 144.942077,133.739344 C145.893443,132.357923 146.780874,130.937705 147.610383,129.481421 Z" id="Path"></path>
            <path d="M149.04918,126.869945 C150.130601,124.72623 151.054098,122.499454 151.874863,120.225137 C152.139344,120.620219 152.419672,120.996721 152.697268,121.365574 C152.938251,121.685246 153.180874,122.006557 153.404918,122.335519 C153.944809,123.131148 154.528415,124.284699 154.247541,125.266667 C153.965574,126.251913 152.856284,126.855738 151.883607,127.01694 C150.97377,127.16776 150.010383,127.051366 149.04918,126.869945 Z" id="Path"></path>
            <path d="M153.020765,116.699454 C153.693989,114.376503 154.255738,112.031694 154.640984,109.661202 C155.52623,110.081421 156.374317,110.554645 157.020765,111.208743 C157.713115,111.910929 158.254098,113.051366 157.904372,114.015301 C157.554098,114.97541 156.403825,115.565574 155.499454,115.891257 C155.123497,116.025683 154.740437,116.142623 154.357377,116.260656 C153.915847,116.394536 153.466667,116.534973 153.020765,116.699454 Z" id="Path"></path>
            <path d="M158.502186,104.916393 C158.395628,105.128962 158.014208,105.361749 157.852459,105.462295 C156.961749,106.006557 156,106.393443 155.012022,106.702732 C155.197268,105.037158 155.313661,103.367213 155.356284,101.69071 C156.300546,102.093443 157.168852,102.69235 157.865027,103.434973 C158.385246,103.993443 158.654098,104.616393 158.502186,104.916393 Z" id="Path"></path>
            <path d="M155.355191,98.3098361 C155.312568,96.6333333 155.196175,94.9628415 155.011475,93.2972678 C156,93.6065574 156.961202,93.9939891 157.851913,94.5387978 C158.014208,94.6377049 158.395082,94.8710383 158.502732,95.0836066 C158.654098,95.3846995 158.386339,96.0071038 157.863934,96.5639344 C157.167213,97.3081967 156.299454,97.9076503 155.355191,98.3098361 Z" id="Path"></path>
            <path d="M151.662842,67.2060109 C151.670492,67.0262295 151.662295,66.8420765 151.631694,66.6546448 C151.412568,65.3142077 150.214754,64.3076503 148.428962,63.963388 C147.410383,63.768306 146.351913,63.763388 145.312568,63.9032787 C145.766667,62.9590164 146.088525,61.9508197 146.216393,60.9213115 C146.443169,59.1142077 145.856284,57.6639344 144.648087,57.042623 C144.455738,56.9431694 144.260109,56.8765027 144.063388,56.8262295 C148.655738,55.0786885 153.581421,54.2021858 158.533333,54.2967213 C157.092896,59.015847 154.724044,63.3885246 151.662842,67.2060109 Z" id="Path"></path>
            <path d="M145.021858,46.6240437 C144.629508,49.8420765 143.157923,52.8830601 140.946448,55.2349727 C140.94918,55.2185792 140.954645,55.2032787 140.956831,55.1868852 C141.26776,53.1344262 140.519126,51.1650273 139.046448,50.1704918 C137.8,49.3300546 136.087978,49.1923497 134.091257,49.7672131 C133.669945,49.8896175 133.253005,50.0327869 132.837705,50.1765027 C132.387978,50.3311475 131.95082,50.4819672 131.521858,50.5978142 C131.499454,50.1535519 131.508743,49.6912568 131.516393,49.2142077 C131.524044,48.7754098 131.531694,48.3349727 131.517486,47.8983607 C131.45082,45.8245902 130.789617,44.2377049 129.602732,43.3098361 C128.203279,42.2174863 126.1,42.1098361 124.240437,43.0431694 C124.22459,43.0513661 124.212568,43.0644809 124.196721,43.0726776 C125.74918,40.2404372 128.187978,37.8994536 131.128415,36.5306011 C133.434426,35.4584699 135.962842,34.9661202 138.638798,34.4448087 C140.490164,34.0836066 142.389617,33.7136612 144.213115,33.1300546 C144.221858,35.0459016 144.456284,36.9672131 144.685246,38.8387978 C145.015847,41.5442623 145.328415,44.1005464 145.021858,46.6240437 Z" id="Path"></path>
            <path d="M130.623497,23.1754098 C131.886885,26.6202186 132.133333,30.3928962 131.370492,33.9868852 C130.96776,34.1415301 130.561202,34.284153 130.16776,34.4672131 C127.788525,35.5737705 125.701093,37.2387978 124.045355,39.2584699 C124.083607,36.3688525 123.80929,33.4770492 123.237705,30.6338798 C125.327322,27.7863388 127.802186,25.2797814 130.623497,23.1754098 Z" id="Path"></path>
            <path d="M121.718579,40.6699454 C121.602732,40.4770492 121.508197,40.2754098 121.336066,40.1060109 C120.370492,39.1502732 118.810929,39.0382514 117.162842,39.8114754 C116.209836,40.2579235 115.357377,40.8677596 114.604918,41.5863388 C114.41694,40.5579235 114.085246,39.5551913 113.584153,38.6486339 C112.703825,37.0557377 111.377049,36.2224044 110.034426,36.4338798 C109.819672,36.4672131 109.647541,36.5677596 109.45847,36.642623 C112.149727,32.5224044 115.589617,28.8928962 119.654645,26.0508197 C121.279781,30.7590164 121.970492,35.7398907 121.718579,40.6699454 Z" id="Path"></path>
            <path d="M112.473224,17.2775956 C113.520219,20.6377049 114.048634,24.120765 114.064481,27.652459 C111.931148,29.6163934 110.00929,31.795082 108.34153,34.1557377 C108.189071,31.5486339 107.478689,28.9748634 106.204372,26.6808743 C105.993989,26.3021858 105.748634,25.947541 105.513661,25.5857923 C107.009836,22.2300546 109.42623,19.3224044 112.473224,17.2775956 Z" id="Path"></path>
            <path d="M104.214754,27.7863388 C105.788525,30.6196721 106.385246,33.9437158 105.978689,37.1459016 C105.971585,37.131694 105.967213,37.1169399 105.959563,37.1027322 C105.003825,35.2568306 103.254645,34.0945355 101.464481,34.1677596 C99.9595628,34.2213115 98.4918033,35.1147541 97.2180328,36.7535519 C96.9502732,37.0994536 96.6967213,37.4595628 96.4453552,37.820765 C96.1721311,38.210929 95.9076503,38.5896175 95.6284153,38.9355191 C95.3497268,38.589071 95.0836066,38.2098361 94.8092896,37.8185792 C94.5584699,37.4584699 94.3060109,37.1 94.0382514,36.7540984 C92.7666667,35.115847 91.2978142,34.2213115 89.7918033,34.168306 C88.0081967,34.0852459 86.2519126,35.257377 85.2967213,37.1032787 C85.289071,37.1174863 85.2852459,37.1327869 85.2775956,37.1469945 C84.8710383,33.9459016 85.468306,30.6213115 87.0415301,27.7874317 C88.2770492,25.5639344 90.0322404,23.6797814 91.8912568,21.684153 C93.1770492,20.304918 94.4961749,18.889071 95.6284153,17.3448087 C96.7606557,18.8896175 98.0797814,20.304918 99.3644809,21.684153 C101.22459,23.6786885 102.979235,25.5622951 104.214754,27.7863388 Z" id="Path"></path>
            <path d="M81.7972678,36.642623 C81.6076503,36.5672131 81.4355191,36.4666667 81.2202186,36.4333333 C79.873224,36.2218579 78.5519126,37.0557377 77.6704918,38.6491803 C77.1693989,39.5579235 76.8377049,40.5622951 76.6502732,41.5923497 C75.8934426,40.8693989 75.0338798,40.252459 74.0945355,39.8114754 C72.447541,39.0404372 70.8896175,39.1502732 69.9202186,40.104918 C69.7486339,40.2754098 69.6546448,40.4770492 69.5382514,40.6699454 C69.2863388,35.7382514 69.9759563,30.757377 71.6,26.0502732 C75.6661202,28.8928962 79.1065574,32.5224044 81.7972678,36.642623 Z" id="Path"></path>
            <path d="M60.1289617,36.5300546 C63.0688525,37.8983607 65.5065574,40.2387978 67.0595628,43.0699454 C67.0437158,43.0617486 67.0327869,43.0491803 67.0163934,43.0409836 C65.1595628,42.1131148 63.0557377,42.2163934 61.6540984,43.3087432 C60.468306,44.236612 59.8060109,45.8224044 59.7393443,47.8983607 C59.7251366,48.3349727 59.7327869,48.7743169 59.7404372,49.2131148 C59.7491803,49.6901639 59.7568306,50.1519126 59.7349727,50.5978142 C59.3071038,50.4808743 58.8715847,50.3311475 58.4224044,50.1765027 C58.0043716,50.0322404 57.5868852,49.8885246 57.1666667,49.7672131 C55.1726776,49.1863388 53.4612022,49.3273224 52.2098361,50.1693989 C50.7371585,51.1639344 49.9885246,53.1333333 50.2994536,55.1857923 C50.3016393,55.2021858 50.3071038,55.2169399 50.3103825,55.2333333 C48.0989071,52.8819672 46.6273224,49.8415301 46.2344262,46.6229508 C45.9273224,44.0978142 46.2398907,41.5420765 46.5710383,38.8360656 C46.8,36.963388 47.0344262,35.0431694 47.0431694,33.1284153 C48.8677596,33.7120219 50.7672131,34.0819672 52.6185792,34.4431694 C55.2956284,34.9655738 57.8229508,35.4579235 60.1289617,36.5300546 Z" id="Path"></path>
            <path d="M47.1945355,56.8262295 C46.9978142,56.8759563 46.8016393,56.942623 46.6098361,57.0420765 C45.4005464,57.6644809 44.8136612,59.1147541 45.0404372,60.9218579 C45.1688525,61.9502732 45.4907104,62.9584699 45.9437158,63.9010929 C44.9060109,63.7612022 43.847541,63.7666667 42.8289617,63.963388 C41.0415301,64.3076503 39.8437158,65.3136612 39.6251366,66.6546448 C39.5945355,66.842623 39.5868852,67.0262295 39.5939891,67.2060109 C36.5327869,63.3885246 34.163388,59.015847 32.7234973,54.2967213 C37.673224,54.2010929 42.6010929,55.0786885 47.1945355,56.8262295 Z" id="Path"></path>
            <path d="M29.6016393,69.5185792 C32.7857923,68.8978142 36.1306011,69.3568306 39.0497268,70.7327869 C39.0333333,70.7355191 39.0174863,70.7349727 39.0016393,70.7377049 C36.952459,71.0765027 35.3120219,72.3989071 34.8218579,74.104918 C34.4060109,75.5530055 34.8027322,77.226776 35.9699454,78.9431694 C36.215847,79.3054645 36.4803279,79.6579235 36.7453552,80.0092896 C37.0322404,80.3896175 37.3098361,80.7584699 37.5535519,81.1306011 C37.136612,81.2885246 36.6934426,81.4240437 36.236612,81.5628415 C35.8163934,81.6918033 35.3972678,81.820765 34.9863388,81.968306 C33.0338798,82.6704918 31.7289617,83.7918033 31.2147541,85.2065574 C30.6065574,86.8759563 31.1568306,88.9092896 32.6169399,90.3885246 C32.6251366,90.3967213 32.6349727,90.4010929 32.6431694,90.4092896 C29.4748634,89.8032787 26.5027322,88.2202186 24.2956284,85.8497268 C22.563388,83.9885246 21.3136612,81.7371585 19.9907104,79.3519126 C19.0748634,77.7038251 18.136612,76.0114754 17.0180328,74.4568306 C18.8377049,73.8568306 20.5912568,73.0398907 22.3010929,72.2442623 C24.7721311,71.0934426 27.1071038,70.0065574 29.6016393,69.5185792 Z" id="Path"></path>
            <path d="M31.1398907,93.5213115 C30.9918033,93.6918033 30.8300546,93.8431694 30.720765,94.0590164 C30.1092896,95.2737705 30.4874317,96.7907104 31.7311475,98.1185792 C32.4398907,98.8765027 33.2928962,99.5032787 34.2147541,100 C33.2923497,100.497268 32.4393443,101.124044 31.7311475,101.881421 C30.4885246,103.210383 30.110929,104.728415 30.720765,105.940984 C30.8295082,106.157377 30.9918033,106.308743 31.1398907,106.478689 C26.3715847,105.194536 21.8480874,102.998907 17.8743169,100 C21.8480874,97.0010929 26.3715847,94.8054645 31.1398907,93.5213115 Z" id="Path"></path>
            <path d="M24.295082,114.149727 C26.5054645,111.77377 29.4830601,110.180328 32.657377,109.579235 C32.6448087,109.591257 32.6289617,109.598361 32.6169399,109.611475 C31.1568306,111.09071 30.6065574,113.12459 31.2147541,114.792896 C31.7289617,116.20929 33.0338798,117.329508 34.9863388,118.031694 C35.3961749,118.179781 35.8163934,118.308743 36.2355191,118.437158 C36.6918033,118.576503 37.1355191,118.712022 37.552459,118.870492 C37.3092896,119.243169 37.0311475,119.611475 36.7442623,119.993443 C36.4797814,120.344809 36.2153005,120.695628 35.9699454,121.056831 C34.8032787,122.77377 34.4065574,124.445902 34.8218579,125.895082 C35.3120219,127.601093 36.9519126,128.923497 39.0016393,129.262295 C39.0174863,129.265027 39.0333333,129.264481 39.0491803,129.267213 C36.1322404,130.642623 32.7901639,131.101093 29.6016393,130.481967 C27.1071038,129.993443 24.7721311,128.907104 22.3005464,127.755738 C20.5901639,126.960109 18.836612,126.143169 17.0174863,125.543169 C18.136612,123.988525 19.0748634,122.296175 19.9901639,120.647541 C21.3136612,118.262295 22.5628415,116.010929 24.295082,114.149727 Z" id="Path"></path>
            <path d="M39.5939891,132.794536 C39.5863388,132.97377 39.5945355,133.157923 39.6251366,133.345355 C39.8437158,134.686885 41.0420765,135.692896 42.8289617,136.037158 C43.4202186,136.15082 44.0245902,136.20765 44.631694,136.20765 C45.0737705,136.20765 45.5120219,136.145355 45.9508197,136.085246 C45.4939891,137.03224 45.1688525,138.045355 45.0404372,139.079781 C44.8136612,140.884699 45.4005464,142.334973 46.610929,142.959563 C46.8027322,143.05847 46.9978142,143.12459 47.1939891,143.174863 C42.6016393,144.922404 37.6775956,145.799454 32.7234973,145.703825 C34.1639344,140.983607 36.5327869,136.610929 39.5939891,132.794536 Z" id="Path"></path>
            <path d="M46.2349727,153.375956 C46.6278689,150.157377 48.0994536,147.11694 50.310929,144.765574 C50.3081967,144.781967 50.3027322,144.797268 50.3,144.813115 C49.9885246,146.865574 50.7377049,148.834973 52.2114754,149.829508 C53.4595628,150.671038 55.1715847,150.809836 57.1655738,150.232787 C57.5868852,150.110383 58.0043716,149.96776 58.4224044,149.822951 C58.8715847,149.668306 59.3071038,149.518033 59.7349727,149.401639 C59.757377,149.846995 59.7491803,150.30929 59.7404372,150.786339 C59.7327869,151.225137 59.7251366,151.663934 59.7393443,152.101639 C59.8060109,154.176503 60.468306,155.762295 61.6551913,156.690164 C63.0546448,157.782514 65.1590164,157.886885 67.0163934,156.957923 C67.0327869,156.949727 67.0442623,156.936612 67.0606557,156.928415 C65.5076503,159.760109 63.0693989,162.100546 60.1289617,163.468852 C57.8229508,164.54153 55.2956284,165.03388 52.6196721,165.554645 C50.768306,165.915847 48.8688525,166.286339 47.0442623,166.869399 C47.0355191,164.954645 46.8010929,163.03388 46.5721311,161.161749 C46.2409836,158.456831 45.9284153,155.900546 46.2349727,153.375956 Z" id="Path"></path>
            <path d="M60.6333333,176.82459 C59.3710383,173.379781 59.1240437,169.606557 59.8863388,166.012568 C60.289071,165.85847 60.6956284,165.715301 61.089071,165.532787 C63.4677596,164.425683 65.5557377,162.760656 67.2120219,160.740437 C67.173224,163.630055 67.447541,166.522951 68.0185792,169.365574 C65.931694,172.211475 63.4568306,174.719126 60.6333333,176.82459 Z" id="Path"></path>
            <path d="M69.5387978,159.329508 C69.6546448,159.522951 69.7486339,159.724044 69.920765,159.894536 C70.4595628,160.429508 71.184153,160.699454 72.0054645,160.699454 C72.6557377,160.699454 73.3672131,160.530055 74.0939891,160.187978 C75.0344262,159.746995 75.8939891,159.129508 76.6508197,158.407104 C76.8382514,159.437158 77.1704918,160.442077 77.6710383,161.351366 C78.5513661,162.944809 79.8748634,163.778142 81.2218579,163.566667 C81.4360656,163.533333 81.6081967,163.433333 81.7972678,163.357923 C79.1065574,167.477596 75.6666667,171.107104 71.6010929,173.949727 C69.9770492,169.242077 69.2868852,164.261749 69.5387978,159.329508 Z" id="Path"></path>
            <path d="M78.7846995,182.722404 C77.736612,179.359563 77.2087432,175.875956 77.1934426,172.346448 C79.3262295,170.382514 81.2480874,168.204372 82.915847,165.844262 C83.068306,168.451366 83.7786885,171.025683 85.0530055,173.320219 C85.263388,173.698907 85.5087432,174.053552 85.7437158,174.415301 C84.2486339,177.769399 81.8311475,180.677049 78.7846995,182.722404 Z" id="Path"></path>
            <path d="M87.0420765,172.214754 C85.4688525,169.380328 84.8715847,166.055738 85.2781421,162.854098 C85.2857923,162.86776 85.2896175,162.88306 85.2972678,162.897268 C86.2530055,164.742077 88.0180328,165.946995 89.7923497,165.83224 C91.2983607,165.778689 92.7672131,164.884153 94.0387978,163.246448 C94.3065574,162.900546 94.5590164,162.54153 94.8098361,162.181967 C95.084153,161.79071 95.3502732,161.412022 95.6289617,161.065027 C95.9081967,161.410383 96.1726776,161.789617 96.4459016,162.179781 C96.6967213,162.540437 96.9502732,162.900546 97.2185792,163.246448 C98.4923497,164.885792 99.9601093,165.779235 101.465027,165.83224 C101.510383,165.834426 101.556284,165.835519 101.601639,165.835519 C103.331148,165.834426 105.028962,164.695082 105.960109,162.897268 C105.96776,162.88306 105.972131,162.867213 105.979781,162.853005 C106.387432,166.055738 105.790164,169.380874 104.215301,172.214754 C102.980874,174.437158 101.225683,176.321311 99.3677596,178.314754 C98.0819672,179.694536 96.7617486,181.112022 95.6295082,182.656284 C94.4961749,181.112022 93.1770492,179.694536 91.8896175,178.314754 C90.0311475,176.321311 88.2765027,174.436612 87.0420765,172.214754 Z" id="Path"></path>
            <path d="M109.459563,163.356831 C109.64918,163.432787 109.821311,163.532787 110.036612,163.566667 C111.378142,163.779781 112.706011,162.943716 113.585246,161.351366 C114.086339,160.444809 114.418033,159.442077 114.606011,158.413661 C115.357923,159.131694 116.210929,159.74153 117.162842,160.187978 C117.891803,160.528962 118.602186,160.699454 119.251913,160.699454 C120.073224,160.699454 120.797814,160.429508 121.336612,159.894536 C121.508197,159.724044 121.602732,159.522951 121.719126,159.330055 C121.971038,164.259563 121.280328,169.240984 119.656284,173.949727 C115.59071,171.107104 112.150273,167.477596 109.459563,163.356831 Z" id="Path"></path>
            <path d="M131.127869,163.469399 C128.187432,162.101093 125.74918,159.760656 124.196175,156.928962 C124.212022,156.937158 124.224044,156.950273 124.239891,156.95847 C126.096721,157.888525 128.202732,157.787432 129.603279,156.689617 C130.789071,155.762842 131.450273,154.17541 131.51694,152.101093 C131.531148,151.665574 131.523497,151.22623 131.515847,150.787978 C131.508197,150.309836 131.499454,149.847541 131.521311,149.403279 C131.950273,149.518579 132.386885,149.669945 132.837158,149.82459 C133.253005,149.968306 133.669399,150.110929 134.089617,150.23224 C136.084153,150.810383 137.798361,150.671585 139.045902,149.830055 C140.518579,148.836066 141.267213,146.86612 140.957377,144.813661 C140.955191,144.797814 140.949727,144.782514 140.946995,144.766667 C143.157923,147.118579 144.628962,150.159016 145.021311,153.376503 C145.328415,155.9 145.015847,158.456284 144.684699,161.162295 C144.455738,163.03388 144.221311,164.955191 144.212568,166.871038 C142.389071,166.287978 140.489617,165.917486 138.638251,165.556284 C135.962295,165.034973 133.43388,164.542077 131.127869,163.469399 Z" id="Path"></path>
            <path d="M144.06612,143.174863 C144.261202,143.12459 144.455738,143.057377 144.646995,142.95847 C145.856284,142.334973 146.443169,140.884699 146.216393,139.080874 C146.088525,138.045902 145.763388,137.032787 145.306557,136.085246 C145.745355,136.144809 146.184153,136.20765 146.62623,136.20765 C147.232787,136.20765 147.837705,136.15082 148.428962,136.036612 C150.215301,135.693443 151.412568,134.686339 151.631694,133.345902 C151.662295,133.15847 151.669945,132.974317 151.662842,132.795082 C154.724044,136.611475 157.093443,140.984153 158.533333,145.703825 C153.571038,145.793443 148.654098,144.920219 144.06612,143.174863 Z" id="Path"></path>
            <path d="M161.654645,130.481421 C158.469945,131.099454 155.125137,130.642077 152.207104,129.266667 C152.223497,129.263934 152.238798,129.264481 152.254645,129.261749 C154.304918,128.921858 155.946448,127.600546 156.434426,125.894536 C156.849727,124.446995 156.453005,122.77377 155.287432,121.056284 C155.04153,120.696175 154.778142,120.344809 154.513661,119.995082 C154.22623,119.613661 153.946995,119.243716 153.703825,118.869945 C154.120765,118.711475 154.563934,118.575956 155.020765,118.435519 C155.440984,118.308197 155.859563,118.178689 156.269945,118.03224 C158.222404,117.328962 159.527322,116.209836 160.04153,114.79235 C160.649727,113.12459 160.099454,111.090164 158.640437,109.610929 C158.628962,109.599454 158.615301,109.593443 158.604372,109.581967 C161.773224,110.185246 164.752459,111.776503 166.960656,114.14918 C168.693443,116.00929 169.942623,118.260656 171.265027,120.644809 C172.180874,122.294536 173.120219,123.987978 174.238798,125.542623 C172.420765,126.142623 170.665574,126.959563 168.956831,127.755191 C166.485792,128.906557 164.15082,129.993443 161.654645,130.481421 Z" id="Path"></path>
            <path d="M160.115847,106.478689 C160.263934,106.308197 160.425683,106.156831 160.534973,105.940984 C161.147541,104.728415 160.770492,103.210383 159.526776,101.880328 C158.808197,101.112568 157.964481,100.490164 157.048087,99.9972678 C157.967213,99.5010929 158.818579,98.8754098 159.526776,98.1196721 C160.770492,96.7901639 161.148634,95.2726776 160.536066,94.0590164 C160.426776,93.842623 160.264481,93.6912568 160.116393,93.5213115 C164.885792,94.8054645 169.408743,97.0016393 173.38306,100 C169.408743,102.998907 164.884699,105.195082 160.115847,106.478689 Z" id="Path"></path>
            <path d="M162.164481,91.7398907 C164.601093,90.789071 166.837705,89.3245902 168.628415,87.4021858 C168.923497,87.0846995 169.184699,86.7420765 169.455738,86.4071038 C173.10929,86.7923497 176.620765,88.1918033 179.507104,90.4568306 C176.633333,92.4923497 173.483607,94.0710383 170.131148,95.1765027 C167.6,93.7530055 164.929508,92.5967213 162.164481,91.7398907 Z" id="Path"></path>
            <path d="M181.697268,86.3032787 C180.988525,86.3726776 180.244262,86.2256831 179.5,86.0180328 C180.403825,84.8530055 181.203279,83.6153005 181.920219,82.3278689 C183.16612,83.3759563 183.720219,84.2338798 183.563388,84.9754098 C183.404372,85.7284153 182.48306,86.2218579 181.697268,86.3032787 Z" id="Path"></path>
            <path d="M187.731148,78.9349727 C187.771038,79.0797814 187.595628,79.3852459 187.318579,79.547541 C186.881967,79.8032787 186.253005,79.8546448 185.648087,79.884153 C184.80929,79.9262295 183.977049,79.8978142 183.145902,79.8754098 C183.197814,79.757377 183.261202,79.6464481 183.312022,79.5273224 C183.719126,78.5693989 184.080874,77.5803279 184.442077,76.5901639 C184.485792,76.4715847 184.531148,76.3628415 184.574317,76.2453552 L187.081421,78.257377 C187.304372,78.4349727 187.677596,78.7349727 187.731148,78.9349727 Z" id="Path"></path>
            <path d="M190.619126,69.136612 C189.640984,71.1775956 187.797268,72.7808743 185.680874,73.4699454 C186.012568,72.7163934 186.355191,71.9775956 186.775956,71.2978142 C186.952459,71.0131148 186.994536,70.6655738 186.891257,70.347541 C186.787978,70.0284153 186.54918,69.7715847 186.238798,69.6453552 C185.513115,69.3491803 184.811475,68.9770492 184.113661,68.5715847 C186.226776,67.8939891 188.634426,68.0628415 190.619126,69.136612 Z" id="Path"></path>
            <path d="M180.278689,63.3628415 C180.789071,63.0306011 181.328415,62.7027322 181.831148,62.6530055 C182.159016,62.6120219 182.469945,62.7672131 182.523497,62.9065574 C182.596721,63.0989071 182.471038,63.5612022 182.396721,63.8355191 L181.549727,66.9420765 C181.447541,66.873224 181.346995,66.8076503 181.244262,66.7382514 C180.368306,66.1480874 179.492896,65.5601093 178.600546,65.0245902 C178.489617,64.9579235 178.372678,64.9054645 178.260656,64.8404372 C178.92459,64.3295082 179.587978,63.8131148 180.278689,63.3628415 Z" id="Path"></path>
            <path d="M175.602186,60.4688525 C176.165574,60.9775956 176.220765,61.9967213 175.827322,63.5765027 C174.490164,62.9568306 173.116393,62.4251366 171.699454,62.0136612 C172.179235,61.4060109 172.694536,60.8486339 173.311475,60.4912568 C173.991803,60.0934426 175.027322,59.9502732 175.602186,60.4688525 Z" id="Path"></path>
            <path d="M172.545902,52.0934426 C172.607104,52.2098361 172.430601,52.6868852 171.855738,53.2169399 C171.052459,53.9606557 170.130601,54.5693989 169.146995,55.0540984 C169.569945,53.9715847 169.886885,52.7934426 170.105464,51.5333333 C170.557923,51.6770492 171.01694,51.7469945 171.443716,51.8021858 C171.873224,51.8562842 172.461202,51.9322404 172.545902,52.0934426 Z" id="Path"></path>
            <path d="M172.986885,43.7956284 C172.60765,45.5174863 171.692896,47.1010929 170.434973,48.2819672 C170.460656,47.6874317 170.487978,47.0989071 170.48306,46.4338798 C170.479781,45.9459016 170.16612,45.515847 169.703825,45.3617486 C169.071585,45.1513661 168.503279,44.995082 167.930055,44.8360656 C169.440984,44.0032787 171.228962,43.620765 172.986885,43.7956284 Z" id="Path"></path>
            <path d="M163.677596,41.9601093 C164.360109,41.5765027 164.866667,41.5557377 164.960109,41.652459 C165.086339,41.7825137 164.980874,42.3415301 164.896721,42.7907104 C164.816393,43.2131148 164.740984,43.6715847 164.738251,44.1459016 C163.472678,43.9639344 162.254645,43.9010929 161.093443,43.9688525 C161.857923,43.1836066 162.721311,42.4945355 163.677596,41.9601093 Z" id="Path"></path>
            <path d="M157.938251,36.1568306 C158.253005,36.8612022 157.796175,37.8016393 157.208197,38.3295082 C156.677596,38.8054645 155.988525,39.1229508 155.262295,39.3907104 C155.308743,37.9169399 155.227869,36.4459016 155.051366,34.9830601 C156.675956,35.0967213 157.629508,35.4639344 157.938251,36.1568306 Z" id="Path"></path>
            <path d="M156.834973,28.6540984 C157.119672,28.6672131 157.597268,28.6907104 157.759563,28.820765 C157.876503,28.9153005 157.914208,29.2650273 157.785246,29.5590164 C157.581967,30.0224044 157.103825,30.4338798 156.630601,30.8147541 C155.985792,31.3338798 155.29235,31.804918 154.602732,32.2775956 C154.57541,32.1513661 154.561202,32.0234973 154.532787,31.8972678 C154.299454,30.8825137 154.00929,29.868306 153.719126,28.852459 C153.685246,28.7338798 153.653552,28.6185792 153.620219,28.5005464 L156.834973,28.6540984 Z" id="Path"></path>
            <path d="M154.336066,19.1967213 C154.742623,21.415847 154.160656,23.757377 152.862842,25.5562842 C152.692896,24.7677596 152.555738,23.9857923 152.497814,23.2038251 C152.47377,22.8693989 152.303825,22.5639344 152.03224,22.3672131 C151.760109,22.1693989 151.417486,22.1016393 151.09235,22.1814208 C150.331148,22.368306 149.545355,22.479235 148.743716,22.5612022 C150.053552,20.7715847 152.099454,19.4945355 154.336066,19.1967213 Z" id="Path"></path>
            <path d="M142.577596,20.6027322 C142.793443,20.0355191 143.035519,19.4546448 143.414754,19.1180328 C143.654645,18.9032787 143.995628,18.8327869 144.123497,18.9131148 C144.297814,19.0278689 144.466667,19.4743169 144.56776,19.742623 L145.70765,22.7519126 C145.584699,22.7562842 145.465027,22.7622951 145.34153,22.7666667 C144.286885,22.8043716 143.23224,22.8431694 142.195628,22.9344262 C142.066667,22.9459016 141.940984,22.9715847 141.812568,22.9846995 C142.048087,22.1857923 142.280328,21.3836066 142.577596,20.6027322 Z" id="Path"></path>
            <path d="M135.251913,22.3754098 C135.571038,21.6530055 136.345355,20.9382514 137.09235,21.0114754 C137.845902,21.0912568 138.490164,21.884153 139.101093,23.3928962 C137.655191,23.6775956 136.230601,24.0551913 134.843169,24.5546448 C134.87377,23.7825137 134.962842,23.0289617 135.251913,22.3754098 Z" id="Path"></path>
            <path d="M128.63388,16.4431694 C129.014208,16.2355191 129.537158,15.9464481 129.695082,16.0306011 C129.815301,16.0896175 129.951913,16.5797814 129.800546,17.3464481 C129.586885,18.420765 129.197268,19.4551913 128.686885,20.4251366 C128.39235,19.3005464 127.956831,18.1606557 127.39235,17.0131148 C127.844262,16.863388 128.256831,16.6497268 128.63388,16.4431694 Z" id="Path"></path>
            <path d="M125.177049,9.05956284 C125.882514,10.6754098 126.073224,12.495082 125.74918,14.1896175 C125.420765,13.6939891 125.096175,13.2016393 124.701093,12.6661202 C124.412022,12.2748634 123.908743,12.1092896 123.442077,12.2568306 C122.808197,12.4579235 122.256831,12.6650273 121.699454,12.8726776 C122.43388,11.3120219 123.657377,9.95191257 125.177049,9.05956284 Z" id="Path"></path>
            <path d="M116.56612,13.0464481 C116.892896,12.3387978 117.329508,12.0284153 117.421858,12.0431694 C117.602186,12.0743169 117.845355,12.589071 118.040984,13.0010929 C118.224044,13.3896175 118.451366,13.7939891 118.727322,14.1797814 C117.588525,14.779235 116.560109,15.4491803 115.656284,16.1907104 C115.813115,15.1060109 116.107104,14.0404372 116.56612,13.0464481 Z" id="Path"></path>
            <path d="M108.511475,11.7245902 C109.180874,12.1103825 109.365027,13.1382514 109.199454,13.9103825 C109.04918,14.6092896 108.678142,15.2710383 108.248634,15.9136612 C107.419672,14.6934426 106.489071,13.5508197 105.486339,12.4710383 C106.86612,11.6098361 107.84918,11.3464481 108.511475,11.7245902 Z" id="Path"></path>
            <path d="M103.20929,6.30327869 C103.443716,6.14972678 103.83388,5.89398907 104.042623,5.89398907 C104.045902,5.89398907 104.050273,5.89398907 104.053552,5.89508197 C104.204918,5.90273224 104.44153,6.16393443 104.510383,6.47540984 C104.618033,6.96994536 104.472678,7.58469945 104.314754,8.1704918 C104.097268,8.9726776 103.812568,9.76065574 103.532787,10.5480874 C103.436612,10.4617486 103.350273,10.3666667 103.252459,10.2819672 C102.46776,9.59781421 101.636612,8.94754098 100.805464,8.29617486 C100.707104,8.21912568 100.619126,8.1431694 100.521311,8.06666667 L103.20929,6.30327869 Z" id="Path"></path>
            <path d="M95.6289617,0.120765027 C97.268306,1.68306011 98.2229508,3.93169399 98.2240437,6.15628415 C97.6098361,5.60874317 97.0142077,5.05409836 96.4978142,4.44371585 C96.0644809,3.93224044 95.1928962,3.93224044 94.7595628,4.44371585 C94.2431694,5.05409836 93.6469945,5.60874317 93.0322404,6.1568306 C93.0338798,3.93114754 93.9896175,1.68251366 95.6289617,0.120765027 Z" id="Path"></path>
            <path d="M86.747541,6.47540984 C86.8163934,6.16338798 87.0519126,5.90327869 87.2010929,5.89508197 C87.3901639,5.90710383 87.8087432,6.14590164 88.0480874,6.30437158 L90.7355191,8.06666667 C90.6371585,8.1442623 90.5491803,8.22021858 90.4491803,8.29836066 C89.6191257,8.94863388 88.789071,9.59836066 88.0043716,10.2819672 C87.9065574,10.3666667 87.8202186,10.4622951 87.7240437,10.5480874 C87.4448087,9.76284153 87.1612022,8.97704918 86.942623,8.1704918 C86.7846995,7.58469945 86.6382514,6.97103825 86.747541,6.47540984 Z" id="Path"></path>
            <path d="M82.7453552,11.7245902 C83.4054645,11.352459 84.3901639,11.610929 85.7704918,12.4715847 C84.768306,13.5519126 83.8382514,14.6934426 83.0092896,15.9136612 C82.579235,15.2693989 82.2076503,14.6071038 82.0590164,13.9098361 C81.8928962,13.1377049 82.0775956,12.1098361 82.7453552,11.7245902 Z" id="Path"></path>
            <path d="M73.215847,13.0010929 C73.4114754,12.589071 73.6546448,12.0743169 73.8349727,12.0431694 C73.979235,12.020765 74.3639344,12.3377049 74.6907104,13.0453552 C75.1502732,14.0398907 75.4437158,15.104918 75.6010929,16.1901639 C74.6972678,15.4486339 73.668306,14.7786885 72.5300546,14.1797814 C72.804918,13.7945355 73.0322404,13.3896175 73.215847,13.0010929 Z" id="Path"></path>
            <path d="M66.0797814,9.05956284 C67.6,9.95191257 68.8240437,11.3125683 69.5579235,12.873224 C69.0005464,12.6655738 68.4491803,12.4579235 67.8147541,12.257377 C67.3480874,12.1087432 66.8448087,12.2748634 66.5557377,12.6666667 C66.1606557,13.2021858 65.836612,13.6939891 65.5076503,14.1901639 C65.1836066,12.4945355 65.3748634,10.6743169 66.0797814,9.05956284 Z" id="Path"></path>
            <path d="M61.5601093,16.031694 C61.7191257,15.9535519 62.2202186,16.2229508 62.6224044,16.442623 C62.9994536,16.6491803 63.4125683,16.8628415 63.863388,17.0125683 C63.2989071,18.1595628 62.863388,19.2994536 62.5693989,20.4240437 C62.0579235,19.4540984 61.6699454,18.4202186 61.4568306,17.3459016 C61.3054645,16.5797814 61.4420765,16.0896175 61.5601093,16.031694 Z" id="Path"></path>
            <path d="M54.1644809,21.0114754 C54.9398907,20.9273224 55.6846995,21.6540984 56.004918,22.3765027 C56.2939891,23.0295082 56.3830601,23.7825137 56.4142077,24.5551913 C55.026776,24.0551913 53.6021858,23.6781421 52.1562842,23.3934426 C52.7666667,21.884153 53.410929,21.0912568 54.1644809,21.0114754 Z" id="Path"></path>
            <path d="M46.6874317,19.7437158 C46.7961749,19.4584699 46.9601093,19.026776 47.131694,18.9147541 C47.2584699,18.8300546 47.6027322,18.9054645 47.8415301,19.1180328 C48.220765,19.4535519 48.4628415,20.0360656 48.6786885,20.6038251 C48.9748634,21.3775956 49.2071038,22.1830601 49.4437158,22.9846995 C49.315847,22.9715847 49.1896175,22.9453552 49.0612022,22.9344262 C48.0245902,22.8431694 46.9693989,22.8043716 45.9147541,22.7666667 C45.7907104,22.7622951 45.6715847,22.7562842 45.5480874,22.7519126 L46.6874317,19.7437158 Z" id="Path"></path>
            <path d="M36.920765,19.1967213 C39.157377,19.4939891 41.2043716,20.7715847 42.5136612,22.5617486 C41.7120219,22.4797814 40.9256831,22.368306 40.1644809,22.1819672 C39.8377049,22.1065574 39.4967213,22.1715847 39.2245902,22.3677596 C38.9530055,22.5644809 38.7830601,22.8699454 38.7590164,23.2043716 C38.7010929,23.9863388 38.5639344,24.768306 38.3939891,25.5568306 C37.0967213,23.757377 36.5142077,21.415847 36.920765,19.1967213 Z" id="Path"></path>
            <path d="M33.4715847,29.5579235 C33.342623,29.2655738 33.3814208,28.9153005 33.4983607,28.820765 C33.6595628,28.6907104 34.1371585,28.6672131 34.4218579,28.6540984 L37.6371585,28.5 C37.6038251,28.6180328 37.5721311,28.7333333 37.5382514,28.8519126 C37.2480874,29.8677596 36.9579235,30.8819672 36.7245902,31.8967213 C36.6956284,32.0229508 36.6819672,32.1508197 36.6546448,32.2770492 C35.9666667,31.804918 35.2743169,31.3355191 34.626776,30.8142077 C34.1540984,30.4333333 33.6748634,30.020765 33.4715847,29.5579235 Z" id="Path"></path>
            <path d="M33.3196721,36.1568306 C33.6284153,35.4639344 34.5808743,35.0967213 36.204918,34.9830601 C36.0289617,36.4464481 35.947541,37.9169399 35.9939891,39.3907104 C35.2677596,39.1224044 34.5786885,38.804918 34.0480874,38.3295082 C33.4601093,37.8016393 33.004918,36.8612022 33.3196721,36.1568306 Z" id="Path"></path>
            <path d="M26.2967213,41.652459 C26.3923497,41.5612022 26.8994536,41.5803279 27.579235,41.9601093 C28.5355191,42.4945355 29.3989071,43.1836066 30.163388,43.9693989 C29.0016393,43.9010929 27.7830601,43.963388 26.5185792,44.1459016 C26.515847,43.6710383 26.4404372,43.2125683 26.3601093,42.7907104 C26.2759563,42.3409836 26.1704918,41.7819672 26.2967213,41.652459 Z" id="Path"></path>
            <path d="M18.2699454,43.7956284 C20.020765,43.6251366 21.8125683,44.004918 23.3251366,44.8360656 C22.752459,44.9956284 22.1852459,45.1513661 21.5535519,45.3612022 C21.0912568,45.515847 20.779235,45.9459016 20.7743169,46.4322404 C20.7688525,47.089071 20.7961749,47.684153 20.8224044,48.2825137 C19.5644809,47.1027322 18.6491803,45.5180328 18.2699454,43.7956284 Z" id="Path"></path>
            <path d="M19.8125683,51.8021858 C20.2393443,51.7469945 20.6989071,51.6770492 21.1508197,51.5333333 C21.3688525,52.7934426 21.6863388,53.9710383 22.1092896,55.0535519 C21.1262295,54.5688525 20.2043716,53.9606557 19.4,53.2169399 C18.826776,52.6868852 18.6497268,52.2098361 18.710929,52.0934426 C18.7961749,51.9322404 19.3601093,51.8595628 19.8125683,51.8021858 Z" id="Path"></path>
            <path d="M15.6546448,60.4688525 C16.226776,59.952459 17.2612022,60.0956284 17.9459016,60.4912568 C18.5622951,60.8486339 19.0770492,61.4060109 19.5568306,62.0136612 C18.1398907,62.4251366 16.7661202,62.9568306 15.4289617,63.5765027 C15.0360656,61.9967213 15.0918033,60.9775956 15.6546448,60.4688525 Z" id="Path"></path>
            <path d="M9.42677596,62.6530055 C9.93005464,62.7027322 10.4693989,63.0306011 10.9770492,63.3628415 C11.668306,63.8131148 12.331694,64.3300546 12.9956284,64.8398907 C12.884153,64.904918 12.7672131,64.9579235 12.6557377,65.0240437 C11.763388,65.5595628 10.8879781,66.1486339 10.010929,66.7377049 C9.90819672,66.8065574 9.80819672,66.8726776 9.70601093,66.9409836 L8.86065574,63.8349727 C8.7852459,63.5595628 8.65956284,63.1005464 8.73387978,62.9043716 C8.78797814,62.7639344 9.10491803,62.6153005 9.42677596,62.6530055 Z" id="Path"></path>
            <path d="M0.637704918,69.136612 C2.62568306,68.0612022 5.03114754,67.8934426 7.14262295,68.5715847 C6.44535519,68.9770492 5.7442623,69.3491803 5.01857923,69.6453552 C4.70874317,69.7715847 4.46994536,70.0284153 4.36612022,70.347541 C4.26284153,70.6655738 4.30491803,71.0131148 4.48142077,71.2978142 C4.90218579,71.9775956 5.24535519,72.715847 5.57650273,73.4699454 C3.46010929,72.7808743 1.61584699,71.1775956 0.637704918,69.136612 Z" id="Path"></path>
            <path d="M5.60983607,79.884153 C5.00437158,79.8540984 4.37486339,79.8032787 3.93825137,79.547541 C3.66120219,79.3852459 3.48579235,79.0797814 3.52459016,78.936612 C3.57923497,78.7355191 3.95245902,78.4360656 4.17595628,78.2562842 L6.68196721,76.2453552 C6.72459016,76.3612022 6.76885246,76.4672131 6.81147541,76.5836066 C7.17377049,77.5759563 7.53715847,78.568306 7.94535519,79.5273224 C7.99562842,79.6459016 8.05901639,79.757377 8.11147541,79.8754098 C7.27978142,79.8972678 6.44644809,79.9251366 5.60983607,79.884153 Z" id="Path"></path>
            <path d="M7.69344262,84.9737705 C7.53661202,84.2322404 8.09071038,83.3754098 9.33770492,82.3284153 C10.0551913,83.615847 10.8540984,84.8540984 11.7584699,86.0191257 C11.0125683,86.2300546 10.2672131,86.3797814 9.56065574,86.3032787 C8.77486339,86.2218579 7.85245902,85.7284153 7.69344262,84.9737705 Z" id="Path"></path>
            <path d="M6.46065574,93.0431694 C7.54808743,92.9131148 8.65136612,92.963388 9.73169399,93.1497268 C8.74754098,93.7803279 7.79344262,94.5508197 6.87103825,95.4486339 C6.59016393,95.0672131 6.27540984,94.7262295 5.96229508,94.4311475 C5.62896175,94.1174863 5.21584699,93.7273224 5.24098361,93.5464481 C5.26174863,93.4153005 5.68415301,93.1355191 6.46065574,93.0431694 Z" id="Path"></path>
            <path d="M0.0087431694,100 C1.32896175,98.8289617 2.9989071,98.0781421 4.71420765,97.8661202 C4.34043716,98.3360656 3.96721311,98.8032787 3.58469945,99.3387978 C3.3010929,99.7344262 3.3010929,100.265574 3.58469945,100.661202 C3.96557377,101.194536 4.33661202,101.659016 4.70874317,102.127869 C2.99453552,101.910383 1.3273224,101.169945 0.0087431694,100 Z" id="Path"></path>
            <path d="M5.24153005,106.452459 C5.21639344,106.272678 5.64754098,105.867213 5.96284153,105.569399 C6.27540984,105.27541 6.58961749,104.93388 6.87103825,104.552459 C7.79289617,105.449727 8.74699454,106.220219 9.73114754,106.85082 C8.64972678,107.036066 7.54590164,107.085792 6.46229508,106.95847 C5.6852459,106.865574 5.26065574,106.584699 5.24153005,106.452459 Z" id="Path"></path>
            <path d="M9.56065574,113.697814 C10.2666667,113.615301 11.0125683,113.766667 11.7590164,113.979781 C10.8546448,115.145355 10.0546448,116.383607 9.33715847,117.672678 C8.09016393,116.62623 7.53551913,115.769399 7.69344262,115.02623 C7.85355191,114.271585 8.77377049,113.778142 9.56065574,113.697814 Z" id="Path"></path>
            <path d="M3.52568306,121.065027 C3.48579235,120.920765 3.66120219,120.615301 3.93715847,120.454098 C4.37377049,120.198361 5.00273224,120.146995 5.60983607,120.117486 C6.43825137,120.074317 7.27650273,120.102732 8.11202186,120.125683 C8.06010929,120.243716 7.99672131,120.354645 7.94590164,120.473224 C7.53770492,121.432787 7.17540984,122.423497 6.81311475,123.415301 C6.7704918,123.532787 6.72568306,123.639344 6.68251366,123.755738 L4.17595628,121.743716 C3.95245902,121.563934 3.57923497,121.265027 3.52568306,121.065027 Z" id="Path"></path>
            <path d="M0.637704918,130.864481 C1.61639344,128.822404 3.46065574,127.218579 5.57759563,126.529508 C5.24644809,127.283607 4.90327869,128.021858 4.48196721,128.702186 C4.30546448,128.986885 4.26338798,129.33388 4.36666667,129.651913 C4.46994536,129.971038 4.70874317,130.227869 5.01803279,130.354098 C5.74371585,130.65082 6.44535519,131.023497 7.1431694,131.428962 C5.03114754,132.108197 2.62295082,131.938251 0.637704918,130.864481 Z" id="Path"></path>
            <path d="M10.9770492,136.638251 C10.4704918,136.968852 9.93224044,137.297268 9.42677596,137.347541 C9.10546448,137.376503 8.78797814,137.234973 8.73333333,137.093989 C8.66010929,136.899454 8.78579235,136.440437 8.86120219,136.163934 L9.70655738,133.05847 C9.80874317,133.127322 9.90819672,133.19235 10.0114754,133.261749 C10.8879781,133.85082 11.7639344,134.439891 12.6562842,134.97541 C12.7677596,135.042077 12.8846995,135.095082 12.9967213,135.160109 C12.3344262,135.668852 11.673224,136.183607 10.9770492,136.638251 Z" id="Path"></path>
            <path d="M15.6546448,139.53224 C15.0912568,139.023497 15.0360656,138.003825 15.4295082,136.423497 C16.7666667,137.043716 18.1409836,137.574863 19.557377,137.986339 C19.0775956,138.593443 18.5622951,139.151366 17.9453552,139.508743 C17.2606557,139.906557 16.2256831,140.046448 15.6546448,139.53224 Z" id="Path"></path>
            <path d="M18.710929,147.907104 C18.6497268,147.790164 18.8262295,147.313661 19.4010929,146.78306 C20.204918,146.038798 21.126776,145.430055 22.1103825,144.946448 C21.6868852,146.028962 21.3693989,147.207104 21.1513661,148.466667 C20.6989071,148.322951 20.2404372,148.253005 19.8142077,148.198907 C19.3601093,148.14153 18.7961749,148.069399 18.710929,147.907104 Z" id="Path"></path>
            <path d="M18.2699454,156.204918 C18.6497268,154.48306 19.5650273,152.897268 20.8229508,151.716393 C20.7967213,152.315301 20.7693989,152.910383 20.7748634,153.566667 C20.779235,154.053552 21.0918033,154.483607 21.5530055,154.637158 C22.1759563,154.844809 22.7491803,155.002732 23.326776,155.162842 C21.8125683,155.995628 20.020765,156.37541 18.2699454,156.204918 Z" id="Path"></path>
            <path d="M27.579235,158.039891 C26.8967213,158.423497 26.3901639,158.445355 26.2967213,158.347541 C26.1704918,158.217486 26.2759563,157.65847 26.3601093,157.20929 C26.4404372,156.784699 26.5169399,156.322951 26.5185792,155.844809 C27.4382514,155.976503 28.3420765,156.068306 29.2071038,156.068306 C29.5453552,156.068306 29.8628415,156.021858 30.1923497,156.001639 C29.4213115,156.799454 28.5480874,157.499454 27.579235,158.039891 Z" id="Path"></path>
            <path d="M33.3196721,163.844262 C33.0060109,163.139891 33.4606557,162.199454 34.0486339,161.671585 C34.5797814,161.195628 35.2688525,160.877596 35.9945355,160.609836 C35.9480874,162.083607 36.0289617,163.554645 36.2054645,165.018033 C34.5808743,164.903279 33.6284153,164.536066 33.3196721,163.844262 Z" id="Path"></path>
            <path d="M34.4218579,171.345902 C34.1371585,171.332787 33.6595628,171.309836 33.4983607,171.179235 C33.3819672,171.084699 33.342623,170.734973 33.4715847,170.442077 C33.6748634,169.978689 34.1540984,169.56612 34.6251366,169.185246 C35.2754098,168.661749 35.9672131,168.193989 36.6540984,167.722951 C36.6814208,167.848634 36.6956284,167.976503 36.7240437,168.102732 C36.957377,169.11694 37.247541,170.131694 37.5377049,171.147541 C37.5715847,171.266667 37.6032787,171.381967 37.6371585,171.500546 L34.4218579,171.345902 Z" id="Path"></path>
            <path d="M36.920765,180.804372 C36.5131148,178.584153 37.0961749,176.242077 38.3939891,174.443716 C38.5639344,175.231694 38.7016393,176.014208 38.7590164,176.795628 C38.7830601,177.130055 38.9530055,177.436066 39.2245902,177.63224 C39.4213115,177.775956 39.6557377,177.849727 39.8934426,177.849727 C39.9836066,177.849727 40.0748634,177.838251 40.1644809,177.817486 C40.9256831,177.630601 41.7114754,177.519672 42.5136612,177.437705 C41.204918,179.227869 39.1579235,180.505464 36.920765,180.804372 Z" id="Path"></path>
            <path d="M48.679235,179.397268 C48.463388,179.963934 48.2213115,180.546995 47.8409836,180.883607 C47.6010929,181.095628 47.2590164,181.167213 47.1322404,181.085792 C46.9612022,180.973224 46.7901639,180.52459 46.6885246,180.257377 L45.5486339,177.248087 C45.6715847,177.243169 45.7912568,177.237705 45.9147541,177.23388 C46.9693989,177.196175 48.0240437,177.156831 49.0612022,177.065574 C49.1901639,177.054098 49.315847,177.028415 49.4437158,177.014754 C49.2071038,177.81694 48.9754098,178.622404 48.679235,179.397268 Z" id="Path"></path>
            <path d="M56.004918,177.625137 C55.6852459,178.346995 54.9437158,179.051366 54.1644809,178.989617 C53.4120219,178.90929 52.7672131,178.116393 52.1557377,176.607104 C53.6021858,176.322404 55.026776,175.944809 56.4136612,175.445355 C56.3830601,176.218033 56.2939891,176.971585 56.004918,177.625137 Z" id="Path"></path>
            <path d="M62.6240437,183.556831 C62.2251366,183.77541 61.7306011,184.051366 61.5606557,183.969399 C61.4415301,183.910383 61.3060109,183.420219 61.457377,182.653552 C61.6699454,181.579781 62.0590164,180.545902 62.5699454,179.57541 C62.8639344,180.701093 63.3,181.840437 63.8644809,182.986885 C63.4131148,183.137158 63.0010929,183.350273 62.6240437,183.556831 Z" id="Path"></path>
            <path d="M66.0797814,190.940984 C65.3743169,189.325137 65.1836066,187.504918 65.5076503,185.809836 C65.8377049,186.308743 66.1661202,186.806011 66.5551913,187.334426 C66.7737705,187.631148 67.1163934,187.796721 67.4710383,187.796721 C67.5852459,187.796721 67.7010929,187.779235 67.8142077,187.743169 C68.4491803,187.542623 69.0005464,187.334973 69.5579235,187.126776 C68.8251366,188.688525 67.6005464,190.048634 66.0797814,190.940984 Z" id="Path"></path>
            <path d="M74.6907104,186.953005 C74.3628415,187.660109 73.9617486,187.956831 73.8349727,187.956831 C73.6546448,187.925683 73.4114754,187.412568 73.2174863,186.998907 C73.0333333,186.610929 72.8054645,186.206011 72.5295082,185.820219 C73.668306,185.221311 74.6972678,184.551366 75.6010929,183.809836 C75.4437158,184.894536 75.1497268,185.959563 74.6907104,186.953005 Z" id="Path"></path>
            <path d="M82.7453552,188.275956 C82.0775956,187.890164 81.8928962,186.862295 82.0584699,186.088525 C82.2071038,185.392896 82.579235,184.730601 83.0087432,184.086339 C83.8377049,185.306011 84.7677596,186.448634 85.7699454,187.528962 C84.3896175,188.391257 83.4038251,188.654098 82.7453552,188.275956 Z" id="Path"></path>
            <path d="M88.047541,193.696721 C87.8081967,193.852459 87.3639344,194.121311 87.2032787,194.104372 C87.0519126,194.096721 86.8163934,193.836612 86.747541,193.522404 C86.6387978,193.028962 86.7852459,192.415847 86.9431694,191.830055 C87.1606557,191.02623 87.4453552,190.239344 87.7240437,189.453005 C87.8202186,189.538798 87.9065574,189.634426 88.0043716,189.719126 C88.789071,190.401639 89.6191257,191.051366 90.4491803,191.701639 C90.5491803,191.779781 90.6377049,191.856284 90.736612,191.934426 L88.047541,193.696721 Z" id="Path"></path>
            <path d="M95.6289617,199.878689 C93.989071,198.317486 93.0338798,196.06776 93.0327869,193.842623 C93.647541,194.39071 94.2437158,194.945355 94.7601093,195.555738 C94.9765027,195.811475 95.2945355,195.959016 95.6289617,195.959016 C95.963388,195.959016 96.2814208,195.810929 96.4978142,195.555738 C97.0142077,194.945355 97.6098361,194.39071 98.2240437,193.843169 C98.2229508,196.068306 97.268306,198.31694 95.6289617,199.878689 Z" id="Path"></path>
            <path d="M104.510383,193.522404 C104.44153,193.835519 104.204918,194.097268 104.055738,194.104372 C103.85082,194.06612 103.448087,193.853552 103.208743,193.696721 L100.519672,191.934426 C100.618033,191.857377 100.706011,191.781421 100.804918,191.703825 C101.636066,191.053005 102.467213,190.402732 103.251913,189.719126 C103.349727,189.63388 103.436066,189.538798 103.532787,189.453005 C103.812568,190.240437 104.097814,191.030055 104.313661,191.827322 C104.473224,192.415301 104.618579,193.030055 104.510383,193.522404 Z" id="Path"></path>
            <path d="M108.511475,188.275956 C107.853005,188.655191 106.868306,188.39071 105.486339,187.529508 C106.489071,186.44918 107.419672,185.306557 108.248634,184.086885 C108.678142,184.729508 109.04918,185.391257 109.199454,186.089617 C109.365027,186.862295 109.180328,187.890164 108.511475,188.275956 Z" id="Path"></path>
            <path d="M118.039891,186.998907 C117.845355,187.412568 117.602186,187.925683 117.420765,187.956831 C117.29235,187.983607 116.895082,187.666667 116.566667,186.954098 C116.107104,185.959563 115.813661,184.893989 115.656831,183.80929 C116.560656,184.55082 117.589071,185.220765 118.728962,185.820219 C118.451913,186.206011 118.224044,186.610383 118.039891,186.998907 Z" id="Path"></path>
            <path d="M125.177049,190.940984 C123.657377,190.048634 122.433333,188.688525 121.698907,187.127322 C122.256284,187.334973 122.808197,187.542623 123.442077,187.743169 C123.555738,187.778689 123.671038,187.796721 123.785246,187.796721 C124.139344,187.796721 124.481967,187.631148 124.701093,187.334426 C125.09071,186.806011 125.418579,186.308743 125.74918,185.80929 C126.073224,187.504372 125.881967,189.32459 125.177049,190.940984 Z" id="Path"></path>
            <path d="M129.695628,183.969399 C129.539891,184.052459 129.014208,183.76612 128.634426,183.556831 C128.257377,183.350273 127.844262,183.136612 127.393443,182.986885 C127.957923,181.839344 128.393989,180.699454 128.687978,179.574863 C129.198907,180.543716 129.587978,181.578142 129.801639,182.653552 C129.952459,183.420219 129.815847,183.910383 129.695628,183.969399 Z" id="Path"></path>
            <path d="M137.093443,178.989617 C136.304372,179.066667 135.571038,178.345902 135.251913,177.622404 C134.962842,176.971038 134.87377,176.218033 134.842623,175.445355 C136.230601,175.944809 137.654645,176.321858 139.100546,176.607104 C138.489617,178.116393 137.844809,178.908743 137.093443,178.989617 Z" id="Path"></path>
            <path d="M144.568306,180.25847 C144.467213,180.525137 144.298361,180.972131 144.12459,181.085792 C144.004372,181.171038 143.654645,181.096721 143.415847,180.883607 C143.035519,180.545902 142.793443,179.963934 142.577596,179.396175 C142.279781,178.615847 142.048634,177.813661 141.812568,177.015301 C141.940984,177.028415 142.066667,177.054645 142.195628,177.06612 C143.23224,177.157377 144.286885,177.196175 145.34153,177.234426 C145.465574,177.238798 145.584699,177.244262 145.708197,177.248634 L144.568306,180.25847 Z" id="Path"></path>
            <path d="M154.336066,180.804372 C152.1,180.505464 150.053005,179.227869 148.743169,177.438251 C149.544809,177.520219 150.330601,177.631694 151.09235,177.818033 C151.182514,177.838798 151.273224,177.850273 151.363388,177.850273 C151.601093,177.850273 151.835519,177.775956 152.03224,177.632787 C152.303825,177.436612 152.47377,177.130601 152.497814,176.796175 C152.555738,176.014754 152.692896,175.232787 152.862842,174.444262 C154.160109,176.242077 154.743169,178.584699 154.336066,180.804372 Z" id="Path"></path>
            <path d="M157.785246,170.442077 C157.914208,170.734426 157.876503,171.084699 157.75847,171.179235 C157.597268,171.30929 157.119672,171.33224 156.834973,171.345902 L153.619126,171.501093 C153.653005,171.382514 153.684699,171.267213 153.718579,171.148087 C154.008743,170.13224 154.298907,169.117486 154.53224,168.103279 C154.561202,167.977049 154.57541,167.84918 154.602186,167.723497 C155.29071,168.195082 155.983607,168.664481 156.631148,169.185792 C157.103825,169.566667 157.581967,169.978142 157.785246,170.442077 Z" id="Path"></path>
            <path d="M157.938251,163.843169 C157.629508,164.536066 156.675956,164.903279 155.051913,165.018033 C155.227869,163.554098 155.30929,162.083607 155.262842,160.609836 C155.988525,160.877596 156.677596,161.195628 157.208743,161.671585 C157.796175,162.199454 158.251913,163.139891 157.938251,163.843169 Z" id="Path"></path>
            <path d="M164.959016,158.348634 C164.869945,158.442077 164.361749,158.42459 163.675956,158.039891 C162.708197,157.499454 161.834973,156.799454 161.063934,156.001639 C161.393989,156.021858 161.711475,156.068852 162.050273,156.068852 C162.915301,156.068852 163.819126,155.977049 164.738251,155.845355 C164.739891,156.323497 164.815847,156.785246 164.896721,157.209836 C164.980874,157.659016 165.086339,158.217486 164.959016,158.348634 Z" id="Path"></path>
            <path d="M172.986885,156.204918 C171.230601,156.367213 169.442077,155.991257 167.931148,155.162842 C168.508743,155.002732 169.082514,154.844809 169.704918,154.637158 C170.16612,154.483607 170.479235,154.052459 170.48306,153.565574 C170.487978,152.900546 170.460656,152.311475 170.434973,151.717486 C171.692896,152.898907 172.60765,154.483607 172.986885,156.204918 Z" id="Path"></path>
            <path d="M171.444262,148.198907 C171.017486,148.253552 170.557923,148.323497 170.106011,148.466667 C169.887432,147.206557 169.570492,146.028962 169.146995,144.946448 C170.130055,145.430601 171.052459,146.038798 171.856831,146.78306 C172.430055,147.313661 172.607104,147.790164 172.544809,147.908197 C172.460656,148.069399 171.896721,148.14153 171.444262,148.198907 Z" id="Path"></path>
            <path d="M175.602186,139.531148 C175.027869,140.046448 173.992896,139.903279 173.310929,139.508743 C172.694536,139.151366 172.179235,138.593989 171.7,137.986339 C173.115847,137.57541 174.490164,137.043716 175.827869,136.424044 C176.220765,138.003825 176.165574,139.023497 175.602186,139.531148 Z" id="Path"></path>
            <path d="M181.830601,137.347541 C181.325137,137.297268 180.786885,136.969399 180.279235,136.637158 C179.58306,136.183607 178.922404,135.669399 178.260656,135.160109 C178.372131,135.095082 178.489071,135.042077 178.6,134.97541 C179.49235,134.440437 180.368306,133.851913 181.243716,133.262842 C181.346448,133.193443 181.446995,133.127322 181.550273,133.05847 L182.396175,136.163934 C182.470492,136.439344 182.596175,136.901639 182.524044,137.093989 C182.469945,137.234973 182.15082,137.380328 181.830601,137.347541 Z" id="Path"></path>
            <path d="M190.619126,130.864481 C188.634973,131.937158 186.227322,132.106557 184.115847,131.428415 C184.812568,131.023497 185.514208,130.65082 186.239891,130.354098 C186.549727,130.227869 186.789071,129.971038 186.89235,129.651913 C186.995628,129.33388 186.953552,128.986339 186.777049,128.702186 C186.355738,128.022404 186.013115,127.283607 185.681967,126.529508 C187.797268,127.219126 189.640984,128.822951 190.619126,130.864481 Z" id="Path"></path>
            <path d="M185.646995,120.11694 C186.253552,120.146995 186.881967,120.197814 187.318579,120.452459 C187.595628,120.614754 187.771038,120.920219 187.731148,121.065574 C187.677596,121.264481 187.304372,121.565027 187.081967,121.743716 L184.57541,123.754645 C184.53224,123.635519 184.486339,123.527322 184.442623,123.407104 C184.080328,122.418033 183.719126,121.428962 183.312568,120.472131 C183.262295,120.353552 183.198907,120.242623 183.146995,120.12459 C183.982514,120.102186 184.820219,120.074317 185.646995,120.11694 Z" id="Path"></path>
            <path d="M183.563388,115.02623 C183.721311,115.76776 183.166667,116.625683 181.920219,117.672131 C181.203279,116.385246 180.404372,115.147541 179.5,113.982514 C180.247541,113.772678 180.994536,113.624044 181.697268,113.697814 C182.48306,113.778142 183.404372,114.271585 183.563388,115.02623 Z" id="Path"></path>
            <path d="M184.796175,106.957923 C183.708197,107.086339 182.604372,107.036612 181.525137,106.85082 C182.509836,106.220219 183.464481,105.44918 184.386885,104.551366 C184.66776,104.932787 184.982514,105.27377 185.295628,105.568852 C185.627869,105.881967 186.040984,106.272131 186.015847,106.453005 C185.996175,106.584699 185.571585,106.865574 184.796175,106.957923 Z" id="Path"></path>
            <path d="M186.54918,102.128962 C186.918579,101.662842 187.286339,101.203279 187.673224,100.662295 C187.956831,100.266667 187.956831,99.7333333 187.673224,99.3377049 C187.284699,98.7945355 186.914754,98.3322404 186.543716,97.8650273 C188.260109,98.0775956 189.928415,98.8289617 191.248634,100 C189.928415,101.170492 188.262842,101.912568 186.54918,102.128962 Z" id="Path"></path>
        </g>
    </g>
</svg>