<?xml version="1.0" encoding="UTF-8"?>
<svg width="195px" height="200px" viewBox="0 0 195 200" version="1.1" xmlns="http://www.w3.org/2000/svg" xmlns:xlink="http://www.w3.org/1999/xlink">
    <!-- Generator: Sketch 56.3 (81716) - https://sketch.com -->
    <title>12</title>
    <desc>Created with Sketch.</desc>
    <g id="Page-1" stroke="none" stroke-width="1" fill="none" fill-rule="evenodd">
        <g id="12" fill="#EC6567" fill-rule="nonzero">
            <path d="M194.350595,81.0607143 C196.7875,85.4613095 190.91369,92.1285714 185.5875,95.2065476 C181.76131,97.4190476 177.713095,93.1404762 173.494048,93.564881 C174.761905,89.7125 173.302381,84.625 180.746429,81.6714286 C183.884524,80.6190476 192.031548,76.8642857 194.350595,81.0607143 Z" id="Path"></path>
            <path d="M180.7125,102.034524 C179.761905,103.093452 177.554167,103.700595 176.067262,103.471429 C172.836905,102.97381 169.707143,101.813095 166.53631,100.921429 C166.017857,100.66131 165.530952,100.35 165.085119,100 C165.530952,99.6505952 166.017857,99.3386905 166.53631,99.0785714 C169.707143,98.1869048 172.83631,97.0261905 176.067262,96.5285714 C177.554762,96.2988095 179.7625,96.9059524 180.7125,97.9654762 C181.280952,98.5988095 181.319048,99.2952381 181.1,100 C181.318452,100.704762 181.280952,101.40119 180.7125,102.034524 Z" id="Path"></path>
            <path d="M136.044048,158.104762 C135.414881,157.433333 133.813095,157.033333 135.09881,155.959524 C135.761905,155.404762 136.344048,154.752381 136.922024,154.095238 C137.725,153.749405 138.525595,153.397024 139.258333,152.938095 C140.676786,152.047619 140.5625,153.694643 141.006548,154.5 C141.808929,155.958929 142.608929,158.179762 143.83869,158.518452 C150.648214,160.3875 148.608333,164.17619 146.836905,167.741667 C142.898214,168.324405 138.664881,169.093452 138.991071,162.039881 C139.048214,160.766071 137.183929,159.317857 136.044048,158.104762 Z" id="Path"></path>
            <path d="M94.552381,169.593452 C94.4380952,168.680952 93.377381,167.415476 95.0482143,167.301786 C95.9107143,167.242857 96.7654762,167.057143 97.6184524,166.865476 C98.4714286,167.057143 99.3267857,167.243452 100.18869,167.301786 C101.860119,167.414881 100.799405,168.680357 100.684524,169.593452 C100.475595,171.244643 99.8184524,173.511905 100.61369,174.508929 C105.024405,180.02381 101.147024,181.889286 97.6178571,183.733333 C94.0886905,181.889286 90.2119048,180.02381 94.6220238,174.508929 C95.4184524,173.511905 94.7613095,171.244643 94.552381,169.593452 Z" id="Path"></path>
            <path d="M85.5678571,158.917857 C84.9642857,156.672619 83.3791667,152.150595 88.489881,152.232143 C92.3065476,152.294048 95.435119,153.776786 97.6190476,156.37381 C99.802381,153.776786 102.931548,152.294048 106.748214,152.232143 C111.858929,152.150595 110.27381,156.672619 109.670238,158.917857 C107.669048,166.350595 87.5988095,166.459524 85.5678571,158.917857 Z" id="Path"></path>
            <path d="M48.4017857,167.741667 C46.6309524,164.17619 44.5910714,160.3875 51.4005952,158.518452 C52.6297619,158.179762 53.4309524,155.958929 54.2321429,154.5 C54.6761905,153.694048 54.5613095,152.047619 55.9803571,152.938095 C56.7125,153.397024 57.5136905,153.749405 58.3166667,154.095238 C58.8940476,154.752381 59.4767857,155.404762 60.139881,155.959524 C61.4255952,157.033929 59.8238095,157.433929 59.1946429,158.104762 C58.0547619,159.317857 56.1910714,160.766071 56.2482143,162.039286 C56.5744048,169.093452 52.3404762,168.32381 48.4017857,167.741667 Z" id="Path"></path>
            <path d="M14.5255952,97.9654762 C15.4761905,96.9065476 17.6833333,96.2994048 19.1708333,96.5285714 C22.4011905,97.0261905 25.5309524,98.1869048 28.7017857,99.0785714 C29.2202381,99.3386905 29.7065476,99.65 30.1529762,100 C29.7065476,100.349405 29.2202381,100.66131 28.7017857,100.921429 C25.5309524,101.813095 22.4017857,102.97381 19.1708333,103.471429 C17.6833333,103.700595 15.4755952,103.093452 14.5255952,102.034524 C13.9571429,101.40119 13.9190476,100.704762 14.1375,100 C13.9196429,99.2952381 13.9571429,98.5988095 14.5255952,97.9654762 Z" id="Path"></path>
            <path d="M59.1940476,41.8952381 C59.8232143,42.5660714 61.425,42.9660714 60.1392857,44.0404762 C59.4761905,44.5946429 58.8940476,45.247619 58.3160714,45.9047619 C57.5130952,46.2511905 56.7125,46.6029762 55.9797619,47.0625 C54.5607143,47.9529762 54.6755952,46.3059524 54.2315476,45.5 C53.4297619,44.0410714 52.6291667,41.8208333 51.4,41.4821429 C44.5904762,39.6130952 46.6303571,35.8244048 48.4011905,32.2583333 C52.339881,31.6755952 56.5738095,30.9065476 56.2470238,37.960119 C56.189881,39.2345238 58.0541667,40.6821429 59.1940476,41.8952381 Z" id="Path"></path>
            <path d="M100.685119,30.4065476 C100.8,31.3196429 101.860714,32.5845238 100.189286,32.6982143 C99.3267857,32.7571429 98.4720238,32.9428571 97.6190476,33.135119 C96.7660714,32.9428571 95.9107143,32.7571429 95.0488095,32.6982143 C93.377381,32.585119 94.4380952,31.3196429 94.5529762,30.4065476 C94.7619048,28.7553571 95.4190476,26.4880952 94.6238095,25.4916667 C90.2130952,19.9767857 94.0904762,18.1107143 97.6196429,16.2666667 C101.14881,18.1107143 105.025595,19.9767857 100.615476,25.4916667 C99.8196429,26.4880952 100.476786,28.7553571 100.685119,30.4065476 Z" id="Path"></path>
            <path d="M109.670238,41.0815476 C110.27381,43.327381 111.858929,47.8494048 106.748214,47.7672619 C102.931548,47.7053571 99.8029762,46.2232143 97.6190476,43.6255952 C95.4357143,46.2232143 92.3065476,47.7053571 88.489881,47.7672619 C83.3791667,47.8488095 84.9642857,43.327381 85.5678571,41.0815476 C87.5690476,33.6494048 107.639286,33.5404762 109.670238,41.0815476 Z" id="Path"></path>
            <path d="M146.83631,32.2583333 C148.607738,35.8238095 150.647619,39.6130952 143.838095,41.4821429 C142.608929,41.8208333 141.808333,44.0416667 141.005952,45.5 C140.5625,46.3059524 140.676786,47.9529762 139.257738,47.0625 C138.525595,46.6029762 137.724405,46.2511905 136.921429,45.9047619 C136.344048,45.247619 135.76131,44.5946429 135.098214,44.0404762 C133.8125,42.9660714 135.414286,42.5660714 136.043452,41.8952381 C137.183333,40.6815476 139.047024,39.2339286 138.989881,37.960119 C138.66369,30.9065476 142.897619,31.6755952 146.83631,32.2583333 Z" id="Path"></path>
            <path d="M162.872024,93.7970238 C162.348214,89.5422619 164.067262,85.6982143 167.614881,83.0339286 C169.025595,81.9744048 170.692857,81.8821429 171.356548,84.0595238 C172.752976,88.6505952 171.592262,92.489881 169.344048,94.3565476 C165.406548,96.9791667 163.076786,95.4440476 162.872024,93.7970238 Z" id="Path"></path>
            <path d="M169.344048,105.643452 C171.592857,107.510119 172.752976,111.34881 171.356548,115.939881 C170.692857,118.117857 169.025,118.025595 167.614881,116.966071 C164.067262,114.301786 162.347619,110.457738 162.872024,106.203571 C163.076786,104.555952 165.406548,103.020238 169.344048,105.643452 Z" id="Path"></path>
            <path d="M169.406548,79.8244048 C168.213095,79.3761905 166.260119,80.7017857 164.754167,81.4107143 C163.921429,81.8017857 163.045833,83.2017857 162.421429,81.6470238 C162.09881,80.8452381 161.658333,80.0892857 161.211905,79.3375 C161.130952,78.4666667 161.043452,77.5958333 160.832738,76.7577381 C160.424405,75.1333333 161.955357,75.7511905 162.858929,75.5779762 C164.494048,75.2660714 166.853571,75.1904762 167.555357,74.1267857 C171.436905,68.2279762 174.410119,71.3386905 177.254167,74.1255952 C176.591071,78.0505952 176.014286,82.3154762 169.406548,79.8244048 Z" id="Path"></path>
            <path d="M144.47381,75.177381 C142.816667,70.3416667 147.607143,70.4517857 149.929762,70.3315476 C157.616667,69.9386905 163.922024,88.9928571 157.377976,93.2547619 C155.428571,94.522619 151.617857,97.427381 150.116667,92.5416667 C148.995833,88.8928571 149.43869,85.4589286 151.233929,82.5797619 C148.08869,81.3053571 145.7125,78.7875 144.47381,75.177381 Z" id="Path"></path>
            <path d="M142.220238,94.2625 C144.85,92.5678571 146.294048,95.1285714 147.405952,97.1720238 C147.91369,98.1047619 148.214286,99.0595238 148.342857,99.9994048 C148.214286,100.939286 147.91369,101.894643 147.405952,102.826786 C146.294048,104.871429 144.85,107.430952 142.220238,105.736905 C140.058333,104.343452 139.057738,102.372619 139.457143,99.9994048 C139.057738,97.6267857 140.057738,95.6559524 142.220238,94.2625 Z" id="Path"></path>
            <path d="M147.754167,67.8154762 C145.955952,68.9761905 144.082738,68.3535714 142.431548,67.4422619 C142.074405,65.5904762 142.061905,63.6160714 143.721429,62.264881 C144.5875,61.5589286 146.23631,61.1160714 147.251786,61.439881 C148.057738,61.6964286 148.58869,62.1505952 148.938095,62.7154762 C149.367262,63.2220238 149.635119,63.8672619 149.63042,64.7130952 C149.623214,65.7785714 148.692262,67.2095238 147.754167,67.8154762 Z" id="Path"></path>
            <path d="M147.075595,83.9303571 C147.510714,86.160119 147.294643,88.2827381 145.114881,89.9005952 C143.7375,90.922619 139.819643,93.5904762 138.070833,89.9619048 C137.638095,89.064881 137.260119,88.1416667 136.974405,87.2130952 C136.660119,86.2934524 136.423214,85.325 136.245833,84.3446429 C135.527976,80.3815476 140.265476,80.2369048 141.980357,80.2541667 C144.695238,80.2809524 146.117857,81.8708333 147.075595,83.9303571 Z" id="Path"></path>
            <path d="M137.074405,78.4255952 C134.506548,78.5696429 132.53869,77.5625 131.466667,75.4083333 C129.74881,73.722619 129.399405,71.5404762 130.329762,69.1428571 C131.46131,66.2261905 134.135119,67.4488095 136.235714,68.4482143 C137.194643,68.9047619 137.999405,69.5005952 138.655952,70.185119 C139.104167,71.0208333 139.422024,71.9702381 139.560119,73.0238095 C139.86131,75.3309524 140.197619,78.2505952 137.074405,78.4255952 Z" id="Path"></path>
            <path d="M130.107738,63.9119048 C129.594048,65.5482143 127.992857,70.0095238 124.444643,68.102381 C123.567262,67.6309524 122.719048,67.1065476 121.941667,66.5232143 C121.147024,65.9642857 120.385714,65.3196429 119.666071,64.6309524 C116.755357,61.8464286 120.503571,58.9446429 121.90119,57.9505952 C124.11369,56.3767857 126.19881,56.827381 128.185119,57.9297619 C129.848214,59.477381 130.920238,61.3214286 130.107738,63.9119048 Z" id="Path"></path>
            <path d="M100.572024,58.4261905 C99.585119,58.5607143 98.5904762,58.6345238 97.6190476,58.6196429 C96.6470238,58.6345238 95.6529762,58.560119 94.6660714,58.4261905 C90.6744048,57.8845238 92.0011905,53.3333333 92.547619,51.7077381 C93.4130952,49.1339286 95.3642857,48.272619 97.6196429,47.997619 C99.875,48.272619 101.82619,49.1339286 102.691667,51.7077381 C103.236905,53.3339286 104.56369,57.8845238 100.572024,58.4261905 Z" id="Path"></path>
            <path d="M75.5720238,64.6303571 C74.852381,65.3190476 74.0916667,65.9636905 73.2964286,66.522619 C72.5190476,67.1059524 71.6708333,67.6303571 70.7934524,68.1017857 C67.2458333,70.0095238 65.6440476,65.547619 65.1303571,63.9113095 C64.3178571,61.3208333 65.389881,59.4767857 67.052381,57.9285714 C69.0386905,56.8255952 71.1238095,56.3755952 73.3363095,57.9494048 C74.7345238,58.9440476 78.4827381,61.8458333 75.5720238,64.6303571 Z" id="Path"></path>
            <path d="M64.9083333,69.1428571 C65.8386905,71.5410714 65.4886905,73.7232143 63.7714286,75.4083333 C62.6994048,77.5630952 60.7315476,78.5696429 58.1636905,78.4255952 C55.039881,78.2505952 55.3761905,75.3303571 55.6785714,73.0232143 C55.8160714,71.9696429 56.1345238,71.0208333 56.5827381,70.1845238 C57.2392857,69.5 58.0440476,68.9041667 59.002381,68.447619 C61.1035714,67.4482143 63.7767857,66.2261905 64.9083333,69.1428571 Z" id="Path"></path>
            <path d="M58.9928571,84.3440476 C58.8154762,85.3244048 58.5785714,86.2928571 58.2642857,87.2125 C57.9785714,88.1416667 57.6,89.0642857 57.1678571,89.9613095 C55.4190476,93.589881 51.5005952,90.9220238 50.1238095,89.9 C47.9434524,88.2821429 47.727381,86.1595238 48.1630952,83.9297619 C49.1214286,81.8702381 50.5440476,80.2803571 53.2589286,80.2529762 C54.972619,80.2363095 59.7107143,80.3809524 58.9928571,84.3440476 Z" id="Path"></path>
            <path d="M53.0178571,105.7375 C50.3880952,107.432143 48.9434524,104.872024 47.8321429,102.827381 C47.3244048,101.895238 47.0238095,100.939881 46.8952381,100 C47.0238095,99.060119 47.3244048,98.1053571 47.8321429,97.172619 C48.9440476,95.1285714 50.3880952,92.5684524 53.0178571,94.2630952 C55.1797619,95.6565476 56.1803571,97.627381 55.7809524,100.000595 C56.1803571,102.372619 55.1803571,104.344048 53.0178571,105.7375 Z" id="Path"></path>
            <path d="M52.8065476,67.4422619 C51.1553571,68.3535714 49.2821429,68.9761905 47.4839286,67.8154762 C46.5452381,67.2095238 45.614881,65.7785714 45.6083333,64.7130952 C45.6029762,63.8672619 45.8714286,63.2220238 46.3005952,62.7154762 C46.65,62.1505952 47.1809524,61.6964286 47.9869048,61.439881 C49.0029762,61.1166667 50.6511905,61.5595238 51.5172619,62.264881 C53.1761905,63.6160714 53.1636905,65.589881 52.8065476,67.4422619 Z" id="Path"></path>
            <path d="M50.7642857,75.177381 C49.5255952,78.7875 47.1494048,81.3053571 44.0047619,82.5797619 C45.8005952,85.4589286 46.2428571,88.8928571 45.122619,92.5416667 C43.6208333,97.427381 39.810119,94.522619 37.8607143,93.2547619 C31.4107143,89.0541667 37.5089286,69.9327381 45.3089286,70.3315476 C47.6309524,70.4517857 52.4208333,70.3416667 50.7642857,75.177381 Z" id="Path"></path>
            <path d="M38.1416667,96.5696429 C40.2785714,96.6875 41.4279762,98.2922619 42.2285714,100 C41.4285714,101.707738 40.2785714,103.311905 38.1416667,103.430357 C37.0261905,103.492262 35.4321429,102.881548 34.8005952,102.023214 C34.2988095,101.341667 34.1369048,100.6625 34.1863095,100.000595 C34.1369048,99.3386905 34.2988095,98.6589286 34.8005952,97.9779762 C35.4321429,97.1184524 37.0261905,96.5077381 38.1416667,96.5696429 Z" id="Path"></path>
            <path d="M37.860119,106.745238 C39.8095238,105.477381 43.6202381,102.572619 45.1220238,107.458333 C46.2422619,111.107143 45.8,114.541071 44.0041667,117.420238 C47.1494048,118.694643 49.5255952,121.211905 50.7636905,124.822619 C52.4208333,129.658333 47.6303571,129.547619 45.3077381,129.668452 C37.6214286,130.06131 31.3160714,111.007143 37.860119,106.745238 Z" id="Path"></path>
            <path d="M47.4839286,132.184524 C49.2821429,131.024405 51.1553571,131.646429 52.8065476,132.557738 C53.1636905,134.409524 53.1761905,136.383929 51.5166667,137.735119 C50.6505952,138.441071 49.002381,138.883333 47.9863095,138.560119 C47.1803571,138.303571 46.6494048,137.849405 46.3,137.284524 C45.8708333,136.777381 45.6029762,136.132738 45.6076756,135.2875 C45.614881,134.221429 46.5458333,132.790476 47.4839286,132.184524 Z" id="Path"></path>
            <path d="M48.1625,116.069643 C47.727381,113.839881 47.9434524,111.717262 50.1232143,110.099405 C51.5005952,109.077381 55.4184524,106.410119 57.1672619,110.038095 C57.6,110.935714 57.9779762,111.858333 58.2636905,112.786905 C58.5779762,113.706548 58.814881,114.675 58.9922619,115.655357 C59.710119,119.618452 54.972619,119.763095 53.2571429,119.745833 C50.5428571,119.719048 49.1202381,118.129167 48.1625,116.069643 Z" id="Path"></path>
            <path d="M58.1636905,121.57381 C60.7315476,121.430357 62.6994048,122.436905 63.7714286,124.591667 C65.4886905,126.276786 65.8386905,128.458929 64.9083333,130.857143 C63.7767857,133.773214 61.1029762,132.55119 59.002381,131.55119 C58.0434524,131.094643 57.2392857,130.49881 56.5827381,129.814286 C56.1345238,128.978571 55.8160714,128.029167 55.6785714,126.975595 C55.3767857,124.669048 55.0404762,121.74881 58.1636905,121.57381 Z" id="Path"></path>
            <path d="M65.1303571,136.088095 C65.6440476,134.451786 67.2452381,129.990476 70.7934524,131.897619 C71.6708333,132.369643 72.5190476,132.894048 73.2964286,133.477381 C74.0910714,134.035714 74.852381,134.680357 75.5720238,135.369643 C78.4827381,138.154762 74.7345238,141.056548 73.3369048,142.050595 C71.1244048,143.62381 69.0392857,143.17381 67.0529762,142.070833 C65.389881,140.522619 64.3178571,138.677976 65.1303571,136.088095 Z" id="Path"></path>
            <path d="M94.6660714,141.57381 C95.6529762,141.439286 96.647619,141.364881 97.6190476,141.380357 C98.5910714,141.365476 99.585119,141.439881 100.572024,141.57381 C104.56369,142.115476 103.236905,146.666667 102.690476,148.292262 C101.825,150.865476 99.8738095,151.727381 97.6184524,152.001786 C95.3630952,151.726786 93.4119048,150.865476 92.5464286,148.292262 C92.0011905,146.666071 90.6744048,142.115476 94.6660714,141.57381 Z" id="Path"></path>
            <path d="M119.666071,135.369643 C120.385714,134.680952 121.146429,134.03631 121.941667,133.477381 C122.719048,132.894048 123.567262,132.369643 124.444643,131.897619 C127.992262,129.990476 129.594048,134.451786 130.107738,136.088095 C130.920238,138.678571 129.848214,140.522619 128.185119,142.070833 C126.199405,143.17381 124.114286,143.623214 121.90119,142.050595 C120.503571,141.056548 116.755357,138.154762 119.666071,135.369643 Z" id="Path"></path>
            <path d="M130.329762,130.857738 C129.399405,128.459524 129.74881,126.277381 131.466667,124.592262 C132.53869,122.4375 134.506548,121.430357 137.074405,121.574405 C140.198214,121.749405 139.86131,124.669643 139.559524,126.976786 C139.422024,128.030357 139.103571,128.979167 138.655357,129.815476 C137.99881,130.5 137.194048,131.095833 136.235119,131.552381 C134.134524,132.551786 131.46131,133.77381 130.329762,130.857738 Z" id="Path"></path>
            <path d="M136.245238,115.655952 C136.422619,114.675595 136.659524,113.707143 136.97381,112.7875 C137.259524,111.858333 137.638095,110.93631 138.070238,110.03869 C139.819048,106.410119 143.7375,109.077976 145.114286,110.1 C147.294048,111.718452 147.510714,113.840476 147.075,116.070238 C146.116667,118.129762 144.694048,119.719643 141.979167,119.747024 C140.265476,119.76369 135.527381,119.619048 136.245238,115.655952 Z" id="Path"></path>
            <path d="M142.431548,132.557738 C144.082738,131.646429 145.955357,131.024405 147.754167,132.184524 C148.692857,132.790476 149.623214,134.221429 149.629762,135.2875 C149.635119,136.133333 149.366667,136.777976 148.9375,137.284524 C148.588095,137.84881 148.057143,138.303571 147.25119,138.560119 C146.235119,138.883333 144.586905,138.441071 143.720833,137.735119 C142.061905,136.383929 142.074405,134.410119 142.431548,132.557738 Z" id="Path"></path>
            <path d="M144.47381,124.822619 C145.7125,121.2125 148.08869,118.694643 151.233333,117.420238 C149.438095,114.541071 148.995238,111.107143 150.116071,107.458333 C151.617262,102.572619 155.427976,105.477381 157.377381,106.745238 C163.827381,110.945833 157.729167,130.067262 149.929167,129.668452 C147.607143,129.548214 142.817262,129.658333 144.47381,124.822619 Z" id="Path"></path>
            <path d="M157.096429,103.430357 C154.959524,103.3125 153.809524,101.707738 153.009524,100 C153.809524,98.2922619 154.958929,96.6880952 157.096429,96.5696429 C158.211905,96.5077381 159.805952,97.1184524 160.4375,97.9767857 C160.939286,98.6583333 161.10119,99.3375 161.051786,99.9994048 C161.10119,100.66131 160.939286,101.341071 160.4375,102.022024 C159.805952,102.881548 158.211905,103.492262 157.096429,103.430357 Z" id="Path"></path>
            <path d="M164.219048,72.5833333 C159.782738,72.5136905 156.132738,70.4142857 154.055357,66.6642857 C153.252976,65.2107143 154.235714,62.5994048 158.9625,62.4071429 C161.879167,62.5952381 165.074405,65.0190476 166.643452,69.5541667 C167.38631,71.7059524 165.983333,72.6113095 164.219048,72.5833333 Z" id="Path"></path>
            <path d="M153.915476,60.2369048 C153.343452,60.3315476 152.766071,60.364881 152.2,60.3446429 C152.355357,59.7994048 152.565476,59.2613095 152.832738,58.7458333 C154.87381,56.1607143 156.723214,53.3821429 159.044643,51.0809524 C160.113095,50.0208333 162.255952,49.2142857 163.647619,49.5130952 C164.479762,49.6910714 164.919643,50.2321429 165.157143,50.9309524 C165.748214,51.372619 166.127381,51.9583333 166.039286,52.8047619 C165.892857,54.2208333 164.46369,56.0095238 163.125,56.6982143 C160.219048,58.1940476 157.004762,59.0946429 153.915476,60.2369048 Z" id="Path"></path>
            <path d="M152.328571,53.2755952 C150.685119,57.7119048 147.897619,57.8392857 146.76369,56.6267857 C143.83869,53.4928571 142.970238,49.3720238 144.274405,45.1315476 C144.792857,43.4452381 146.0875,42.3904762 147.904762,43.7619048 C151.732738,46.6559524 153.050595,50.4434524 152.328571,53.2755952 Z" id="Path"></path>
            <path d="M135.384524,38.672619 C131.754762,41.2238095 127.567262,41.6714286 123.682738,39.8577381 C122.179167,39.1535714 121.439286,36.4630952 125.150595,33.5291667 C127.620833,31.9672619 131.630357,32.05 135.565476,34.7964286 C137.431548,36.1017857 136.827976,37.6589286 135.384524,38.672619 Z" id="Path"></path>
            <path d="M122.500595,45.2505952 C128.488095,40.4142857 144.789286,52.1232143 142,59.4178571 C141.168452,61.5892857 139.792857,66.1791667 135.705952,63.1089286 C132.654762,60.8154762 130.994048,57.777381 130.754762,54.3928571 C127.46131,55.2107143 124.058929,54.5702381 120.935119,52.377381 C116.752381,49.4392857 120.692262,46.7130952 122.500595,45.2505952 Z" id="Path"></path>
            <path d="M119.260714,44.4934524 C118.488095,46.4892857 116.607143,47.0869048 114.735119,47.3202381 C113.358333,46.0315476 112.1875,44.4428571 112.735714,42.3738095 C113.021429,41.2940476 114.095238,39.9666667 115.106548,39.6309524 C115.909524,39.364881 116.605952,39.4202381 117.220238,39.6720238 C117.864881,39.8297619 118.46131,40.1940476 118.954167,40.8815476 C119.57619,41.7470238 119.664286,43.4517857 119.260714,44.4934524 Z" id="Path"></path>
            <path d="M113.293452,51.7589286 C114.147619,52.1714286 114.963095,52.752381 115.693452,53.5238095 C117.293452,55.2130952 119.282738,57.3779762 116.858333,59.3553571 C114.865476,60.9809524 112.681548,61.3232143 110.548214,60.210119 C108.167857,59.8565476 106.602381,58.2964286 105.945238,55.8095238 C105.146429,52.7845238 108.027976,52.202381 110.315476,51.7761905 C111.358929,51.5815476 112.360119,51.5904762 113.293452,51.7589286 Z" id="Path"></path>
            <path d="M84.9232143,51.7755952 C87.2107143,52.2017857 90.0922619,52.7839286 89.2934524,55.8089286 C88.6363095,58.2958333 87.0708333,59.8559524 84.6904762,60.2095238 C82.5571429,61.322619 80.3738095,60.9803571 78.3803571,59.3547619 C75.9559524,57.377381 77.9446429,55.2125 79.5452381,53.5232143 C80.2755952,52.752381 81.0910714,52.1714286 81.9452381,51.7583333 C82.8779762,51.5904762 83.8791667,51.5815476 84.9232143,51.7755952 Z" id="Path"></path>
            <path d="M80.502381,47.3202381 C78.6309524,47.0875 76.75,46.4892857 75.977381,44.4934524 C75.5738095,43.4517857 75.6619048,41.7470238 76.2833333,40.8809524 C76.7761905,40.1934524 77.372619,39.8291667 78.0172619,39.6714286 C78.6315476,39.4202381 79.3279762,39.3642857 80.1309524,39.6303571 C81.1428571,39.9660714 82.2160714,41.2928571 82.5017857,42.3732143 C83.05,44.4422619 81.8797619,46.0315476 80.502381,47.3202381 Z" id="Path"></path>
            <path d="M74.3029762,52.377381 C71.1791667,54.5708333 67.7767857,55.2107143 64.4833333,54.3928571 C64.2434524,57.777381 62.5833333,60.8154762 59.5321429,63.1089286 C55.4458333,66.1791667 54.0702381,61.5892857 53.2380952,59.4178571 C50.4886905,52.2285714 66.6619048,40.3434524 72.7375,45.2505952 C74.5458333,46.7130952 78.4857143,49.4392857 74.3029762,52.377381 Z" id="Path"></path>
            <path d="M71.5547619,39.8577381 C67.6702381,41.6708333 63.4827381,41.2232143 59.8529762,38.672619 C58.4095238,37.6589286 57.8065476,36.1017857 59.6720238,34.7970238 C63.6071429,32.0505952 67.6166667,31.9678571 70.0869048,33.5297619 C73.7988095,36.4636905 73.0583333,39.1535714 71.5547619,39.8577381 Z" id="Path"></path>
            <path d="M47.3339286,43.7625 C49.1511905,42.3910714 50.4458333,43.4458333 50.9642857,45.1321429 C52.2684524,49.372619 51.4,53.4928571 48.475,56.627381 C47.3410714,57.839881 44.5535714,57.7125 42.9095238,53.2761905 C42.1875,50.4434524 43.5053571,46.6559524 47.3339286,43.7625 Z" id="Path"></path>
            <path d="M43.0380952,60.3446429 C42.4720238,60.3654762 41.8946429,60.3315476 41.322619,60.2369048 C38.2339286,59.0946429 35.0196429,58.1934524 32.1130952,56.697619 C30.775,56.0089286 29.3458333,54.2202381 29.1994048,52.8041667 C29.1113095,51.9577381 29.4904762,51.3720238 30.0809524,50.9303571 C30.3184524,50.2321429 30.7583333,49.6904762 31.5904762,49.5125 C32.9821429,49.2142857 35.125,50.0208333 36.1928571,51.0803571 C38.5136905,53.3815476 40.3636905,56.160119 42.4047619,58.7452381 C42.6720238,59.2613095 42.8827381,59.7994048 43.0380952,60.3446429 Z" id="Path"></path>
            <path d="M41.1821429,66.6642857 C39.1053571,70.4142857 35.4547619,72.5142857 31.0184524,72.5833333 C29.2547619,72.6113095 27.8517857,71.7059524 28.5940476,69.5541667 C30.1630952,65.0190476 33.3583333,62.5952381 36.275,62.4071429 C41.002381,62.5994048 41.9845238,65.2107143 41.1821429,66.6642857 Z" id="Path"></path>
            <path d="M32.3791667,75.5779762 C33.2827381,75.7511905 34.8136905,75.1333333 34.4047619,76.7577381 C34.1940476,77.5958333 34.1071429,78.4666667 34.0255952,79.3375 C33.5791667,80.0892857 33.1386905,80.8452381 32.8160714,81.6470238 C32.1916667,83.2011905 31.3160714,81.8017857 30.4839286,81.4107143 C28.9779762,80.7017857 27.0244048,79.3761905 25.8315476,79.8244048 C19.2238095,82.314881 18.6470238,78.0505952 17.9839286,74.125 C20.8279762,71.3380952 23.8011905,68.227381 27.6827381,74.1261905 C28.385119,75.1904762 30.7440476,75.2660714 32.3791667,75.5779762 Z" id="Path"></path>
            <path d="M32.3660714,93.7970238 C32.1613095,95.4446429 29.8309524,96.9797619 25.8940476,94.3565476 C23.6452381,92.489881 22.4845238,88.6511905 23.8809524,84.0595238 C24.5452381,81.8821429 26.2125,81.9744048 27.6232143,83.0339286 C31.1708333,85.697619 32.8904762,89.5422619 32.3660714,93.7970238 Z" id="Path"></path>
            <path d="M27.6232143,116.966071 C26.2125,118.025595 24.5452381,118.118452 23.8809524,115.939881 C22.4845238,111.34881 23.6452381,107.510119 25.8940476,105.643452 C29.8309524,103.020238 32.1613095,104.555952 32.3660714,106.202976 C32.8904762,110.457738 31.1708333,114.301786 27.6232143,116.966071 Z" id="Path"></path>
            <path d="M25.8315476,120.175595 C27.025,120.62381 28.9779762,119.298214 30.4839286,118.589286 C31.3166667,118.198214 32.1922619,116.79881 32.8160714,118.353571 C33.1386905,119.155357 33.5797619,119.910714 34.0255952,120.663095 C34.1065476,121.533929 34.1940476,122.404762 34.4047619,123.242857 C34.8136905,124.867262 33.2821429,124.249405 32.3791667,124.422619 C30.7440476,124.733929 28.3845238,124.809524 27.6827381,125.87381 C23.8011905,131.772024 20.8279762,128.661905 17.9839286,125.875 C18.6470238,121.949405 19.2238095,117.685119 25.8315476,120.175595 Z" id="Path"></path>
            <path d="M31.0184524,127.416667 C35.4547619,127.48631 39.1053571,129.58631 41.1821429,133.33631 C41.9845238,134.789286 41.002381,137.400595 36.275,137.592857 C33.3589286,137.404762 30.1630952,134.980952 28.5940476,130.445833 C27.8517857,128.293452 29.2547619,127.38869 31.0184524,127.416667 Z" id="Path"></path>
            <path d="M41.3220238,139.763095 C41.8940476,139.668452 42.4714286,139.634524 43.0375,139.655357 C42.8821429,140.200595 42.6720238,140.73869 42.4047619,141.254167 C40.3636905,143.839286 38.5136905,146.617857 36.1928571,148.919048 C35.125,149.979167 32.9815476,150.785714 31.5904762,150.4875 C30.7583333,150.308929 30.3184524,149.767857 30.0809524,149.069048 C29.489881,148.627381 29.1113095,148.041667 29.1994048,147.195833 C29.3458333,145.779762 30.7744048,143.991071 32.1130952,143.302976 C35.0190476,141.805952 38.2333333,140.905357 41.3220238,139.763095 Z" id="Path"></path>
            <path d="M42.9095238,146.724405 C44.5535714,142.288095 47.3404762,142.160714 48.475,143.373214 C51.4,146.507738 52.2684524,150.627976 50.9642857,154.868452 C50.4458333,156.554762 49.1511905,157.608929 47.3339286,156.238095 C43.5053571,153.344048 42.1875,149.556548 42.9095238,146.724405 Z" id="Path"></path>
            <path d="M59.8535714,161.326786 C63.4833333,158.77619 67.6708333,158.328571 71.5553571,160.142262 C73.0589286,160.846429 73.7994048,163.53631 70.0880952,166.470238 C67.6178571,168.032143 63.6083333,167.949405 59.6732143,165.202976 C57.8065476,163.89881 58.410119,162.341071 59.8535714,161.326786 Z" id="Path"></path>
            <path d="M72.7375,154.749405 C66.75,159.585714 50.4488095,147.876786 53.2380952,140.582143 C54.0696429,138.410714 55.4452381,133.820833 59.5321429,136.890476 C62.5833333,139.184524 64.2440476,142.222024 64.4833333,145.607143 C67.7767857,144.789286 71.1791667,145.429762 74.3029762,147.622619 C78.4857143,150.560714 74.5458333,153.286905 72.7375,154.749405 Z" id="Path"></path>
            <path d="M75.977381,155.506548 C76.75,153.510714 78.6309524,152.913095 80.502381,152.679762 C81.8797619,153.968452 83.05,155.557738 82.5017857,157.626786 C82.2160714,158.706548 81.1422619,160.033929 80.1309524,160.369048 C79.3279762,160.635119 78.6315476,160.579762 78.0172619,160.328571 C77.372619,160.170833 76.7761905,159.806548 76.2833333,159.119643 C75.6619048,158.252976 75.5732143,156.548214 75.977381,155.506548 Z" id="Path"></path>
            <path d="M81.9446429,148.241071 C81.0904762,147.828571 80.275,147.247619 79.5446429,146.47619 C77.9446429,144.786905 75.9553571,142.622619 78.3797619,140.644643 C80.3732143,139.019643 82.5565476,138.677381 84.689881,139.789881 C87.0702381,140.143452 88.6357143,141.704167 89.2928571,144.190476 C90.0916667,147.215476 87.210119,147.798214 84.922619,148.22381 C83.8791667,148.418452 82.8779762,148.409524 81.9446429,148.241071 Z" id="Path"></path>
            <path d="M110.314881,148.224405 C108.027381,147.798214 105.145833,147.216071 105.944643,144.191071 C106.601786,141.704762 108.167262,140.144048 110.547619,139.790476 C112.680952,138.677976 114.864881,139.019643 116.857738,140.645238 C119.282143,142.623214 117.293452,144.7875 115.692857,146.476786 C114.9625,147.248214 114.147024,147.828571 113.292857,148.241667 C112.360119,148.409524 111.358929,148.418452 110.314881,148.224405 Z" id="Path"></path>
            <path d="M114.735714,152.679762 C116.607738,152.913095 118.48869,153.510714 119.26131,155.506548 C119.664881,156.548214 119.576786,158.252976 118.955357,159.119048 C118.4625,159.805952 117.866071,160.170833 117.221429,160.327976 C116.607143,160.579762 115.910714,160.635119 115.107738,160.368452 C114.096429,160.033333 113.022619,158.705952 112.736905,157.62619 C112.188095,155.557738 113.358333,153.968452 114.735714,152.679762 Z" id="Path"></path>
            <path d="M120.935119,147.622619 C124.058929,145.429762 127.46131,144.789286 130.754762,145.607143 C130.994643,142.222024 132.654762,139.184524 135.705952,136.890476 C139.792262,133.820833 141.167857,138.410714 142,140.582143 C144.749405,147.770833 128.57619,159.656548 122.500595,154.749405 C120.692262,153.286905 116.752381,150.560714 120.935119,147.622619 Z" id="Path"></path>
            <path d="M123.682738,160.142262 C127.567262,158.328571 131.754762,158.77619 135.384524,161.326786 C136.827976,162.341071 137.430952,163.898214 135.564881,165.202976 C131.629762,167.949405 127.620238,168.032143 125.15,166.470238 C121.439286,163.53631 122.179167,160.846429 123.682738,160.142262 Z" id="Path"></path>
            <path d="M147.904167,156.2375 C146.086905,157.608929 144.792262,156.554167 144.27381,154.867857 C142.969643,150.627381 143.838095,146.507143 146.763095,143.372619 C147.897024,142.160119 150.684524,142.2875 152.327976,146.72381 C153.050595,149.556548 151.732738,153.344048 147.904167,156.2375 Z" id="Path"></path>
            <path d="M152.2,139.655357 C152.766071,139.634524 153.343452,139.667857 153.915476,139.763095 C157.004762,140.905357 160.219048,141.806548 163.125,143.302381 C164.46369,143.990476 165.892262,145.779167 166.039286,147.195238 C166.126786,148.041667 165.748214,148.626786 165.157143,149.068452 C164.919643,149.767262 164.479762,150.308333 163.647619,150.486905 C162.255952,150.785119 160.113095,149.978571 159.044643,148.918452 C156.72381,146.617262 154.87381,143.83869 152.832738,141.253571 C152.566071,140.73869 152.355357,140.200595 152.2,139.655357 Z" id="Path"></path>
            <path d="M154.055357,133.33631 C156.132143,129.585714 159.782738,127.48631 164.219048,127.416667 C165.982738,127.38869 167.38631,128.294048 166.643452,130.446429 C165.074405,134.981548 161.879167,137.404762 158.9625,137.593452 C154.235714,137.400595 153.252976,134.789286 154.055357,133.33631 Z" id="Path"></path>
            <path d="M162.858929,124.422024 C161.955357,124.24881 160.424405,124.866667 160.832738,123.242262 C161.043452,122.404167 161.130952,121.533333 161.211905,120.6625 C161.658333,119.910119 162.09881,119.154762 162.421429,118.352976 C163.045833,116.79881 163.921429,118.197619 164.754167,118.58869 C166.260119,119.297619 168.21369,120.623214 169.406548,120.175 C176.014286,117.684524 176.591071,121.94881 177.254167,125.874405 C174.410119,128.66131 171.436905,131.771429 167.555357,125.873214 C166.852976,124.809524 164.494048,124.733929 162.858929,124.422024 Z" id="Path"></path>
            <path d="M192.461905,69.1839286 C190.595238,73.2595238 187.953571,76.7172619 182.714881,78.0565476 C181.479762,78.3732143 180.218452,78.597619 178.972024,78.8666667 C179.214881,77.6464286 179.505357,76.4345238 179.691071,75.2089286 C179.797024,74.5041667 179.944048,73.8327381 180.128571,73.1910714 C179.601786,72.7809524 179.088095,72.3232143 178.58869,71.8160714 C177.718452,70.9339286 176.770833,70.1244048 175.857143,69.2797619 C177.02381,68.764881 178.17619,68.2047619 179.36131,67.735119 C184.386905,65.7386905 188.555952,66.9839286 192.461905,69.1839286 Z" id="Path"></path>
            <path d="M171.604762,52.1714286 C177.722619,51.5309524 186.394048,53.472619 187.008929,58.4642857 C187.59881,63.222619 178.80119,64.9732143 175.643452,65.9672619 C167.885714,67.9529762 166.075595,62.9791667 162.785119,60.6077381 C166.44881,58.4714286 167.208929,52.6303571 171.604762,52.1714286 Z" id="Path"></path>
            <path d="M164.744643,27.8202381 C169.302381,29.947619 168.469048,38.7946429 165.969643,44.414881 C164.175,48.4541667 158.384524,47.3720238 155.220833,50.1952381 C153.982143,46.3333333 149.81131,43.0755952 154.097024,36.310119 C156.017262,33.614881 160.401786,25.7886905 164.744643,27.8202381 Z" id="Path"></path>
            <path d="M156.235119,19.3220238 C157.120833,23.7160714 157.016071,28.0660714 153.565476,32.2291667 C152.752381,33.2113095 151.86369,34.1339286 151.013095,35.0839286 C150.492262,33.9541667 150.014881,32.8029762 149.445238,31.702381 C149.116667,31.0702381 148.840476,30.4404762 148.613095,29.8130952 C147.945833,29.7904762 147.26131,29.722619 146.558929,29.6059524 C145.33631,29.4035714 144.093452,29.3059524 142.858333,29.1595238 C143.499405,28.0571429 144.102381,26.927381 144.785119,25.85 C147.677381,21.2815476 151.782738,19.8375 156.235119,19.3220238 Z" id="Path"></path>
            <path d="M129.361905,17.8184524 C133.935119,13.7041667 142.091071,10.1779762 145.523214,13.8553571 C148.797024,17.3577381 142.708333,23.9458333 140.738095,26.6053571 C135.629167,32.7720238 131.241071,29.8119048 127.185714,29.827381 C128.893452,25.9458333 126.075595,20.7732143 129.361905,17.8184524 Z" id="Path"></path>
            <path d="M121.36131,20.3452381 C122.139286,20 122.813095,20.1797619 123.416071,20.6047619 C124.153571,20.614881 124.804762,20.8660714 125.230952,21.602381 C125.944643,22.8339286 125.839881,25.1208333 125.161905,26.4642857 C123.689881,29.3827381 121.619643,32.0005952 119.791667,34.7404762 C119.384524,35.1535714 118.9375,35.5196429 118.467262,35.8357143 C118.272619,35.3035714 118.12619,34.7446429 118.039286,34.1708333 C118.170833,30.8797619 118.034524,27.5446429 118.559524,24.3184524 C118.800595,22.8333333 120.060119,20.9214286 121.36131,20.3452381 Z" id="Path"></path>
            <path d="M109.498214,2.15 C114.43631,1.1922619 118.961905,8.83869048 120.243452,14.8553571 C121.165476,19.1779762 115.845238,21.7059524 114.945238,25.85 C111.673214,23.4541667 106.383929,23.2696429 105.875,15.277381 C105.844048,11.9672619 104.791071,3.05952381 109.498214,2.15 Z" id="Path"></path>
            <path d="M105.245238,24.9452381 C110.043452,25.0363095 113.335714,27.3261905 114.416071,30.0416667 C115.694048,34.5964286 113.51369,36.3380952 111.883929,36.0238095 C107.675595,35.2077381 104.550595,32.3845238 103.11369,28.1869048 C102.541667,26.5184524 102.968452,24.9041667 105.245238,24.9452381 Z" id="Path"></path>
            <path d="M97.6190476,0.276190476 C100.917857,3.31071429 103.390476,6.89166667 103.045238,12.2875 C102.964286,13.560119 102.788095,14.8285714 102.658929,16.0970238 C101.57381,15.4892857 100.510714,14.8386905 99.4029762,14.2833333 C98.7654762,13.964881 98.172619,13.6178571 97.6190476,13.2434524 C97.0660714,13.6178571 96.472619,13.964881 95.835119,14.2833333 C94.7267857,14.8386905 93.6642857,15.4892857 92.5785714,16.0970238 C92.4494048,14.8285714 92.2732143,13.5595238 92.1922619,12.2875 C91.847619,6.89166667 94.3202381,3.31130952 97.6190476,0.276190476 Z" id="Path"></path>
            <path d="M89.9928571,24.9452381 C92.2690476,24.9041667 92.6964286,26.5184524 92.1244048,28.1869048 C90.6875,32.3845238 87.5625,35.2077381 83.3541667,36.0238095 C81.7238095,36.3375 79.5440476,34.5964286 80.8220238,30.0416667 C81.902381,27.3261905 85.1946429,25.0369048 89.9928571,24.9452381 Z" id="Path"></path>
            <path d="M74.9946429,14.8559524 C76.2761905,8.83928571 80.8017857,1.1922619 85.739881,2.15059524 C90.4470238,3.05952381 89.3934524,11.9678571 89.3630952,15.2779762 C88.8547619,23.2696429 83.564881,23.4541667 80.2928571,25.8505952 C79.3928571,21.7065476 74.072619,19.1779762 74.9946429,14.8559524 Z" id="Path"></path>
            <path d="M70.0071429,21.602381 C70.4333333,20.8660714 71.0845238,20.614881 71.8220238,20.6047619 C72.425,20.1797619 73.0988095,20 73.8767857,20.3452381 C75.1779762,20.9220238 76.4375,22.8339286 76.6791667,24.3190476 C77.2041667,27.5452381 77.0672619,30.8803571 77.1994048,34.1714286 C77.1125,34.7446429 76.9660714,35.3041667 76.7714286,35.8363095 C76.3011905,35.5202381 75.8535714,35.1541667 75.4464286,34.7410714 C73.6184524,32.0011905 71.547619,29.3833333 70.0761905,26.464881 C69.3982143,25.1208333 69.2934524,22.8333333 70.0071429,21.602381 Z" id="Path"></path>
            <path d="M49.714881,13.8553571 C53.1470238,10.1779762 61.3029762,13.7041667 65.8761905,17.8184524 C69.1625,20.7732143 66.3446429,25.9458333 68.0517857,29.827381 C63.9964286,29.8119048 59.6083333,32.7720238 54.4994048,26.6053571 C52.5297619,23.9458333 46.4410714,17.3577381 49.714881,13.8553571 Z" id="Path"></path>
            <path d="M39.0029762,19.3220238 C43.4553571,19.8375 47.5607143,21.2815476 50.4529762,25.85 C51.1357143,26.927381 51.7386905,28.0571429 52.3797619,29.1595238 C51.1446429,29.3059524 49.9017857,29.4041667 48.6791667,29.6059524 C47.9761905,29.722619 47.2922619,29.7910714 46.625,29.8130952 C46.397619,30.4410714 46.1214286,31.0702381 45.7934524,31.702381 C45.2232143,32.8029762 44.7464286,33.9541667 44.2255952,35.0839286 C43.375,34.1339286 42.4869048,33.2113095 41.6738095,32.2291667 C38.2220238,28.0660714 38.1178571,23.7160714 39.0029762,19.3220238 Z" id="Path"></path>
            <path d="M30.4934524,27.8202381 C34.8363095,25.7886905 39.2202381,33.614881 41.1410714,36.3107143 C45.427381,43.0755952 41.2559524,46.3339286 40.0172619,50.1958333 C36.8535714,47.3720238 31.0630952,48.4541667 29.2678571,44.4154762 C26.7690476,38.7946429 25.9357143,29.9482143 30.4934524,27.8202381 Z" id="Path"></path>
            <path d="M8.22916667,58.464881 C8.84464286,53.472619 17.5154762,51.5315476 23.6333333,52.1720238 C28.0291667,52.6309524 28.789881,58.4720238 32.452381,60.6083333 C29.1625,62.9797619 27.352381,67.9535714 19.5946429,65.9678571 C16.4369048,64.9738095 7.63928571,63.222619 8.22916667,58.464881 Z" id="Path"></path>
            <path d="M2.77619048,69.1839286 C6.68214286,66.9839286 10.8511905,65.7392857 15.8761905,67.735119 C17.0619048,68.2053571 18.2136905,68.764881 19.3803571,69.2797619 C18.4666667,70.1244048 17.5196429,70.9339286 16.6488095,71.8160714 C16.1494048,72.3238095 15.6357143,72.7809524 15.1089286,73.1910714 C15.2940476,73.8327381 15.4404762,74.5041667 15.5464286,75.2089286 C15.7321429,76.4345238 16.022619,77.6464286 16.2654762,78.8666667 C15.0190476,78.597619 13.7577381,78.3732143 12.522619,78.0565476 C7.28452381,76.7172619 4.64285714,73.2589286 2.77619048,69.1839286 Z" id="Path"></path>
            <path d="M9.65059524,95.2059524 C4.32440476,92.1279762 -1.54940476,85.4607143 0.8875,81.060119 C3.20654762,76.8642857 11.3535714,80.6190476 14.4922619,81.6708333 C21.9357143,84.6244048 20.4767857,89.7119048 21.7446429,93.5642857 C17.525,93.1404762 13.4767857,97.4184524 9.65059524,95.2059524 Z" id="Path"></path>
            <path d="M0.8875,118.939286 C-1.54940476,114.53869 4.32440476,107.871429 9.65059524,104.793452 C13.4767857,102.580952 17.525,106.859524 21.7440476,106.435119 C20.4761905,110.2875 21.9357143,115.375595 14.4916667,118.328571 C11.3535714,119.380952 3.20654762,123.135119 0.8875,118.939286 Z" id="Path"></path>
            <path d="M2.77619048,130.816071 C4.64285714,126.740476 7.28452381,123.282738 12.5232143,121.943452 C13.7583333,121.627381 15.0196429,121.402976 16.2660714,121.133929 C16.0232143,122.354167 15.7327381,123.566071 15.5470238,124.791667 C15.4410714,125.496429 15.2940476,126.168452 15.1095238,126.809524 C15.6363095,127.219643 16.15,127.676786 16.6494048,128.185119 C17.5196429,129.067262 18.4672619,129.876786 19.3809524,130.721429 C18.2142857,131.23631 17.0619048,131.796429 15.8767857,132.266071 C10.8511905,134.26131 6.68214286,133.016071 2.77619048,130.816071 Z" id="Path"></path>
            <path d="M23.6333333,147.828571 C17.5154762,148.469048 8.84464286,146.527381 8.22916667,141.535714 C7.63928571,136.777381 16.4375,135.02619 19.5946429,134.033333 C27.352381,132.047024 29.1625,137.021429 32.452381,139.392262 C28.7892857,141.528571 28.0291667,147.369048 23.6333333,147.828571 Z" id="Path"></path>
            <path d="M30.4934524,172.179762 C25.9357143,170.052381 26.7690476,161.205357 29.2684524,155.585119 C31.0636905,151.546429 36.8535714,152.627976 40.0178571,149.804762 C41.2565476,153.666071 45.427381,156.924405 41.1416667,163.689286 C39.2202381,166.384524 34.8363095,174.21131 30.4934524,172.179762 Z" id="Path"></path>
            <path d="M39.0029762,180.677976 C38.1178571,176.283929 38.2220238,171.933929 41.6732143,167.770833 C42.4863095,166.789286 43.3744048,165.866071 44.225,164.915476 C44.7458333,166.045238 45.222619,167.196429 45.7928571,168.297024 C46.1214286,168.929762 46.397619,169.558929 46.6244048,170.186905 C47.2916667,170.208929 47.9761905,170.277381 48.6785714,170.394643 C49.9011905,170.596429 51.1440476,170.694643 52.3791667,170.841071 C51.7380952,171.944048 51.135119,173.073214 50.452381,174.150595 C47.5607143,178.718452 43.4553571,180.1625 39.0029762,180.677976 Z" id="Path"></path>
            <path d="M65.8761905,182.181548 C61.3029762,186.295238 53.1470238,189.822024 49.714881,186.144048 C46.4410714,182.641667 52.5297619,176.054167 54.5,173.394048 C59.6089286,167.227381 63.9970238,170.1875 68.052381,170.172024 C66.3440476,174.054167 69.1625,179.226786 65.8761905,182.181548 Z" id="Path"></path>
            <path d="M73.8767857,179.654762 C73.0988095,180 72.425,179.820238 71.8220238,179.394643 C71.0845238,179.384524 70.4333333,179.133929 70.0071429,178.397024 C69.2934524,177.166071 69.3982143,174.878571 70.0761905,173.535119 C71.547619,170.616667 73.6184524,167.998214 75.4464286,165.258929 C75.8535714,164.846429 76.3011905,164.479167 76.7714286,164.16369 C76.9660714,164.695833 77.1125,165.254762 77.1994048,165.828571 C77.0678571,169.119048 77.2041667,172.454762 76.6791667,175.680952 C76.4375,177.166667 75.1779762,179.078571 73.8767857,179.654762 Z" id="Path"></path>
            <path d="M85.739881,197.85 C80.8017857,198.807738 76.2761905,191.16131 74.9946429,185.144643 C74.072619,180.822024 79.3928571,178.293452 80.2928571,174.149405 C83.564881,176.545833 88.8541667,176.730357 89.3630952,184.722619 C89.3934524,188.032738 90.4470238,196.940476 85.739881,197.85 Z" id="Path"></path>
            <path d="M89.9928571,175.054762 C85.1946429,174.96369 81.902381,172.67381 80.8220238,169.957738 C79.5440476,165.402976 81.7244048,163.661905 83.3541667,163.975595 C87.5625,164.791667 90.6875,167.614881 92.1244048,171.8125 C92.6964286,173.481548 92.2690476,175.095833 89.9928571,175.054762 Z" id="Path"></path>
            <path d="M97.6190476,199.723214 C94.3202381,196.68869 91.847619,193.108333 92.1928571,187.711905 C92.2738095,186.439286 92.45,185.170238 92.5791667,183.902381 C93.664881,184.510119 94.727381,185.160714 95.8357143,185.716071 C96.472619,186.034524 97.0666667,186.381548 97.6196429,186.755952 C98.172619,186.381548 98.7660714,186.034524 99.4035714,185.716071 C100.51131,185.160714 101.574405,184.510119 102.659524,183.902381 C102.789286,185.170833 102.965476,186.439881 103.045833,187.711905 C103.390476,193.108333 100.917857,196.689286 97.6190476,199.723214 Z" id="Path"></path>
            <path d="M105.245238,175.054762 C102.969048,175.095833 102.541667,173.481548 103.11369,171.813095 C104.550595,167.615476 107.675595,164.792262 111.883929,163.97619 C113.514286,163.6625 115.694048,165.402976 114.416071,169.958333 C113.335714,172.67381 110.043452,174.963095 105.245238,175.054762 Z" id="Path"></path>
            <path d="M120.243452,185.144643 C118.9625,191.160714 114.436905,198.807738 109.498214,197.85 C104.791071,196.941071 105.844048,188.032738 105.875,184.722619 C106.383929,176.730357 111.67381,176.546429 114.945238,174.149405 C115.845238,178.293452 121.165476,180.822024 120.243452,185.144643 Z" id="Path"></path>
            <path d="M125.230952,178.397619 C124.804762,179.133929 124.153571,179.385119 123.416071,179.395238 C122.813095,179.820833 122.139286,180.000595 121.36131,179.655357 C120.060119,179.078571 118.800595,177.166667 118.558929,175.681548 C118.033929,172.455357 118.170833,169.120238 118.03869,165.829167 C118.125595,165.255357 118.272024,164.696429 118.466667,164.164286 C118.936905,164.479762 119.383929,164.846429 119.791071,165.259524 C121.619048,167.999405 123.689881,170.617262 125.16131,173.535714 C125.839881,174.879167 125.944643,177.166667 125.230952,178.397619 Z" id="Path"></path>
            <path d="M145.523214,186.144643 C142.091071,189.822619 133.935119,186.295833 129.361905,182.182143 C126.075595,179.226786 128.893452,174.054762 127.185714,170.172619 C131.241071,170.188095 135.629167,167.227976 140.738095,173.394643 C142.708333,176.054167 148.797024,182.642262 145.523214,186.144643 Z" id="Path"></path>
            <path d="M156.235119,180.677976 C151.782738,180.1625 147.677976,178.718452 144.785119,174.15 C144.102381,173.072619 143.499405,171.943452 142.858333,170.840476 C144.093452,170.694048 145.33631,170.595833 146.558929,170.394048 C147.26131,170.277381 147.945833,170.208333 148.613095,170.18631 C148.840476,169.558333 149.116667,168.929167 149.445238,168.296429 C150.015476,167.195833 150.492262,166.045238 151.013095,164.914881 C151.86369,165.865476 152.751786,166.788095 153.565476,167.770238 C157.016071,171.933929 157.120238,176.283929 156.235119,180.677976 Z" id="Path"></path>
            <path d="M164.744643,172.179762 C160.401786,174.21131 156.017857,166.385119 154.097024,163.689286 C149.810714,156.924405 153.982143,153.666071 155.220833,149.804762 C158.384524,152.627976 164.175,151.546429 165.969643,155.585119 C168.469048,161.205357 169.302381,170.052381 164.744643,172.179762 Z" id="Path"></path>
            <path d="M187.008929,141.535119 C186.394048,146.527381 177.722619,148.468452 171.604762,147.827976 C167.208929,147.369048 166.44881,141.527976 162.785714,139.391071 C166.075595,137.020238 167.885714,132.045833 175.644048,134.032143 C178.80119,135.02619 187.59881,136.776786 187.008929,141.535119 Z" id="Path"></path>
            <path d="M192.461905,130.816071 C188.555952,133.015476 184.386905,134.260714 179.36131,132.264881 C178.17619,131.795238 177.02381,131.235714 175.857143,130.720238 C176.770833,129.875595 177.717857,129.066667 178.58869,128.183929 C179.088095,127.675595 179.601786,127.219048 180.128571,126.808333 C179.943452,126.167262 179.797024,125.495238 179.691071,124.790476 C179.505357,123.564881 179.214881,122.352976 178.972024,121.132738 C180.218452,121.401786 181.479762,121.62619 182.714881,121.942262 C187.953571,123.282738 190.595238,126.741071 192.461905,130.816071 Z" id="Path"></path>
            <path d="M194.350595,118.939286 C192.031548,123.135119 183.884524,119.380357 180.745833,118.329167 C173.302381,115.375595 174.76131,110.2875 173.493452,106.435714 C177.7125,106.860119 181.76131,102.581548 185.586905,104.794048 C190.91369,107.872024 196.7875,114.539286 194.350595,118.939286 Z" id="Path"></path>
        </g>
    </g>
</svg>