<?xml version="1.0" encoding="UTF-8"?>
<svg width="190px" height="200px" viewBox="0 0 190 200" version="1.1" xmlns="http://www.w3.org/2000/svg" xmlns:xlink="http://www.w3.org/1999/xlink">
    <!-- Generator: Sketch 56.3 (81716) - https://sketch.com -->
    <title>7</title>
    <desc>Created with Sketch.</desc>
    <g id="Page-1" stroke="none" stroke-width="1" fill="none" fill-rule="evenodd">
        <g id="7" fill="#000000" fill-rule="nonzero">
            <path d="M94.627383,20.5545927 C98.6135182,20.5545927 101.17851,19.3760832 102.253033,16.9844021 C104.783362,11.507799 97.4350087,2.49566724 95.9445407,0.727902946 C95.6325823,0.346620451 95.1473137,0.13864818 94.627383,0.13864818 C94.1421144,0.13864818 93.6568458,0.346620451 93.3102253,0.727902946 C91.8197574,2.49566724 84.4714038,11.507799 87.0017331,16.9844021 C88.0762565,19.3414211 90.6412478,20.5545927 94.627383,20.5545927 Z M94.627383,4.61005199 C97.4003466,8.31889081 100.17331,13.3448873 99.1334489,15.5632582 C98.5441941,16.8457539 96.3604853,17.1230503 94.627383,17.1230503 C92.8942808,17.1230503 90.7105719,16.8457539 90.1213172,15.5632582 C89.0814558,13.3448873 91.8197574,8.28422877 94.627383,4.61005199 Z M143.778163,35.7019064 C147.97227,35.7019064 151.369151,32.339688 151.369151,28.1802426 C151.369151,24.0554593 147.97227,20.6585789 143.778163,20.6585789 C139.584055,20.6585789 136.187175,24.0207972 136.187175,28.1802426 C136.187175,32.339688 139.584055,35.7019064 143.778163,35.7019064 Z M143.778163,24.0901213 C146.10052,24.0901213 147.97227,25.9272097 147.97227,28.1802426 C147.97227,30.4332756 146.10052,32.270364 143.778163,32.270364 C141.455806,32.270364 139.584055,30.4332756 139.584055,28.1802426 C139.584055,25.9272097 141.455806,24.0901213 143.778163,24.0901213 Z M178.717504,105.060659 C179.098787,103.639515 179.376083,102.183709 179.549393,100.762565 C179.792028,98.6481802 179.792028,96.5337955 179.584055,94.5233969 C184.818024,92.305026 189.046794,87.4176776 189.081456,80.7279029 C189.15078,79.8613518 189.462738,74.0381282 185.476603,69.6013865 C182.772964,66.5857886 178.717504,64.9566724 173.518198,64.7487002 C173.344887,64.7487002 173.206239,64.7140381 172.998267,64.7140381 C172.963605,64.7140381 172.928943,64.7487002 172.894281,64.7487002 C172.686308,64.7487002 172.512998,64.7140381 172.339688,64.7140381 C171.403813,64.7140381 170.641248,65.4766031 170.641248,66.4124783 C170.641248,67.3483536 171.403813,68.1109185 172.339688,68.1109185 C172.755633,68.1109185 173.136915,68.1455806 173.518198,68.1455806 C176.499133,68.3535529 178.024263,70.2946274 178.024263,74.0034662 C178.024263,75.1126516 178.024263,78.47487 172.270364,78.7521664 C172.235702,78.7521664 172.166378,78.7521664 172.097054,78.7521664 C171.473137,78.1629116 170.5026,78.1282496 169.844021,78.6828423 C168.804159,78.5095321 167.62565,78.0589255 166.481802,77.0190641 C163.882149,74.592721 162.495667,69.7053726 162.495667,62.8769497 L162.495667,40.2079723 C162.495667,39.2720971 161.733102,38.5095321 160.797227,38.5095321 C152.720971,38.5095321 145.892548,38.2322357 140.138648,37.7816291 C121.69844,35.4592721 121.421144,27.1750433 121.282496,22.3916811 L121.282496,22.287695 C121.247834,21.3518198 120.485269,20.5892548 119.514731,20.6239168 C118.578856,20.6585789 117.816291,21.4558059 117.850953,22.3916811 L117.850953,22.4956672 C117.954939,25.7538995 118.12825,30.8145581 122.842288,34.9740035 C112.20104,31.8890815 110.086655,27.1750433 110.086655,22.2530329 C110.086655,13.3102253 115.909879,11.4038128 120.762565,11.4038128 C125.545927,11.4038128 130.67591,15.0086655 130.67591,25.1646447 C130.67591,26.1005199 131.438475,26.8630849 132.37435,26.8630849 C133.310225,26.8630849 134.07279,26.1005199 134.07279,25.1646447 C134.142114,12.4783362 126.932409,7.97227036 120.762565,7.97227036 C111.785095,7.97227036 106.655113,13.1715771 106.655113,22.2530329 C106.655113,24.8180243 107.071057,28.0762565 109.4974,31.1611785 C104.679376,30.1213172 99.6880416,29.5667244 94.592721,29.5667244 C89.4627383,29.5667244 84.4714038,30.1213172 79.6880416,31.1611785 C82.1490468,28.0762565 82.5303293,24.8180243 82.5303293,22.2530329 C82.5303293,13.1715771 77.4003466,7.97227036 68.4228769,7.97227036 C62.2530329,7.97227036 55.0779896,12.4783362 55.0779896,25.1646447 C55.0779896,26.1005199 55.8405546,26.8630849 56.7764298,26.8630849 C57.712305,26.8630849 58.47487,26.1005199 58.47487,25.1646447 C58.47487,15.0086655 63.6048527,11.4038128 68.3882149,11.4038128 C73.2755633,11.4038128 79.0641248,13.2755633 79.0641248,22.2530329 C79.0641248,27.2097054 76.94974,31.9237435 66.3084922,34.9740035 C71.0225303,30.8492201 71.1958406,25.7538995 71.2998267,22.4956672 L71.2998267,22.3916811 C71.3344887,21.4558059 70.5719237,20.6585789 69.6360485,20.6239168 C68.7001733,20.5892548 67.9029463,21.3518198 67.8682842,22.287695 L67.8682842,22.3916811 C67.729636,27.1750433 67.4523397,35.4592721 49.0121317,37.7816291 C43.2582322,38.2668977 36.4298094,38.5095321 28.3535529,38.5095321 C27.4176776,38.5095321 26.6551127,39.2720971 26.6551127,40.2079723 L26.6551127,62.8076256 C26.6551127,69.6360485 25.2686308,74.5580589 22.6689775,76.94974 C21.559792,77.9896014 20.3466205,78.440208 19.3067591,78.6135182 C18.6481802,78.0935875 17.677643,78.0935875 17.0537262,78.6828423 C16.9844021,78.6828423 16.915078,78.6828423 16.8804159,78.6828423 C11.1265165,78.4055459 11.1265165,75.0433276 11.1265165,73.9341421 C11.1265165,70.2253033 12.6516464,68.2842288 15.6325823,68.0762565 C16.0138648,68.0415945 16.3951473,68.0415945 16.8110919,68.0415945 C17.7469671,68.0415945 18.5095321,67.2790295 18.5095321,66.3431542 C18.5095321,65.407279 17.7469671,64.644714 16.8110919,64.644714 C16.6031196,64.644714 16.4298094,64.644714 16.2564991,64.6793761 C16.2218371,64.6793761 16.187175,64.644714 16.152513,64.644714 C15.9792028,64.644714 15.8058925,64.6793761 15.6325823,64.6793761 C10.4332756,64.8873484 6.37781629,66.5164645 3.67417678,69.5320624 C-0.311958406,73.9688042 7.89852875e-06,79.7920277 0.0693240901,80.6585789 C0.103986135,87.3830156 4.36741768,92.2357019 9.56672444,94.4540728 C9.35875217,96.4644714 9.35875217,98.5788562 9.60138648,100.693241 C9.77469671,102.149047 10.0866551,103.570191 10.4332756,104.991334 C4.81802426,107.036395 0.0693240901,112.062392 0.0346620451,119.168111 C-0.0346620451,120.034662 -0.346620451,125.857886 3.63951473,130.294627 C6.34315425,133.310225 10.3986135,134.939341 15.5979203,135.147314 C15.7712305,135.147314 15.9098787,135.181976 16.0831889,135.181976 C16.117851,135.181976 16.152513,135.147314 16.187175,135.147314 C16.3951473,135.147314 16.5684575,135.181976 16.7417678,135.181976 C17.677643,135.181976 18.440208,134.419411 18.440208,133.483536 C18.440208,132.54766 17.677643,131.785095 16.7417678,131.785095 C16.3258232,131.785095 15.9445407,131.750433 15.5632582,131.750433 C12.5823224,131.542461 11.0571924,129.601386 11.0571924,125.892548 C11.0571924,124.783362 11.0571924,121.421144 16.8110919,121.143847 C16.8804159,121.143847 16.94974,121.143847 17.0537262,121.143847 C17.6083189,121.109185 18.7175043,121.039861 19.965338,121.386482 C20.1039861,121.455806 20.2772964,121.52513 20.4506066,121.559792 C21.1438475,121.837088 21.9064125,122.253033 22.5996534,122.911612 C25.1993068,125.337955 26.5857886,130.225303 26.5857886,137.053726 L26.5857886,159.65338 C26.5857886,160.589255 27.3483536,161.35182 28.2842288,161.35182 C36.3604853,161.35182 43.1889081,161.629116 48.9428076,162.079723 C67.3830156,164.40208 67.660312,172.686308 67.7989601,177.469671 L67.7989601,177.573657 C67.8336222,178.509532 68.5961872,179.272097 69.5667244,179.237435 C70.5025997,179.202773 71.2651646,178.405546 71.2305026,177.469671 L71.2305026,177.365685 C71.1265165,174.107452 70.9532062,169.046794 66.2391681,164.887348 C76.8804159,167.97227 78.9948007,172.686308 78.9948007,177.608319 C78.9948007,186.551127 73.1715771,188.457539 68.3188908,188.457539 C63.5355286,188.457539 58.4055459,184.852686 58.4055459,174.696707 C58.4055459,173.760832 57.6429809,172.998267 56.7071057,172.998267 C55.7712305,172.998267 55.0086655,173.760832 55.0086655,174.696707 C55.0086655,187.383016 62.2183709,191.889081 68.3535529,191.889081 C77.3310225,191.889081 82.4610052,186.689775 82.4610052,177.608319 C82.4610052,175.043328 82.0450607,171.750433 79.5840555,168.700173 C84.4020797,169.740035 89.3934142,170.294627 94.4887348,170.294627 C99.6187175,170.294627 104.610052,169.740035 109.393414,168.700173 C106.932409,171.785095 106.516464,175.043328 106.516464,177.608319 C106.516464,186.689775 111.646447,191.889081 120.623917,191.889081 C126.793761,191.889081 133.968804,187.383016 133.968804,174.696707 C133.968804,173.760832 133.206239,172.998267 132.270364,172.998267 C131.334489,172.998267 130.571924,173.760832 130.571924,174.696707 C130.571924,184.852686 125.441941,188.457539 120.658579,188.457539 C115.771231,188.457539 109.982669,186.585789 109.982669,177.608319 C109.982669,172.651646 112.097054,167.937608 122.738302,164.887348 C118.024263,169.012132 117.850953,174.107452 117.746967,177.365685 L117.746967,177.469671 C117.712305,178.405546 118.47487,179.202773 119.410745,179.237435 C120.34662,179.272097 121.143847,178.509532 121.17851,177.573657 L121.17851,177.469671 C121.317158,172.686308 121.594454,164.40208 140.034662,162.079723 C145.788562,161.594454 152.616984,161.35182 160.693241,161.35182 C161.629116,161.35182 162.391681,160.589255 162.391681,159.65338 L162.391681,137.053726 C162.391681,130.225303 163.778163,125.303293 166.377816,122.911612 C167.071057,122.253033 167.833622,121.837088 168.526863,121.559792 C168.700173,121.52513 168.838821,121.490468 169.012132,121.386482 C170.259965,121.005199 171.369151,121.074523 171.923744,121.143847 C172.02773,121.143847 172.097054,121.143847 172.166378,121.143847 C177.920277,121.421144 177.920277,124.783362 177.920277,125.892548 C177.920277,129.601386 176.395147,131.542461 173.414211,131.750433 C173.032929,131.785095 172.651646,131.785095 172.235702,131.785095 C171.299827,131.785095 170.537262,132.54766 170.537262,133.483536 C170.537262,134.419411 171.299827,135.181976 172.235702,135.181976 C172.443674,135.181976 172.616984,135.181976 172.790295,135.147314 C172.824957,135.147314 172.859619,135.181976 172.894281,135.181976 C173.067591,135.181976 173.240901,135.147314 173.379549,135.147314 C178.578856,134.939341 182.634315,133.310225 185.337955,130.294627 C189.32409,125.857886 189.012132,120.034662 188.942808,119.168111 C189.081456,112.131716 184.332756,107.105719 178.717504,105.060659 Z M181.490468,74.0034662 C181.490468,72.5823224 181.282496,71.2998267 180.935875,70.1906412 C181.69844,70.6759099 182.357019,71.2305026 182.946274,71.8544194 C186.169844,75.389948 185.719237,80.4159445 185.719237,80.4506066 C185.719237,80.5199307 185.719237,80.5545927 185.719237,80.6239168 C185.719237,85.5459272 182.772964,89.1854419 179.029463,91.0225303 C178.232236,87.694974 176.811092,84.610052 174.766031,81.8370884 C179.064125,81.0051993 181.490468,78.2322357 181.490468,74.0034662 Z M164.783362,94.4540728 C167.244367,95.389948 170.017331,95.8752166 173.171577,95.8752166 C174.176776,95.8752166 175.181976,95.7712305 176.187175,95.5632582 C176.395147,98.440208 176.083189,101.386482 175.355286,104.228769 C174.627383,104.124783 173.89948,104.055459 173.171577,104.055459 C170.017331,104.055459 167.244367,104.540728 164.783362,105.476603 C164.92201,103.639515 165.025997,101.802426 165.025997,99.965338 C165.025997,98.1282496 164.956672,96.2911612 164.783362,94.4540728 Z M139.792028,41.1785095 C143.084922,41.5944541 146.863085,41.8370884 151.230503,41.8370884 C151.265165,41.8370884 151.299827,41.8024263 151.369151,41.8024263 C153.830156,41.8717504 156.429809,41.9064125 159.133449,41.9410745 L159.133449,62.8422877 C159.133449,70.779896 160.831889,76.3951473 164.194107,79.5147314 C165.961872,81.1438475 168.110919,82.0103986 170.571924,82.1490468 C173.275563,85.1646447 174.939341,88.5961872 175.701906,92.1663778 C174.870017,92.339688 174.003466,92.4436742 173.171577,92.4436742 C169.670711,92.4436742 166.759099,91.7850953 164.367418,90.5025997 C163.084922,80.9358752 159.861352,71.9584055 155.112652,63.9861352 C155.07799,61.4904679 155.07799,58.9948007 155.07799,56.4991334 C155.07799,55.7019064 155.07799,54.9046794 155.07799,54.1074523 C155.07799,53.1715771 154.315425,52.4090121 153.379549,52.4090121 C152.443674,52.4090121 151.681109,53.1715771 151.681109,54.1074523 C151.681109,54.9046794 151.681109,55.6672444 151.681109,56.4644714 C151.681109,57.2270364 151.681109,57.9549393 151.681109,58.7175043 C146.343154,51.3691508 139.65338,45.0953206 131.958406,40.2772964 C134.350087,40.6239168 136.94974,40.9358752 139.792028,41.1785095 Z M18.6481802,82.1490468 C21.1091854,82.0103986 23.2928943,81.1438475 25.0259965,79.5147314 C28.3882149,76.3951473 30.0866551,70.779896 30.0866551,62.8422877 L30.0866551,41.9410745 C32.7902946,41.9410745 35.389948,41.8717504 37.8509532,41.8024263 C37.8856153,41.8024263 37.9202773,41.8370884 37.9896014,41.8370884 C42.3570191,41.8370884 46.135182,41.5944541 49.4280763,41.1785095 C52.2357019,40.9358752 54.8700173,40.6239168 57.2963605,40.2772964 C49.6013865,45.0953206 42.8769497,51.3691508 37.5736568,58.7175043 C37.5736568,57.9549393 37.5736568,57.2270364 37.5736568,56.4644714 C37.5736568,55.6672444 37.5736568,54.8700173 37.5736568,54.1074523 C37.5736568,53.1715771 36.8110919,52.4090121 35.8752166,52.4090121 C34.9393414,52.4090121 34.1767764,53.1715771 34.1767764,54.1074523 C34.1767764,54.9046794 34.1767764,55.7019064 34.1767764,56.4991334 C34.1767764,58.9948007 34.1767764,61.52513 34.1421144,63.9861352 C29.3934142,71.9584055 26.169844,80.9358752 24.8873484,90.5025997 C22.4956672,91.7850953 19.5840555,92.4436742 16.0831889,92.4436742 C15.2512998,92.4436742 14.3847487,92.339688 13.5528596,92.1663778 C14.2807626,88.5961872 15.9445407,85.1646447 18.6481802,82.1490468 Z M24.4020797,105.511265 C21.9410745,104.57539 19.1681109,104.090121 16.0138648,104.090121 C15.2859619,104.090121 14.5580589,104.159445 13.830156,104.263432 C13.102253,101.421144 12.7902946,98.47487 12.9982669,95.5979203 C14.0034662,95.8058925 15.0086655,95.9098787 16.0138648,95.9098787 C19.1681109,95.9098787 21.9410745,95.4246101 24.4020797,94.4887348 C24.2634315,96.3258232 24.1594454,98.1629116 24.1594454,100 C24.1941075,101.837088 24.2634315,103.674177 24.4020797,105.511265 Z M10.2253033,91.0571924 C6.48180243,89.1854419 3.5355286,85.5459272 3.5355286,80.6585789 C3.5355286,80.5892548 3.5355286,80.5545927 3.5355286,80.4852686 C3.5355286,80.4506066 3.05025997,75.4939341 6.27383016,71.8890815 C6.86308492,71.2305026 7.52166378,70.6759099 8.28422877,70.1906412 C7.93760832,71.2998267 7.72963605,72.5823224 7.72963605,74.0034662 C7.72963605,78.2322357 10.1559792,81.0051993 14.4887348,81.8717504 C12.4436742,84.644714 10.9878683,87.729636 10.2253033,91.0571924 Z M7.72963605,125.961872 C7.72963605,127.383016 7.93760832,128.665511 8.28422877,129.774697 C7.52166378,129.289428 6.86308492,128.734835 6.27383016,128.110919 C3.05025997,124.57539 3.50086655,119.549393 3.50086655,119.514731 C3.50086655,119.445407 3.50086655,119.410745 3.50086655,119.341421 C3.50086655,113.89948 7.14038128,109.982669 11.4731369,108.353553 C12.7209705,111.715771 14.4887348,114.939341 16.7071057,117.816291 C10.9878683,118.058925 7.72963605,121.039861 7.72963605,125.961872 Z M49.4280763,158.786828 C46.135182,158.370884 42.3570191,158.12825 37.9896014,158.12825 C37.9549393,158.12825 37.9202773,158.162912 37.8509532,158.162912 C35.389948,158.093588 32.7902946,158.058925 30.0866551,158.024263 L30.0866551,137.12305 C30.0866551,129.185442 28.3882149,123.570191 25.0259965,120.450607 C24.0554593,119.549393 22.9462738,118.856153 21.7331023,118.405546 C18.7868284,115.355286 16.3951473,111.611785 14.8700173,107.556326 C15.2512998,107.521664 15.6325823,107.487002 16.0138648,107.487002 C19.5147314,107.487002 22.4263432,108.145581 24.8180243,109.428076 C26.1005199,118.994801 29.3240901,127.97227 34.0727903,135.944541 C34.1074523,138.440208 34.1074523,140.935875 34.1074523,143.431542 C34.1074523,144.228769 34.1074523,145.025997 34.1074523,145.823224 C34.1074523,146.759099 34.8700173,147.521664 35.8058925,147.521664 C36.7417678,147.521664 37.5043328,146.759099 37.5043328,145.823224 C37.5043328,145.025997 37.5043328,144.263432 37.5043328,143.466205 C37.5043328,142.70364 37.5043328,141.975737 37.5043328,141.213172 C42.8422877,148.561525 49.5320624,154.835355 57.2270364,159.65338 C54.8700173,159.306759 52.270364,159.029463 49.4280763,158.786828 Z M94.592721,165.857886 C58.2668977,165.857886 28.7001733,136.291161 28.7001733,99.965338 C28.7001733,63.6395147 58.2668977,34.0727903 94.592721,34.0727903 C130.918544,34.0727903 160.485299,63.6395147 160.485299,99.965338 C160.519931,136.325823 130.953206,165.857886 94.592721,165.857886 Z M167.45234,118.405546 C166.239168,118.856153 165.129983,119.549393 164.159445,120.450607 C160.797227,123.570191 159.098787,129.185442 159.098787,137.12305 L159.098787,158.024263 C156.395147,158.024263 153.795494,158.093588 151.334489,158.162912 C151.299827,158.162912 151.265165,158.12825 151.195841,158.12825 C146.828423,158.12825 143.05026,158.370884 139.757366,158.786828 C136.94974,159.029463 134.315425,159.341421 131.889081,159.688042 C139.584055,154.870017 146.308492,148.596187 151.611785,141.247834 C151.611785,142.010399 151.611785,142.738302 151.611785,143.500867 C151.611785,144.298094 151.611785,145.095321 151.611785,145.857886 C151.611785,146.793761 152.37435,147.556326 153.310225,147.556326 C154.246101,147.556326 155.008666,146.793761 155.008666,145.857886 C155.008666,145.060659 155.008666,144.263432 155.008666,143.466205 C155.008666,140.970537 155.008666,138.440208 155.043328,135.979203 C159.792028,128.006932 163.015598,119.029463 164.298094,109.462738 C166.689775,108.180243 169.601386,107.521664 173.102253,107.521664 C173.483536,107.521664 173.864818,107.556326 174.246101,107.590988 C172.790295,111.611785 170.433276,115.355286 167.45234,118.405546 Z M182.980936,128.076256 C182.391681,128.734835 181.733102,129.289428 180.970537,129.774697 C181.317158,128.630849 181.52513,127.383016 181.52513,125.961872 C181.52513,121.039861 178.232236,118.058925 172.512998,117.781629 C174.731369,114.904679 176.499133,111.715771 177.746967,108.318891 C182.079723,109.948007 185.719237,113.830156 185.719237,119.306759 C185.719237,119.376083 185.719237,119.410745 185.719237,119.480069 C185.719237,119.549393 186.204506,124.506066 182.980936,128.076256 Z M45.4419411,35.7019064 C49.6360485,35.7019064 53.0329289,32.339688 53.0329289,28.1802426 C53.0329289,24.0554593 49.6360485,20.6585789 45.4419411,20.6585789 C41.2478336,20.6585789 37.8509532,24.0207972 37.8509532,28.1802426 C37.8162912,32.339688 41.2478336,35.7019064 45.4419411,35.7019064 Z M45.4419411,24.0901213 C47.7642981,24.0901213 49.6360485,25.9272097 49.6360485,28.1802426 C49.6360485,30.4332756 47.7642981,32.270364 45.4419411,32.270364 C43.1195841,32.270364 41.2478336,30.4332756 41.2478336,28.1802426 C41.2131716,25.9272097 43.1195841,24.0901213 45.4419411,24.0901213 Z M143.778163,166.759099 C139.584055,166.759099 136.187175,170.121317 136.187175,174.280763 C136.187175,178.405546 139.584055,181.802426 143.778163,181.802426 C147.97227,181.802426 151.369151,178.440208 151.369151,174.280763 C151.403813,170.121317 147.97227,166.759099 143.778163,166.759099 Z M143.778163,178.370884 C141.455806,178.370884 139.584055,176.533795 139.584055,174.280763 C139.584055,172.02773 141.455806,170.190641 143.778163,170.190641 C146.10052,170.190641 147.97227,172.02773 147.97227,174.280763 C148.006932,176.533795 146.10052,178.370884 143.778163,178.370884 Z M45.4419411,166.759099 C41.2478336,166.759099 37.8509532,170.121317 37.8509532,174.280763 C37.8509532,178.405546 41.2478336,181.802426 45.4419411,181.802426 C49.6360485,181.802426 53.0329289,178.440208 53.0329289,174.280763 C53.0329289,170.121317 49.6360485,166.759099 45.4419411,166.759099 Z M45.4419411,178.370884 C43.1195841,178.370884 41.2478336,176.533795 41.2478336,174.280763 C41.2478336,172.02773 43.1195841,170.190641 45.4419411,170.190641 C47.7642981,170.190641 49.6360485,172.02773 49.6360485,174.280763 C49.6360485,176.533795 47.729636,178.370884 45.4419411,178.370884 Z M94.592721,179.410745 C90.6065858,179.410745 88.0415945,180.589255 86.9670711,182.980936 C84.4367418,188.457539 91.7850953,197.469671 93.2755633,199.237435 C93.5875217,199.618718 94.0727903,199.82669 94.592721,199.82669 C95.0779896,199.82669 95.5632582,199.618718 95.9098787,199.237435 C97.4003466,197.469671 104.7487,188.457539 102.218371,182.980936 C101.143847,180.589255 98.5788562,179.410745 94.592721,179.410745 Z M94.592721,195.355286 C91.8197574,191.646447 89.0467938,186.620451 90.0866551,184.40208 C90.6759099,183.119584 92.8596187,182.842288 94.592721,182.842288 C96.3258232,182.842288 98.5095321,183.119584 99.0987868,184.40208 C100.138648,186.620451 97.4003466,191.646447 94.592721,195.355286 Z" id="Shape"></path>
        </g>
    </g>
</svg>