<?xml version="1.0" encoding="UTF-8"?>
<svg width="201px" height="200px" viewBox="0 0 201 200" version="1.1" xmlns="http://www.w3.org/2000/svg" xmlns:xlink="http://www.w3.org/1999/xlink">
    <!-- Generator: Sketch 56.3 (81716) - https://sketch.com -->
    <title>4</title>
    <desc>Created with Sketch.</desc>
    <g id="Page-1" stroke="none" stroke-width="1" fill="none" fill-rule="evenodd">
        <g id="4" fill="#000000" fill-rule="nonzero">
            <path d="M190.225303,21.4211438 C178.266898,5.89254766 158.786828,-2.42634315 139.341421,0.866551127 C119.82669,4.19410745 102.079723,18.4055459 94.627383,36.8110919 C89.220104,22.8076256 74.3500867,12.9289428 59.7920277,10.9532062 C41.3864818,8.45753899 23.4315425,18.0935875 12.4783362,32.5129983 C-0.173310225,49.1854419 -2.39168111,71.7157712 2.73830156,91.5771231 C8.35355286,113.448873 22.5996534,132.824957 35.5979203,150.84922 C48.5961872,168.908146 64.4020797,189.636049 85.8925477,197.712305 C85.9618718,197.746967 86.0311958,197.746967 86.1005199,197.746967 C86.6897747,199.445407 89.0467938,200.623917 90.8145581,199.064125 C110.987868,181.35182 129.740035,162.010399 147.105719,141.52513 C163.39688,122.322357 180.415945,101.767764 192.305026,79.4454073 C202.426343,60.4159445 203.847487,39.1681109 190.225303,21.4211438 Z M188.353553,28.9774697 C188.388215,28.9428076 188.388215,28.9428076 188.422877,28.9081456 C190.745234,32.7209705 192.339688,36.6031196 193.275563,40.5199307 C186.759099,41.3864818 181.941075,33.6568458 188.353553,28.9774697 Z M175.805893,18.8908146 C176.741768,18.47487 177.642981,17.9549393 178.47487,17.3310225 C181.317158,19.7573657 183.916811,22.5303293 186.169844,25.6152513 C183.188908,26.3084922 180.034662,26.5164645 177.642981,24.2634315 C176.083189,22.8076256 175.493934,20.797227 175.805893,18.8908146 Z M162.149047,8.31889081 C162.149047,8.28422877 162.149047,8.24956672 162.149047,8.21490468 C166.759099,9.70537262 171.126516,11.9237435 175.07799,14.7660312 C174.835355,14.9740035 174.592721,15.1819757 174.350087,15.4246101 C173.55286,15.8752166 172.686308,16.2218371 171.785095,16.4298094 C166.793761,17.5736568 160.831889,14.3500867 162.149047,8.31889081 Z M158.232236,7.14038128 C155.043328,13.8994801 147.348354,14.1421144 143.604853,8.90814558 C143.570191,7.97227036 143.362218,7.03639515 142.980936,6.16984402 C148.145581,5.58058925 153.275563,5.96187175 158.232236,7.14038128 Z M136.395147,7.31369151 C137.29636,7.07105719 138.197574,6.89774697 139.098787,6.72443674 C139.722704,10.4679376 139.168111,14.627383 135.043328,16.187175 C132.478336,17.1577123 129.740035,16.2564991 127.764298,14.4887348 C127.694974,13.2755633 127.383016,12.0277296 126.793761,10.779896 C129.844021,9.35875217 133.032929,8.18024263 136.395147,7.31369151 Z M123.362218,12.5476603 C124.956672,18.5441941 119.896014,24.4714038 113.275563,21.3864818 C112.478336,21.0051993 111.715771,21.2131716 111.161179,21.6637782 C114.835355,18.1282496 118.890815,15.0433276 123.362218,12.5476603 Z M111.091854,21.7331023 C110.259965,22.4956672 110.051993,23.9514731 111.369151,24.644714 C115.043328,26.5511265 115.979203,31.8544194 112.963605,34.9046794 C110.571924,37.3310225 107.175043,37.2963605 104.228769,36.2218371 C103.743501,34.9393414 102.980936,33.6915078 101.975737,32.5823224 C104.679376,28.6308492 107.729636,24.9913345 111.091854,21.7331023 Z M88.2149047,37.3310225 C89.2894281,39.3067591 90.2253033,41.3864818 91.0225303,43.5355286 C91.507799,44.9566724 92.6863085,45.4766031 93.7954939,45.372617 C94.2461005,45.4419411 94.6620451,45.3379549 95.0086655,44.9566724 C95.7712305,44.5060659 96.2911612,43.6741768 96.2218371,42.5649913 C97.2616984,40.4159445 98.3708839,38.3015598 99.6187175,36.2564991 C100.693241,38.4055459 101.35182,40.5545927 100.831889,43.2582322 C100.103986,46.932409 97.1230503,49.6013865 93.4142114,50.017331 C86.932409,50.779896 83.5355286,43.7435009 86.3431542,38.9601386 C87.0710572,38.5788562 87.7642981,38.0242634 88.2149047,37.3310225 Z M77.3656846,24.5060659 C80.8318891,27.2097054 83.847487,30.5025997 86.3431542,34.2461005 C84.7833622,35.0433276 83.6048527,36.3604853 81.7331023,36.6724437 C79.4454073,37.0537262 76.94974,36.3951473 75.4592721,34.592721 C73.9688042,32.7556326 73.830156,30.0866551 74.592721,27.694974 C75.8752166,26.897747 76.8804159,25.8232236 77.3656846,24.5060659 Z M62.7729636,17.4003466 C66.8284229,18.4055459 70.6759099,20.0693241 74.2114385,22.287695 C73.2409012,23.3968804 72.5129983,24.5753899 70.9878683,25.2339688 C69.2894281,25.9965338 67.2443674,26.135182 65.5459272,25.2686308 C63.5008666,24.2287695 62.322357,22.0103986 62.0103986,19.6533795 C62.322357,18.9254766 62.5996534,18.1629116 62.7729636,17.4003466 Z M44.0207972,17.5389948 C48.9774697,16.2911612 53.864818,16.0138648 58.5788562,16.6031196 C57.3656846,18.8908146 56.4298094,21.2478336 53.9688042,22.8422877 C49.4280763,25.8232236 42.5303293,23.847487 42.8076256,17.8856153 C43.1889081,17.7469671 43.6048527,17.6429809 44.0207972,17.5389948 Z M38.3015598,19.4107452 C39.202773,22.5303293 38.5441941,25.9618718 35.7712305,28.0069324 C33.2409012,29.8786828 30.1906412,29.6360485 27.5216638,28.4228769 C27.0363951,27.8336222 26.5164645,27.2443674 25.8925477,26.7590988 C29.6707106,23.7435009 33.830156,21.2478336 38.3015598,19.4107452 Z M23.3275563,29.0467938 C23.4315425,29.1161179 23.5008666,29.1854419 23.6048527,29.2894281 C23.6048527,29.2894281 23.6048527,29.3240901 23.6048527,29.3240901 C23.9861352,29.8093588 24.4367418,30.2253033 24.8873484,30.6065858 C29.6707106,36.7071057 21.52513,45.8232236 14.592721,39.6880416 C17.0537262,35.7365685 20,32.1663778 23.3275563,29.0467938 Z M8.31889081,53.6915078 C9.39341421,49.9480069 10.8838821,46.3431542 12.7209705,42.9116118 C14.6967071,45.1993068 16.6724437,48.0762565 16.4991334,51.1958406 C16.2911612,55.2166378 12.4436742,59.3067591 7.97227036,57.0190641 C7.79896014,56.94974 7.62564991,56.915078 7.48700173,56.8804159 C7.72963605,55.8405546 8.00693241,54.7660312 8.31889081,53.6915078 Z M7.07105719,58.9254766 C7.90294627,59.4800693 8.80415945,59.8613518 9.74003466,60.034662 C8.87348354,59.8266898 7.93760832,59.7227036 6.93240901,59.7573657 C6.96707106,59.4800693 7.03639515,59.202773 7.07105719,58.9254766 Z M6.41247834,63.1195841 C9.39341421,63.9514731 12.6863085,65.4419411 13.5181976,68.8388215 C14.5580589,73.1369151 11.0918544,76.8804159 7.27902946,77.8509532 C6.86308492,77.9549393 6.55112652,78.1975737 6.3084922,78.47487 C5.75389948,73.3795494 5.75389948,68.2495667 6.41247834,63.1195841 Z M6.65511265,81.2478336 C6.93240901,81.4558059 7.31369151,81.5944541 7.76429809,81.559792 C12.0970537,81.2131716 14.7313692,83.3622184 14.7313692,87.729636 C14.7313692,91.1265165 12.9636049,93.4488735 9.67071057,94.4194107 C8.31889081,90.0866551 7.27902946,85.6845754 6.65511265,81.2478336 Z M11.0918544,98.5441941 C12.3743501,98.4055459 13.6568458,98.1282496 14.9740035,98.3362218 C17.0190641,98.6828423 19.1681109,99.6880416 20.3812825,101.421144 C22.7383016,104.783362 20.762565,110.329289 16.6377816,110.918544 C14.5233969,106.897747 12.6516464,102.772964 11.0918544,98.5441941 Z M26.5164645,127.833622 C23.9514731,123.812825 21.52513,119.722704 19.202773,115.632582 C22.6689775,114.211438 25.9618718,112.616984 29.5667244,115.216638 C33.9341421,118.370884 32.6516464,125.407279 27.5909879,127.105719 C27.1057192,127.279029 26.7590988,127.521664 26.5164645,127.833622 Z M36.2911612,140.935875 C36.0138648,141.143847 35.8752166,141.421144 35.8058925,141.69844 C33.3102253,138.197574 30.8838821,134.627383 28.5615251,131.02253 C28.5961872,131.02253 28.6308492,131.02253 28.7001733,131.02253 C30.9532062,130.710572 33.5528596,130.190641 35.7019064,131.161179 C38.1975737,131.126516 38.9948007,132.54766 38.0935875,135.42461 C39.4454073,138.093588 38.8561525,139.930676 36.2911612,140.935875 Z M45.8578856,155.216638 C43.3275563,151.958406 40.8665511,148.630849 38.4055459,145.268631 C41.1091854,143.362218 44.5060659,141.975737 47.3830156,144.679376 C50.4332756,147.556326 49.1854419,152.235702 46.3431542,154.592721 C46.135182,154.800693 45.9618718,155.008666 45.8578856,155.216638 Z M58.3362218,167.764298 C57.0537262,168.561525 58.0589255,170.225303 59.3414211,169.878683 C59.1681109,170.051993 58.9948007,170.225303 58.8561525,170.398614 C55.4246101,166.828423 52.0970537,163.119584 48.9428076,159.133449 C48.5961872,158.717504 48.2842288,158.30156 47.9376083,157.850953 C48.3535529,157.850953 48.8041594,157.712305 49.1854419,157.400347 C52.5823224,154.731369 58.1975737,154.488735 60.5892548,158.544194 C62.4956672,161.802426 61.4904679,165.753899 58.3362218,167.764298 Z M70.4332756,180.727903 C70.2946274,180.901213 70.1559792,181.074523 70.0866551,181.247834 C67.2097054,178.682842 64.4020797,176.048527 61.6984402,173.344887 C61.7331023,173.310225 61.7677643,173.275563 61.7677643,173.240901 C66.7244367,166.169844 76.6377816,174.419411 70.4332756,180.727903 Z M85.9618718,193.587522 C85.7192374,194.003466 85.7538995,194.454073 85.9618718,194.800693 C81.559792,191.161179 77.2616984,187.556326 73.067591,183.882149 C76.5337955,181.663778 81.6637782,180.519931 85.0606586,183.743501 C87.7989601,186.377816 87.8682842,190.5026 85.9618718,193.587522 Z M88.0415945,181.767764 C88.0415945,181.767764 88.0069324,181.733102 88.0069324,181.69844 C84.9913345,178.12825 80.5199307,177.29636 76.2911612,178.197574 C77.0883882,174.627383 76.152513,170.745234 72.9636049,168.318891 C69.8440208,165.92721 65.9965338,165.892548 62.7383016,167.417678 C65.372617,164.228769 65.7192374,159.306759 63.2582322,155.736568 C60.762565,152.131716 56.6724437,151.126516 52.7902946,151.785095 C53.7261698,148.145581 52.8249567,144.090121 49.7746967,141.52513 C47.7642981,139.82669 44.7833622,139.064125 41.9757366,139.306759 C43.4315425,137.504333 44.1247834,135.320624 43.1195841,132.651646 C41.5944541,128.630849 38.0242634,127.279029 34.2114385,126.932409 C36.8110919,123.327556 37.3656846,118.266898 34.5580589,114.280763 C32.1317158,110.814558 26.897747,109.012132 22.4263432,109.740035 C24.2634315,107.45234 25.0259965,104.228769 24.0554593,101.421144 C23.0155979,98.440208 20.3812825,96.2911612 17.4696707,95.2859619 C16.8457539,95.0779896 16.117851,94.9046794 15.3206239,94.7313692 C20.4506066,90.8145581 19.5493934,81.8370884 13.4142114,78.7521664 C19.4107452,73.2062392 18.2322357,61.9757366 9.8440208,60 C12.9636049,60.6239168 16.2218371,59.1681109 18.2322357,56.3951473 C20.8318891,52.7902946 20.2426343,48.7348354 18.440208,45.0953206 C22.0103986,45.6152513 25.7538995,44.5407279 28.1455806,41.3864818 C30.1213172,38.7868284 30.5372617,35.6325823 29.7746967,32.7556326 C32.8249567,33.3102253 36.117851,32.6516464 38.5441941,30.6412478 C40.4506066,29.0814558 41.7331023,26.8284229 42.322357,24.4020797 C43.9514731,26.4818024 46.5164645,27.8682842 49.3934142,27.9029463 C52.8942808,27.9376083 56.8457539,25.9965338 59.5840555,23.084922 C60.3466205,25.372617 61.8717504,27.3136915 64.0554593,28.4228769 C65.7885615,29.3240901 68.3188908,29.5320624 70.745234,29.0814558 C70.2599653,31.8544194 70.8145581,34.8006932 72.6169844,36.9844021 C74.8006932,39.5840555 78.3015598,40.762565 81.6291161,40.4506066 C81.8370884,40.4159445 82.0797227,40.3812825 82.322357,40.3466205 C81.8024263,41.9064125 81.6291161,43.6395147 81.9064125,45.407279 C82.6689775,50.5372617 87.0363951,53.8994801 92.0970537,54.0381282 C100.381282,54.2807626 105.857886,46.3431542 105.025997,39.0641248 C108.942808,40.3466205 113.448873,39.6880416 116.325823,36.3951473 C118.994801,33.3102253 119.168111,28.9774697 117.469671,25.5805893 C122.079723,25.1646447 126.065858,22.0450607 127.383016,17.9202773 C129.670711,19.7573657 132.720971,20.5892548 135.909879,19.7227036 C139.064125,18.8561525 141.802426,15.9792028 143.015598,12.7209705 C147.001733,16.94974 153.89948,17.1923744 158.578856,13.2755633 C160.381282,18.7175043 166.44714,21.0051993 172.235702,19.9306759 C172.062392,21.559792 172.339688,23.2928943 173.171577,24.8873484 C175.043328,28.5268631 178.925477,30.1559792 182.807626,30.1213172 C180.658579,35.1819757 182.772964,41.1785095 187.313692,43.5355286 C183.812825,46.8284229 183.500867,53.0329289 187.209705,56.6031196 C184.228769,57.9549393 181.906412,60.4159445 181.386482,63.9514731 C181.109185,65.8925477 181.490468,68.0762565 182.426343,69.9133449 C179.272097,70.1906412 176.291161,71.9584055 175.043328,75.1473137 C174.07279,77.677643 174.488735,80.3812825 175.771231,82.5649913 C172.582322,83.1542461 169.809359,84.8873484 168.700173,88.4228769 C168.284229,89.7746967 168.284229,91.1265165 168.596187,92.339688 C165.719237,92.5476603 162.87695,94.1074523 161.52513,96.6377816 C160.138648,99.202773 160.415945,102.079723 161.69844,104.436742 C158.12825,104.436742 154.766031,105.511265 152.928943,109.012132 C152.062392,110.641248 151.993068,112.512998 152.512998,114.142114 C151.889081,114.038128 151.230503,114.003466 150.537262,114.107452 C148.249567,114.523397 146.44714,116.187175 145.441941,118.197574 C143.986135,121.109185 144.40208,124.020797 145.684575,126.655113 C142.114385,126.10052 138.47487,127.140381 136.637782,130.814558 C135.563258,132.998267 135.632582,135.805893 136.637782,138.058925 C133.067591,136.568458 129.220104,135.944541 126.412478,138.82149 C123.604853,141.69844 124.540728,145.164645 126.481802,148.110919 C121.213172,146.689775 115.285962,145.788562 113.483536,151.473137 C112.54766,154.419411 113.171577,157.920277 114.904679,160.554593 C112.235702,158.47487 108.942808,157.435009 106.27383,160.450607 C103.500867,163.570191 104.783362,168.180243 107.036395,171.785095 C101.87175,170.225303 95.8405546,168.249567 93.1369151,173.934142 C92.305026,175.667244 92.4436742,177.712305 93.1715771,179.549393 C91.9237435,179.306759 90.6759099,179.410745 89.3934142,180.242634 C88.9081456,180.589255 88.4228769,181.143847 88.0415945,181.767764 Z M89.7053726,192.443674 C90.4332756,190.814558 90.6412478,189.012132 90.3986135,187.244367 C90.8492201,186.932409 91.1265165,186.377816 90.8838821,185.788562 C90.5719237,185.025997 90.1559792,184.644714 90.5025997,183.847487 C90.8838821,183.05026 91.7504333,182.564991 92.5476603,182.461005 C93.5875217,182.322357 94.627383,182.634315 95.6325823,183.05026 C96.3951473,183.708839 97.2616984,184.228769 98.1975737,184.540728 C95.4246101,187.175043 92.5823224,189.809359 89.7053726,192.443674 Z M100.727903,182.114385 C99.202773,181.074523 97.4696707,180.381282 96.6377816,178.578856 C94.8006932,174.766031 99.3760832,173.310225 102.357019,173.934142 C104.159445,174.315425 105.857886,174.974003 107.556326,175.493934 C105.268631,177.746967 103.015598,179.930676 100.727903,182.114385 Z M111.299827,171.785095 C109.670711,169.948007 108.284229,167.590988 108.422877,165.199307 C108.804159,159.306759 114.523397,162.87695 117.12305,165.095321 C117.29636,165.233969 117.504333,165.303293 117.712305,165.268631 C115.59792,167.45234 113.448873,169.636049 111.299827,171.785095 Z M121.213172,161.663778 C118.093588,159.376083 112.720971,151.993068 120.207972,150.710572 C122.599653,150.294627 126.689775,151.785095 129.636049,152.616984 C126.863085,155.667244 124.055459,158.682842 121.213172,161.663778 Z M132.305026,149.705373 C131.369151,148.908146 130.329289,148.076256 129.809359,147.001733 C128.457539,145.823224 128.596187,144.471404 130.294627,142.87695 C130.363951,139.965338 131.611785,138.994801 134.038128,139.965338 C135.875217,140.277296 137.677643,140.935875 139.480069,141.594454 C137.12305,144.332756 134.731369,147.036395 132.305026,149.705373 Z M141.975737,138.682842 C140.069324,137.504333 138.64818,135.701906 139.549393,133.206239 C140.901213,129.393414 145.268631,129.358752 148.353553,131.126516 C146.239168,133.656846 144.090121,136.187175 141.975737,138.682842 Z M150.779896,128.145581 C147.62565,123.986135 145.268631,116.60312 154.003466,117.400347 C154.350087,117.435009 154.627383,117.469671 154.939341,117.504333 C155.909879,118.162912 157.053726,118.544194 158.370884,118.509532 C158.440208,118.509532 158.47487,118.509532 158.544194,118.47487 C155.979203,121.767764 153.379549,124.956672 150.779896,128.145581 Z M160.103986,116.464471 C159.965338,115.701906 159.376083,114.974003 158.370884,114.835355 C155.320624,113.171577 155.181976,111.265165 157.920277,109.185442 C159.064125,108.492201 160.277296,108.145581 161.629116,108.145581 C163.084922,108.076256 164.540728,108.353553 165.996534,108.734835 C164.020797,111.334489 162.079723,113.89948 160.103986,116.464471 Z M168.353553,105.476603 C168.284229,105.476603 168.249567,105.441941 168.180243,105.441941 C165.129983,104.471404 163.084922,101.109185 164.7487,98.0242634 C165.961872,95.7019064 168.214905,95.1126516 170.433276,95.4592721 C171.438475,96.3951473 172.790295,97.0537262 174.280763,97.1923744 C172.339688,99.965338 170.363951,102.738302 168.353553,105.476603 Z M176.533795,93.864818 C176.256499,93.6221837 175.909879,93.4142114 175.493934,93.3795494 C172.37435,89.6013865 172.686308,87.3136915 176.499133,86.4818024 C178.12825,86.169844 179.722704,86.2738302 181.282496,86.6897747 C179.722704,89.0814558 178.12825,91.4731369 176.533795,93.864818 Z M183.362218,83.3275563 C183.154246,83.1542461 182.87695,82.9809359 182.530329,82.9116118 C179.168111,82.287695 177.227036,78.6828423 178.960139,75.5979203 C180.17331,73.4488735 182.253033,72.6516464 184.471404,72.6863085 C185.545927,73.5528596 186.863085,74.0727903 188.388215,74.0381282 C186.932409,77.1923744 185.233969,80.3119584 183.362218,83.3275563 Z M189.428076,71.7157712 C189.428076,71.7157712 189.393414,71.6811092 189.393414,71.6464471 C187.244367,69.5320624 185.233969,68.1109185 185.580589,64.8180243 C186.031196,60.6932409 189.289428,59.1334489 193.171577,59.2720971 C193.240901,59.2720971 193.344887,59.2720971 193.414211,59.237435 C192.582322,63.5008666 191.195841,67.660312 189.428076,71.7157712 Z M193.691508,55.5979203 C186.932409,54.627383 187.036395,47.3136915 191.334489,44.644714 C192.20104,44.644714 193.102253,44.5753899 194.038128,44.3327556 C194.558059,48.1109185 194.523397,51.8890815 194.038128,55.6672444 C193.89948,55.6325823 193.795494,55.5979203 193.691508,55.5979203 Z" id="Shape"></path>
        </g>
    </g>
</svg>