<?xml version="1.0" encoding="UTF-8"?>
<svg width="203px" height="200px" viewBox="0 0 203 200" version="1.1" xmlns="http://www.w3.org/2000/svg" xmlns:xlink="http://www.w3.org/1999/xlink">
    <!-- Generator: Sketch 56.3 (81716) - https://sketch.com -->
    <title>15</title>
    <desc>Created with Sketch.</desc>
    <g id="Page-1" stroke="none" stroke-width="1" fill="none" fill-rule="evenodd">
        <g id="15" fill="#637C55" fill-rule="nonzero">
            <path d="M56.2181548,26.3690476 C56.4197421,26.2565476 56.6098214,26.139881 56.7883929,26.0190476 C56.9720238,25.9053571 57.1455357,25.7892857 57.3092262,25.6678571 C57.6233295,25.4353953 57.9149791,25.1740366 58.1803571,24.8872024 C58.6802422,24.3352949 59.0918445,23.7094587 59.4005952,23.0318452 C59.5095238,22.803869 59.6047619,22.5645833 59.6982143,22.3315476 C59.7916667,22.0985119 59.8806548,21.8654762 59.9660714,21.6279762 C60.1360119,21.1532738 60.2949405,20.6696429 60.4747024,20.1931548 C60.6918715,19.498729 60.9454972,18.8162343 61.2345238,18.1485119 C61.8369048,16.9113095 62.9074405,16.4270833 64.0568452,16.6267857 C65.2170662,16.8202064 66.0773132,17.8089974 66.1083333,18.9848214 C66.1208096,19.5260453 66.0505552,20.0660003 65.9,20.5860119 C65.6768387,21.3868991 65.3240574,22.1458464 64.8556548,22.8327381 C64.4000814,23.5300078 63.8514662,24.1618315 63.225,24.7107143 L62.4866071,25.3571429 C62.5657738,25.4464286 62.6095238,25.5380952 62.6485119,25.5357143 C63.833631,25.4886905 64.9943452,25.4380952 66.153869,25.4223214 L69.6184524,25.4449405 C69.903869,25.447619 70.1839286,25.4380952 70.4705357,25.4479167 L71.3294643,25.4747024 C71.8997024,25.490377 72.465873,25.5002976 73.0279762,25.5044643 C73.5910714,25.5104167 74.1470238,25.5011905 74.7050595,25.4988095 C75.2691468,25.5128968 75.8297619,25.5177579 76.3869048,25.5133929 C77.0276786,25.5080357 77.6613095,25.4857143 78.2883929,25.4422619 C78.6,25.414881 78.9160714,25.4017857 79.2318452,25.3866071 C79.547619,25.3714286 79.8598214,25.3455357 80.1714286,25.3157738 C81.4134674,25.1805419 82.6455581,24.9658157 83.860119,24.6729167 C85.1278515,24.3421817 86.3531353,23.8661096 87.5116071,23.2541667 C88.0951686,22.9431278 88.6543988,22.5884479 89.1845238,22.1931548 C89.4550595,21.9922619 89.7202381,21.7764881 89.9842262,21.5535714 C90.249504,21.3428571 90.5107143,21.1193452 90.7678571,20.8830357 C92.0655552,19.6991885 93.1052512,18.2605134 93.8220238,16.6568452 C94.5403886,15.0355946 94.9094993,13.2813051 94.9053571,11.5080357 C94.9295352,10.446238 94.6618806,9.39816416 94.1315476,8.47797619 C93.8600376,8.01899652 93.528101,7.59857014 93.1446429,7.22797619 C92.9425929,7.03073439 92.7283836,6.84634542 92.5032738,6.67589286 C92.2670913,6.50453238 92.0213575,6.3467381 91.7672619,6.20327381 C91.0123214,5.77520849 90.2152481,5.42613983 89.3886905,5.16160714 C88.9785714,5.03025794 88.5624008,4.91934524 88.1401786,4.82886905 C87.7198021,4.73269764 87.2926482,4.66901759 86.8625,4.63839286 C85.9890741,4.57257181 85.1115882,4.58252966 84.239881,4.66815476 C83.3317775,4.74452664 82.4340862,4.91518772 81.5613095,5.17738095 C80.7871668,5.4059834 80.0291349,5.68597 79.2922619,6.01547619 C78.5730029,6.3256285 77.8853014,6.70436261 77.2386905,7.14642857 C75.9667563,8.0112067 74.8273517,9.05637104 73.85625,10.2491071 C73.4056081,10.8372053 73.0474123,11.4906692 72.7940476,12.1869048 C72.6900741,12.5695302 72.7626746,12.9786039 72.9919643,13.3020833 C73.2943452,13.6934524 73.8604167,13.696131 74.3130952,13.4324405 C74.8392857,13.1133929 75.325,12.7419643 75.8404762,12.408631 C76.6015671,11.8783179 77.3920132,11.3914309 78.2080357,10.9502976 C78.4680709,10.8240559 78.7441362,10.7339367 79.0285714,10.6824405 C79.3178625,10.6371762 79.6101674,10.6138953 79.9029762,10.6127976 C81.0764881,10.6032738 81.9565476,11.1083333 82.3886905,12.1169643 C82.8410714,13.1720238 82.6008929,14.1645833 81.783631,14.9880952 C81.3176123,15.4517094 80.7664507,15.8209695 80.1604167,16.0755952 C79.5649068,16.3464914 78.9333841,16.5299338 78.2854167,16.6202381 C77.766369,16.6985119 77.2395833,16.7574405 76.7080357,16.7934524 C76.4434524,16.8136905 76.1752976,16.8184524 75.9125,16.8342262 C75.6497024,16.85 75.3872024,16.8639881 75.1247024,16.8669643 C73.6491128,16.9205645 72.2063461,16.4233404 71.0770833,15.4720238 C69.980533,14.5186098 69.3207931,13.1588168 69.2505952,11.7074405 C69.1041667,9.6047619 69.9375,7.74672619 71.3794643,5.98541667 C72.2064367,4.9874295 73.1825141,4.12308444 74.2732143,3.42291667 C74.8175595,3.05892857 75.3875,2.71994048 75.9776786,2.40208333 C76.2752976,2.24672619 76.571131,2.08244048 76.8794643,1.94910714 C77.1877976,1.81577381 77.4997024,1.68303571 77.8157738,1.55714286 C79.6405811,0.792139907 81.572377,0.312905144 83.5431548,0.136309524 C84.5086723,0.0521570964 85.4788837,0.03544989 86.4467262,0.0863095238 C87.4207195,0.165778323 88.3867961,0.323025771 89.3357143,0.556547619 C91.8715343,1.09003943 94.1249744,2.53186004 95.6720238,4.61071429 C97.0410714,6.50982143 97.6089286,8.83482143 97.3866071,11.3416667 C97.2126237,13.4922542 96.6577636,15.594797 95.7479167,17.5511905 C95.3091,18.4823354 94.7835654,19.3700844 94.1782738,20.2026786 C93.5632582,21.0681371 92.8788583,21.8821311 92.1318452,22.6366071 C92.0494048,22.7193452 91.9717262,22.8074405 91.896131,22.8970238 C91.8555528,22.9672555 91.8206214,23.0406016 91.7916667,23.116369 C92.4464286,23.1577381 93.0577381,23.1833333 93.664881,23.2375 C93.8496032,23.2539683 94.0331349,23.2744048 94.2154762,23.2988095 C94.3988095,23.3331349 94.5804563,23.3717262 94.7604167,23.4145833 C95.1189839,23.4993587 95.4721063,23.6057029 95.8178571,23.7330357 C96.5174746,23.9873187 97.173925,24.347463 97.7642857,24.8008929 C97.9403464,24.936431 98.108016,25.0825331 98.266369,25.2383929 C98.4241379,25.4002931 98.5701441,25.5732528 98.7032738,25.7559524 C98.9783727,26.1327779 99.191477,26.5511497 99.3345238,26.9952381 C99.6401786,27.9425595 99.5443452,28.7883929 99.1794643,29.3627976 C99.0008938,29.6453409 98.7425992,29.8686301 98.4372024,30.0044643 C98.0993708,30.1614693 97.7237696,30.2188729 97.3544643,30.1699405 C96.7627944,30.0895639 96.1881907,29.9132422 95.6532738,29.6479167 C95.3758929,29.5169643 95.0994048,29.3770833 94.8220238,29.2330357 L93.9925595,28.8386905 C93.4366071,28.5744048 92.8720238,28.3139881 92.2904762,28.0967262 C90.9571922,27.5922046 89.5791115,27.2151233 88.1747024,26.9705357 C87.8409059,26.9174582 87.5013596,26.9109477 87.1657738,26.9511905 C86.8247024,26.9809524 86.4892857,27.064881 86.1517857,27.0964286 L86.1241071,27.3491071 C86.4011905,27.4979167 86.671131,27.6636905 86.95,27.7955357 C88.1801428,28.3548828 89.2644738,29.1907934 90.1184524,30.2380952 C91.0297619,31.422619 91.6363095,32.7494048 91.5535714,34.3955357 C91.497619,35.5309524 91.1071429,36.3354167 90.5449405,36.6901786 C90.2582809,36.8705213 89.9141055,36.9359975 89.58125,36.8735119 C89.388761,36.8390538 89.2023577,36.7765851 89.0279762,36.6880952 C88.8224383,36.5902483 88.6280592,36.4705076 88.4482143,36.3309524 C87.8977701,35.8743471 87.3910209,35.3674982 86.9345238,34.8169643 C86.2178571,34.0044643 85.5309524,33.1270833 84.7839286,32.30625 C84.4915474,31.9821597 84.1794464,31.67642 83.8494048,31.3907738 C83.534125,31.1158408 83.2047085,30.8575528 82.8625,30.6169643 C82.1933439,30.147549 81.477432,29.7486011 80.7261905,29.4264881 C80.3557572,29.262301 79.9747464,29.1231008 79.5857143,29.0098214 C79.2017857,28.902877 78.8105159,28.8135913 78.4119048,28.7419643 C77.5961343,28.5980338 76.7699816,28.520893 75.9416667,28.5113095 C75.6762489,28.5248537 75.4124309,28.5605936 75.1529762,28.6181548 C75.4741627,28.8462857 75.774989,29.1018038 76.0520833,29.3818452 C76.7214286,30.2005952 77.5104167,30.972619 77.9410714,31.9116071 C78.3599481,32.8015839 78.5946073,33.7670476 78.6309524,34.75 C78.6444621,35.1795976 78.6113318,35.6093932 78.5321429,36.0318452 C78.4609416,36.4334066 78.3458672,36.8259369 78.1889881,37.202381 C77.572619,38.6630952 76.3306548,39.5660714 74.6008929,39.7526786 C72.8151786,39.8717262 71.10625,39.3032738 69.6193452,37.5431548 C68.5330357,36.2547619 68.1654762,34.7845238 68.5916667,33.2276786 C68.8474251,32.0268982 70.0077398,31.2439719 71.2169643,31.45625 C72.0586914,31.5805475 72.7751502,32.1337597 73.1083333,32.9166667 C73.522619,33.7761905 73.5125,34.8985119 72.3875,35.1410714 C72.0779944,35.1920938 71.7804362,35.2993157 71.5095238,35.4574405 C70.8654762,35.8761905 70.95625,36.6657738 71.6366071,37.183631 C72.3951132,37.7535202 73.3626727,37.9683165 74.2910714,37.7729167 C74.7404791,37.6787292 75.1681553,37.5008336 75.5517857,37.2485119 C75.9427491,37.0071553 76.2681354,36.6730798 76.4991071,36.2758929 C77.526319,34.452437 76.980612,32.1457788 75.2452381,30.9758929 C74.2256322,30.2484317 73.0781593,29.7194734 71.8627976,29.4166667 C66.6613095,28.3339286 61.0666667,28.0877976 55.489881,29.335119 C55.0360119,29.4339286 54.585119,29.5455357 54.14375,29.677381 C53.7116071,29.8236111 53.2861111,29.9855159 52.8672619,30.1630952 C52.030843,30.5172229 51.223418,30.9362599 50.452381,31.416369 C49.7006266,31.9289132 48.9948902,32.5058903 48.3431548,33.1407738 C48.0145833,33.4594246 47.6988095,33.7933532 47.3958333,34.1425595 C47.0983091,34.5053881 46.8210038,34.8843356 46.5651786,35.2776786 C46.1882701,35.843691 45.8559203,36.4381395 45.571131,37.0556548 C45.433631,37.3570437 45.3115079,37.6611111 45.2047619,37.9678571 C45.1035589,38.2800551 45.0213646,38.5980982 44.958631,38.9202381 C44.6907908,40.2272472 44.7382318,41.5792646 45.0970238,42.8642857 C45.4652757,44.1593625 46.1302849,45.350795 47.0392857,46.3440476 C47.9219665,47.3151422 48.9741612,48.1173234 50.1443452,48.7113095 C51.2864553,49.3072297 52.5204457,49.7073259 53.7949405,49.8949405 C54.4021492,49.9827378 55.0166286,50.0094586 55.6291667,49.9747024 C56.2372255,49.9482171 56.8412146,49.8620896 57.4324405,49.7175595 C58.1126839,49.5491484 58.7665298,49.2879706 59.3755952,48.941369 C59.9559771,48.6489035 60.4861186,48.2659398 60.946131,47.8068452 C61.9067876,46.7920559 62.6132927,45.5640608 63.0077381,44.2235119 C63.3867317,43.0967878 63.4262663,41.8835309 63.1214286,40.7345238 C62.814881,39.6190476 62.2607143,39.0577381 61.1738095,38.825 C60.8975866,38.7653877 60.6159125,38.7346668 60.3333333,38.7333333 C60.0697219,38.741285 59.8077165,38.777403 59.5517857,38.8410714 C59.0383454,38.9736771 58.5498452,39.188778 58.1053571,39.4779762 C57.8434524,39.6434524 57.5904762,39.8235119 57.3383929,40.003869 L56.9595238,40.2738095 C56.8372024,40.3693452 56.7142857,40.4639881 56.5892857,40.5550595 C55.8791667,41.0720238 55.1839286,41.0446429 54.471131,40.5089286 C53.7791459,40.0254138 53.5099089,39.1298869 53.8205357,38.3449405 C53.972152,37.8839278 54.183152,37.4446197 54.4482143,37.0380952 C54.7100971,36.6685563 55.0229155,36.3379025 55.377381,36.0559524 C56.1064786,35.484294 56.9606718,35.093558 57.8699405,34.9157738 C60.4434524,34.4729167 62.6672619,35.3026786 64.4982143,37.3607143 C65.2213652,38.1490172 65.7716391,39.07986 66.1136905,40.0934524 C66.4270667,41.0767757 66.5312826,42.1147787 66.4196429,43.1407738 C66.3300529,44.1507015 66.0683411,45.1378582 65.6458333,46.0595238 C65.4492037,46.4823184 65.2279919,46.8932395 64.9833333,47.2901786 C64.7349616,47.6789806 64.4557919,48.0472258 64.1485119,48.391369 C63.9520325,48.6125429 63.7433754,48.8225911 63.5235119,49.0205357 C63.3178689,49.2272013 63.1014986,49.4229082 62.8752976,49.6068452 C62.4282425,49.9679284 61.942424,50.2781689 61.4267857,50.5318452 C60.9095205,50.786413 60.3757864,51.0060513 59.8291667,51.1892857 C59.2586633,51.3679233 58.6728209,51.4932617 58.0791667,51.5636905 C57.4618258,51.6387419 56.8406306,51.677697 56.21875,51.6803571 C55.5608486,51.6745396 54.9042851,51.6199254 54.2544643,51.5169643 C53.5641324,51.4064792 52.8815847,51.2518969 52.2110119,51.0541667 C51.5101842,50.8536953 50.8240297,50.6050886 50.1574405,50.310119 C47.6276786,49.1877976 45.3779762,47.6333333 43.8904762,45.1535714 C43.4230358,44.3812332 43.0555156,43.5526877 42.7967262,42.6877976 C42.5501512,41.8738816 42.4259759,41.0278239 42.4282425,40.177381 C42.4346894,39.3214406 42.5477634,38.469637 42.764881,37.6416667 C42.9860457,36.7536641 43.3183307,35.8971027 43.753869,35.0922619 C44.2855145,34.0955817 44.9247439,33.160141 45.660119,32.3026786 C46.4375967,31.4736838 47.2916929,30.7200344 48.2110119,30.0517857 C48.8592262,29.5577381 49.5678571,29.1479167 50.2559524,28.7125 C51.3113095,28.0491071 51.953869,27.389881 52.2672619,26.6151786 C52.591369,25.8571429 52.5690476,24.960119 52.2604167,23.7925595 C52.04624,23.1195874 51.8750615,22.4336804 51.7479167,21.7389881 C51.6299356,21.1714392 51.7930738,20.5818365 52.1860119,20.1556548 C52.3796891,19.9717775 52.6170105,19.8402623 52.8755952,19.7735119 C53.1911869,19.7014729 53.5177598,19.6913654 53.8372024,19.74375 C55.3880952,19.9574405 56.272619,20.8815476 56.6440476,22.2752976 C56.8140658,22.9099181 56.8612413,23.5711828 56.7830357,24.2235119 C56.6793243,24.9583261 56.4897339,25.67843 56.2181548,26.3690476 L56.2181548,26.3690476 Z" id="Path"></path>
            <path d="M23.7660714,71.5416667 C23.8312992,71.355488 23.8864388,71.165927 23.93125,70.9738095 C24.0585767,70.1316676 24.3124349,69.3136022 24.6842262,68.5473214 C24.8687545,68.1678036 25.0892053,67.8068303 25.3425595,67.4693452 C25.5939414,67.1232308 25.8645036,66.7914617 26.1529762,66.4755952 C26.2889881,66.3267857 26.4208333,66.1741071 26.5613095,66.0291667 C27.6319228,64.9409607 28.5378176,63.702186 29.2502976,62.3520833 C29.6718092,61.5127736 30.1632268,60.7104367 30.7193452,59.9535714 C30.9891865,59.5740079 31.2681548,59.2034722 31.55625,58.8419643 C31.7002976,58.6612103 31.8464286,58.4826389 31.9946429,58.30625 C32.153373,58.1364087 32.3134921,57.9688492 32.475,57.8035714 C33.1211694,57.1453206 33.8052733,56.5254136 34.5238095,55.9470238 C34.7041667,55.803869 34.8809524,55.660119 35.0699405,55.5255952 C35.2589286,55.3910714 35.4568452,55.2639881 35.6514881,55.1386905 C36.0435516,54.8857143 36.4429563,54.6446429 36.8497024,54.4154762 C37.2529043,54.1860255 37.6718029,53.9853281 38.1032738,53.814881 C38.3169643,53.7315476 38.5343254,53.6578373 38.7553571,53.59375 C38.9840138,53.5321453 39.21605,53.48385 39.4502976,53.4491071 C40.1645833,53.3389881 40.8598214,53.18125 41.5592262,53.0735119 C42.528869,52.922619 43.078869,53.3651786 43.2431548,54.3389881 C43.2598023,54.4341249 43.2712282,54.5301019 43.277381,54.6264881 C43.3785714,56.828869 43.075,58.8776786 42.197619,60.6815476 C41.7211672,61.7871511 40.9633699,62.7486354 39.9997024,63.4702381 C38.9970698,64.2506794 37.8520476,64.8283965 36.6285714,65.171131 C35.6110119,65.5020833 34.5452381,65.7479167 33.4684524,66.027381 C32.7123628,66.2241495 31.9690116,66.4669636 31.2425595,66.7544643 C30.5328027,67.059397 29.8456498,67.4144608 29.1863095,67.8169643 C28.7931687,68.0562614 28.423388,68.3319777 28.0818452,68.6404762 C27.7478915,68.9331641 27.4516661,69.2662802 27.2,69.6321429 C26.699417,70.375896 26.3297038,71.1997735 26.1068452,72.0681548 C26.0296982,72.3767353 26.0109233,72.6970193 26.0514881,73.0125 C26.1369048,73.5547619 26.2934524,74.0839286 26.408631,74.6157738 C26.5872024,75.4386905 25.9782738,76.0184524 25.1223214,75.8157738 C24.7711491,75.7398251 24.4457975,75.5737645 24.1782738,75.3339286 C23.5602479,74.7239075 22.9901104,74.0672046 22.4729167,73.3696429 C22.0779762,72.8318452 21.8279762,72.1863095 21.4571429,71.6181548 C20.79375,70.59375 20.1583333,69.5764881 19.4764881,68.5526786 C18.9723214,67.7901786 18.4151786,67.0556548 17.8738095,66.3044643 C16.8101179,64.8183388 16.0872946,63.1158984 15.7568452,61.3184524 C15.666369,60.8672619 15.5944444,60.4080357 15.5410714,59.9407738 C15.5142857,59.7074405 15.4917659,59.4720238 15.4735119,59.2345238 C15.4571429,58.9982143 15.4550595,58.764881 15.451547,58.527381 C15.4474416,57.551533 15.502404,56.5763229 15.616369,55.6071429 C15.7869007,54.102237 16.1161126,52.6195864 16.5985119,51.1839286 C16.8275243,50.451997 17.0949588,49.7326459 17.3997024,49.028869 C17.7171627,48.3300595 18.0643849,47.6388889 18.441369,46.9553571 C18.8455357,46.2342262 19.2342262,45.5002976 19.6672619,44.7946429 L20.9955357,42.6931548 L21.6693452,41.6455357 C21.89375,41.2958333 22.1193452,40.9467262 22.3651786,40.6127976 L23.8172619,38.5869048 L24.5232143,37.6136905 L24.8782738,37.1279762 L25.2529762,36.6583333 L26.7642857,34.7857143 L27.5261905,33.8529762 L27.908631,33.3875 L28.3095238,32.9386905 L29.9214286,31.147619 C30.321603,30.6968879 30.772168,30.2935562 31.2642857,29.9455357 C32.1068452,29.4116071 32.8431548,29.5866071 33.2354167,30.347619 C33.3935814,30.6522007 33.5034253,30.9795232 33.5610119,31.3178571 C33.7193452,32.3130952 33.9395833,33.3223214 34.1467262,34.3205357 C34.353869,35.31875 34.5544643,36.3116071 34.7089286,37.30625 C34.7952381,37.8618056 34.8598214,38.4098214 34.9026786,38.9502976 C34.9237103,39.221131 34.9395833,39.4901786 34.9502976,39.7574405 C34.9654762,40.0291667 34.9776786,40.3014881 34.9830357,40.571131 C35.0080737,41.6293127 34.9419565,42.6876854 34.7854167,43.7345238 C34.7098214,44.2514881 34.6002976,44.7535714 34.4877976,45.2657738 C34.3790675,45.7816468 34.2469246,46.2928571 34.091369,46.7994048 C33.9358135,47.3059524 33.7555556,47.8071429 33.5505952,48.3029762 C33.347619,48.8008929 33.1068452,49.285119 32.8800595,49.7946429 C32.476892,50.6536056 32.0175636,51.4850694 31.5050595,52.283631 C31.3776786,52.4820437 31.2473214,52.678869 31.1139881,52.8741071 L30.7303571,53.4693452 C30.4706349,53.8645833 30.1994048,54.252877 29.9166667,54.6342262 L28.771131,56.1607143 C28.3985119,56.6758929 28.0455357,57.2044643 27.6809524,57.7270833 L26.6,59.3077381 L26.3321429,59.7056548 L26.0848214,60.114881 L25.5985119,60.9401786 C25.1165675,61.7747024 24.656746,62.6234127 24.2190476,63.4863095 L23.0145833,66.1235119 C22.8562936,66.4667772 22.7557363,66.8338115 22.7169643,67.2098214 C22.6929556,67.5888863 22.7143374,67.9694622 22.7806548,68.3434524 C22.9564847,69.4507009 23.2882517,70.5274656 23.7660714,71.5416667 Z" id="Path"></path>
            <path d="M17.1345238,121.562798 C16.8342262,119.739881 15.9863095,118.545238 14.9547619,117.500298 C14.1955001,116.824752 13.4007186,116.190219 12.5738095,115.599405 C11.9739048,115.188058 11.4041967,114.73432 10.8690476,114.241667 C9.9327381,113.277976 9.75595238,112.116964 10.2946429,111.086905 C10.8352179,110.044723 12.0405162,109.534237 13.1651786,109.871131 C13.6845256,110.030198 14.1778347,110.264319 14.6294643,110.566071 C15.3303153,111.025801 15.95265,111.595278 16.472619,112.252679 C16.7256808,112.573886 16.9538253,112.913964 17.1550595,113.26994 C17.3553571,113.627083 17.5327381,114.002976 17.7154762,114.391071 C17.8482143,114.687202 17.9806548,114.983631 18.1181548,115.290476 C18.2282738,115.243452 18.3279762,115.230952 18.3377976,115.192857 C19.5940476,110.629762 21.2089286,106.374702 22.5764881,102.122321 C22.9166667,100.89881 23.3104167,99.6818452 23.5604167,98.4565476 C23.6934524,97.8440476 23.7779762,97.2285714 23.8708333,96.6113095 C23.9752807,95.9935139 24.0469089,95.3706163 24.0854167,94.7452381 C24.1244728,94.0865591 24.118208,93.4259745 24.0666667,92.7681548 C24.0459751,92.1188757 23.9755305,91.4721389 23.8559524,90.833631 C23.7331402,90.1815331 23.5616281,89.5395565 23.3428571,88.9130952 C23.1350204,88.2635339 22.8873282,87.6274062 22.6011905,87.0083333 C21.8597729,85.4191108 20.8129057,83.991298 19.5202381,82.80625 C18.1923637,81.6238341 16.631729,80.7324049 14.9386905,80.1892857 C12.8151786,79.4830357 10.7571429,79.9324405 8.91607143,81.5497024 C7.64541138,82.7292685 6.62892482,84.1558133 5.92886905,85.7419643 C5.5908706,86.5495216 5.3331799,87.388387 5.15952381,88.2464286 C4.61124989,90.6950921 4.67997535,93.2416157 5.35952381,95.6571429 C5.79720983,97.1316425 6.44900101,98.533896 7.29404762,99.8190476 C7.69436159,100.435107 8.19774453,100.977653 8.78214286,101.422917 C9.11486626,101.639269 9.52658305,101.696419 9.90565476,101.578869 C10.3723214,101.4125 10.5306548,100.87619 10.4464286,100.365774 C10.3372024,99.7681548 10.1157738,99.1934524 9.95357143,98.6005952 C9.6712441,97.7168744 9.44470678,96.8162916 9.27529762,95.9041667 C9.23517859,95.3243459 9.30981729,94.7423056 9.49494048,94.191369 C9.83630952,93.0723214 10.5806548,92.3904762 11.6717262,92.2889881 C12.8127976,92.1824405 13.6875,92.7157738 14.2291667,93.7473214 C14.8791667,94.9642857 14.8738095,96.2636905 14.7002976,97.5752976 C14.5428642,98.621415 14.2930786,99.6515316 13.953869,100.653571 C13.5583932,102.067251 12.6507195,103.283035 11.4077381,104.063988 C10.1580627,104.808858 8.65961943,105.014743 7.25535714,104.634524 C5.22857143,104.123214 3.68392857,102.76131 2.44077381,100.854762 C1.77891915,99.750378 1.2649994,98.5638398 0.912202381,97.3255952 C0.722867348,96.69237 0.571212791,96.0484841 0.458035714,95.3973214 C0.358630952,94.7425595 0.286309524,94.0720238 0.235119048,93.3943452 C0.159649226,92.4023303 0.144542009,91.4066455 0.189880952,90.4127976 C0.274263891,89.4389286 0.42259983,88.471663 0.633928571,87.5172619 C0.738888889,87.0434524 0.860019841,86.5746032 0.997321429,86.1107143 C1.06577381,85.8789683 1.13829365,85.6487103 1.21488095,85.4199405 C1.29404762,85.191369 1.38928571,84.9660714 1.4827381,84.741369 C1.86039804,83.8406412 2.30292943,82.9685092 2.80684524,82.1318452 C3.4873347,80.9594348 4.38012092,79.9239401 5.43958333,79.0782738 C6.37853156,78.3080123 7.45127493,77.7172114 8.60416667,77.3354167 C9.71753173,76.9761434 10.8896753,76.8346778 12.0565476,76.91875 C13.2636429,77.0065199 14.4473976,77.296573 15.5583333,77.7767857 C16.5658776,78.2016139 17.5345162,78.7133681 18.4532738,79.30625 C19.3418603,79.8746293 20.1772975,80.5221005 20.9494048,81.2407738 C21.7057216,81.9458268 22.3947104,82.7198059 23.0074405,83.5526786 C23.3154762,83.9693452 23.5952381,84.3985119 23.8729167,84.8464286 C24.1602183,85.296627 24.4294643,85.7622024 24.6806548,86.2431548 C24.7348214,86.3470238 24.7955357,86.4482143 24.8592262,86.547619 C24.9144868,86.6076652 24.9741784,86.6634769 25.0377976,86.7145833 C25.2758929,86.1041667 25.4702381,85.5267857 25.71875,84.9681548 C26.3675595,83.616369 27.1910714,82.408631 28.4681548,81.5517857 C29.2284884,81.0308437 30.1265828,80.7478129 31.0482143,80.7386905 C32.0401786,80.7386905 32.8169643,81.091369 33.25625,81.6154762 C33.4737998,81.869808 33.6087527,82.1843519 33.6431548,82.5172619 C33.6652565,82.8852134 33.5972162,83.2529989 33.4449405,83.5886905 C33.19394,84.1264832 32.8559735,84.6192044 32.4446429,85.0470238 C32.0342262,85.4955357 31.5761905,85.9267857 31.1449405,86.372619 C30.7282738,86.8214286 30.3116071,87.2791667 29.9324405,87.7669643 C29.4979167,88.325 29.0738095,88.9011905 28.6654762,89.4931548 C28.289881,90.0915675 27.9348214,90.7066468 27.6002976,91.3383929 C27.2901786,91.9309524 27.2318452,92.6407738 27.0818452,93.3026786 L27.314881,93.4068452 C27.533631,93.1877976 27.7910714,92.9833333 28.0116071,92.7589286 C28.9580357,91.8035714 29.978869,90.9610119 31.2934524,90.4889881 C32.68125,89.98125 34.1776786,89.8196429 35.6952381,90.3997024 C36.7369048,90.797619 37.4056548,91.4205357 37.5723214,92.066369 C37.7443452,92.7139881 37.4357143,93.3925595 36.5821429,93.9544643 C35.9783503,94.3365842 35.3419419,94.6645486 34.6803571,94.9345238 C33.6928571,95.3690476 32.6520833,95.7547619 31.6473214,96.2142857 C31.2393849,96.4015873 30.8482143,96.6043651 30.4738095,96.822619 C30.2875,96.9318452 30.1017857,97.0446429 29.9261905,97.1619048 C29.7505952,97.2791667 29.5866071,97.4 29.4232143,97.5252976 C28.7751203,98.0189774 28.1804191,98.5790658 27.6488095,99.1964286 C27.3847222,99.5029762 27.1357143,99.8229167 26.9017857,100.15625 C26.6630199,100.485605 26.4484684,100.831851 26.2598214,101.192262 C25.8813245,101.925533 25.5635931,102.688605 25.3098214,103.47381 C25.2428571,103.679167 25.2220238,103.896429 25.1494048,104.259226 C25.4735061,104.024596 25.8164384,103.817145 26.1747024,103.638988 C27.1553571,103.255357 28.1258929,102.743452 29.1508929,102.623214 C31.283631,102.375298 33.1014881,102.995536 34.2422619,104.032738 C34.5232321,104.292433 34.7768395,104.580247 34.9991071,104.891667 C35.2129728,105.198951 35.3810019,105.535711 35.4979167,105.891369 C35.6159264,106.254871 35.6779455,106.634211 35.6818452,107.016369 C35.6842102,107.218673 35.6719761,107.420885 35.6452381,107.621429 C35.6178571,107.827679 35.5973214,108.035714 35.5491071,108.249702 C35.3680955,109.122053 34.9632725,109.932315 34.3744048,110.600893 C34.0559113,110.959884 33.694926,111.278794 33.2994048,111.550595 C32.8638755,111.85366 32.3950415,112.105802 31.9020833,112.302083 C31.1789271,112.608369 30.3940448,112.740882 29.6104167,112.688988 C28.8464721,112.629968 28.1117177,112.36999 27.4806548,111.935417 C26.446881,111.297321 26.0669841,109.97831 26.6029762,108.888095 C26.9947591,108.1241 27.7515387,107.614935 28.6068452,107.539881 C29.0622724,107.461673 29.5307778,107.536722 29.9389881,107.753274 C30.1194236,107.858454 30.2640753,108.015445 30.3541667,108.203869 C30.4614613,108.426219 30.5043503,108.674171 30.4779762,108.919643 C30.436712,109.230428 30.4526489,109.54614 30.525,109.85119 C30.7452381,110.591369 31.5071429,110.752976 32.2193452,110.266071 C32.9879548,109.72218 33.477899,108.867282 33.558631,107.929167 C33.7237935,107.006929 33.4587773,106.059754 32.8389881,105.357143 C32.5066508,104.996458 32.1109005,104.699872 31.6714286,104.482143 C31.2440568,104.263303 30.7799059,104.12537 30.302381,104.075298 C29.2636267,103.968486 28.2236046,104.265498 27.3979167,104.904762 C26.4027782,105.65164 25.5565941,106.578586 24.9032738,107.6375 C22.2639881,112.246726 20.2636905,117.48869 19.7169643,123.178869 C19.6389058,124.094498 19.6278645,125.014607 19.6839286,125.931845 C19.6994048,126.159524 19.7136905,126.388988 19.7434524,126.61369 C19.7732143,126.838393 19.8136905,127.060119 19.8553571,127.283333 C19.9386905,127.727976 20.0397817,128.169147 20.158631,128.606845 C20.2774802,129.044544 20.4141865,129.477083 20.56875,129.904464 C20.646131,130.118155 20.7279762,130.330357 20.8142857,130.541071 C20.9014881,130.751488 21.0095238,130.954167 21.1119048,131.158631 C21.5401546,131.983721 22.038726,132.770362 22.6020833,133.509821 C22.8139881,133.784821 23.0252976,134.051786 23.2568452,134.30119 C23.4949405,134.547619 23.7391865,134.781647 23.9895833,135.003274 C24.4811266,135.439459 25.0142295,135.826427 25.58125,136.158631 C26.1395804,136.486313 26.7350733,136.746092 27.3550595,136.93244 C28.0136763,137.115376 28.6915761,137.219968 29.3747024,137.244048 C32.1514881,137.347024 34.6592262,136.069048 36.5059524,134.238095 C37.4122617,133.340209 38.1615458,132.296664 38.722619,131.150893 C39.2895976,130.062149 39.617162,128.864733 39.6833333,127.638988 C39.6895833,127.272619 39.7083333,126.905655 39.6934524,126.555655 C39.681216,126.215645 39.6444137,125.876964 39.5833333,125.542262 C39.5246796,125.22202 39.4406853,124.906942 39.3321429,124.6 C39.2291667,124.295536 39.0827381,124.008929 38.9550595,123.716964 C38.6703467,123.123306 38.2970338,122.576382 37.8479167,122.09494 C37.6065482,121.83371 37.3492089,121.587702 37.077381,121.358333 C36.7907738,121.122024 36.5208333,120.879762 36.203869,120.650893 C35.2550803,119.928841 34.1078904,119.514731 32.9166667,119.464286 C31.7526786,119.412202 31.0511905,119.761905 30.5110119,120.718452 C30.2403739,121.194102 30.0729505,121.72142 30.0196429,122.266071 C29.9626612,122.7954 30.0103933,123.330768 30.160119,123.841667 C30.3276786,124.436905 30.5604167,125.013988 30.7360119,125.608036 C31.0046456,126.364854 30.699794,127.205941 30.008631,127.614881 C29.6881724,127.850345 29.3018119,127.979132 28.9041667,127.983036 C28.704958,127.981698 28.5073815,127.946991 28.3196429,127.880357 C28.1162285,127.803597 27.9255835,127.696535 27.7541667,127.562798 C27.0042613,126.998518 26.4210459,126.241809 26.066369,125.372917 C25.9821825,125.164657 25.9114031,124.951225 25.8544643,124.733929 C25.8026816,124.511805 25.7679574,124.286048 25.7505952,124.058631 C25.7115667,123.586986 25.7223405,123.112542 25.7827381,122.643155 C25.8560035,122.029666 26.0080502,121.428181 26.235119,120.853571 C26.4606915,120.299936 26.7692913,119.783897 27.1502976,119.323214 C27.9596795,118.355453 28.989515,117.59609 30.1532738,117.108929 C32.0782946,116.204319 34.3040195,116.193432 36.2377976,117.079167 C36.4875992,117.193254 36.7256944,117.313294 36.9520833,117.439286 C37.0654762,117.502381 37.1752976,117.567262 37.283631,117.633036 C37.3965278,117.69752 37.5068452,117.76369 37.6145833,117.831548 C38.0292604,118.090544 38.4207057,118.384999 38.7845238,118.711607 C39.1282757,119.021263 39.4438963,119.360787 39.7276786,119.72619 C39.8696429,119.904762 39.9940476,120.093155 40.127381,120.280655 C40.2607143,120.468155 40.3952381,120.658929 40.5166667,120.855655 C40.8283577,121.353331 41.0829419,121.884563 41.2755952,122.439286 C41.3744048,122.709226 41.4369048,122.990774 41.521131,123.2625 C41.600773,123.535674 41.66506,123.813092 41.7136905,124.093452 C41.8851517,125.252732 41.8662525,126.432225 41.6577381,127.585417 C41.5486381,128.199794 41.389375,128.804197 41.1815476,129.39256 C41.0753968,129.696329 40.955754,130.000992 40.822619,130.306548 C40.6952381,130.609226 40.5654762,130.907143 40.4160714,131.207738 C39.7767763,132.485767 38.9656887,133.670356 38.0053571,134.728571 C36.1303571,136.803571 33.9732143,138.456548 31.1544643,139.108631 C29.4517332,139.524524 27.6680847,139.470833 25.9934524,138.953274 C24.3511905,138.459524 22.9205357,137.469345 21.5589286,136.125893 C20.7566107,135.330043 20.0690527,134.426321 19.5160714,133.440774 C18.9304413,132.463608 18.4704586,131.416447 18.1470238,130.324107 C17.9107143,129.54256 17.710119,128.75119 17.4922619,127.966667 C17.3524003,127.440022 17.1679032,126.926258 16.9407738,126.430952 C16.7509996,126.035185 16.4826558,125.682187 16.1520833,125.393452 C15.5181548,124.853571 14.6491071,124.598512 13.4360119,124.530357 C12.7256824,124.525944 12.0163381,124.476739 11.3122024,124.383036 C9.96220238,124.129167 9.48363095,123.067857 10.096131,121.766071 C10.7589286,120.362798 11.90625,119.810417 13.3535714,119.889286 C14.6883929,119.957738 15.8598214,120.508333 17.1345238,121.562798 Z" id="Path"></path>
            <path d="M50.0866071,166.366667 C49.9267158,166.250503 49.760703,166.143007 49.5892857,166.044643 C48.8170557,165.681448 48.11799,165.179694 47.5267857,164.564286 C46.929925,163.962534 46.4120743,163.287268 45.9857143,162.554762 C45.8886905,162.37619 45.7880952,162.199405 45.6964286,162.019048 C45.3526457,161.336097 44.9537026,160.68234 44.5035714,160.064286 C44.28125,159.758631 44.0422619,159.46756 43.7949405,159.179464 C43.5568452,158.881845 43.3036706,158.594841 43.0354167,158.318452 C42.3810076,157.646203 41.7638179,156.9387 41.1866071,156.199107 C40.6489581,155.44342 40.1536531,154.658484 39.7029762,153.847917 C39.4830357,153.442262 39.260119,153.044345 39.0779762,152.617857 C38.8958333,152.191369 38.7267857,151.760119 38.5705357,151.324702 C38.2532475,150.454531 37.9970697,149.563279 37.803869,148.65744 C37.6181692,147.739348 37.5856867,146.796853 37.7077381,145.868155 C37.7595238,145.515179 37.7970238,145.16369 37.8366071,144.813988 C37.8761905,144.464286 37.9113095,144.117262 37.9767857,143.761607 C38.146131,142.783333 38.7366071,142.395833 39.7,142.547619 C39.7943664,142.562351 39.8878586,142.582222 39.9800595,142.607143 C41.0191954,142.857762 42.0230581,143.236873 42.9684524,143.735714 C43.1930556,143.857143 43.4113095,143.985516 43.6232143,144.120833 L44.2550595,144.5375 C44.6731049,144.819564 45.0693598,145.132648 45.4404762,145.474107 C45.8860353,145.886961 46.2782602,146.353871 46.6080357,146.863988 C46.9455529,147.346599 47.2178481,147.871675 47.4178571,148.425595 C47.6253336,149.003502 47.7693352,149.602261 47.8473214,150.21131 C47.9541711,150.853929 48.0057487,151.504524 48.0014881,152.155952 C48.0014881,153.227381 47.8797619,154.345833 47.8151786,155.455357 C47.7376459,157.008265 47.8664478,158.564597 48.1982143,160.083631 C48.4133317,160.958926 48.7997397,161.782925 49.335119,162.508036 C49.5974854,162.864499 49.8912157,163.196776 50.2127976,163.500893 C50.548589,163.807478 50.9149977,164.078744 51.30625,164.310417 C51.5820863,164.473015 51.8852585,164.583956 52.2008929,164.637798 C52.7366071,164.734226 53.28125,164.759226 53.8139881,164.825 C54.0020391,164.846129 54.1824889,164.911172 54.3407738,165.014881 C54.4822736,165.100986 54.5965807,165.2253 54.6705357,165.373512 C54.8183518,165.714065 54.7779715,166.10704 54.5639881,166.410417 C54.3816796,166.721329 54.1223559,166.980037 53.8110119,167.161607 C53.0399323,167.569069 52.2358991,167.910853 51.4074405,168.183333 C50.7794643,168.384524 50.0979167,168.412202 49.4473214,168.58125 C48.2741071,168.886905 47.0875,169.20625 45.896131,169.544643 C45.008631,169.797024 44.1556548,170.080357 43.2770833,170.358036 C42.4059424,170.630812 41.5078696,170.808631 40.5985119,170.888393 C40.1467262,170.928075 39.6923611,170.945635 39.2354167,170.941071 C39.0068452,170.93869 38.7777778,170.930952 38.5482143,170.917857 C38.3236111,170.899008 38.0984127,170.875 37.872619,170.845833 C36.9487977,170.722303 36.0362187,170.525755 35.1434524,170.258036 C34.2035843,169.988954 33.2882863,169.640477 32.4074405,169.216369 C31.7308532,168.89494 31.0647817,168.544544 30.4092262,168.165179 C29.7472938,167.79324 29.1096062,167.379712 28.5,166.927083 C27.8918651,166.472917 27.2980159,165.992063 26.7184524,165.484524 C26.4287698,165.230952 26.1430556,164.971131 25.8613095,164.70506 C25.5791667,164.439583 25.2994048,164.169345 25.0431548,163.877083 C24.4875992,163.265575 23.9365079,162.64881 23.389881,162.026786 L22.5705357,161.091369 L22.1630952,160.621131 L21.7761905,160.134821 L20.2380952,158.175893 C19.7321429,157.51756 19.2056548,156.871131 18.7386905,156.181845 L17.3610119,154.209821 C16.9080357,153.547321 16.4383929,152.894643 16.0261905,152.20506 L14.7607143,150.152976 C14.3440476,149.464286 13.908631,148.787202 13.533631,148.075298 C13.2372566,147.548264 13.0020992,146.989078 12.8327381,146.408631 C12.564881,145.45 12.9517857,144.807143 13.8008929,144.666369 C14.142289,144.608892 14.4904776,144.604074 14.8333333,144.652083 C15.8491071,144.79881 16.8613095,144.909821 17.8651786,145.025893 L19.3645833,145.208929 L20.8636905,145.420536 C21.9521776,145.582772 23.0267177,145.827728 24.0779762,146.153274 C24.5880952,146.312004 25.0853175,146.490575 25.5696429,146.688988 C25.8133929,146.787202 26.0458333,146.894345 26.2895833,146.998512 C26.5333333,147.102679 26.7741071,147.211012 27.0116071,147.325893 C27.958987,147.7775 28.8627125,148.315491 29.7113095,148.933036 C29.9252976,149.086905 30.1297619,149.250298 30.3425595,149.411905 C30.5553571,149.573512 30.7714286,149.735714 30.9815476,149.905952 C31.4015873,150.24623 31.810119,150.609028 32.2071429,150.994345 C32.5488095,151.326488 32.877381,151.668452 33.1928571,152.020238 C33.5044643,152.375 33.8410714,152.71131 34.1452381,153.072321 C34.7642675,153.789074 35.341988,154.540488 35.8755952,155.322917 L38.1357143,158.397917 L38.4190476,158.784821 L38.7193452,159.155952 L39.3244048,159.896429 C39.7297619,160.389087 40.1402778,160.878373 40.5559524,161.364286 L41.0321429,161.909524 C41.1949405,162.088095 41.3681548,162.25506 41.5380952,162.426488 C41.8791667,162.767758 42.2238095,163.105754 42.5720238,163.440476 L43.6184524,164.443452 C43.7946429,164.608333 43.9639881,164.78125 44.1455357,164.940179 L44.689881,165.418155 C45.271735,165.906549 45.9804218,166.219503 46.7333333,166.320536 C47.2640754,166.415704 47.8014031,166.469536 48.3404762,166.481548 C48.9244963,166.484335 49.5079864,166.445947 50.0866071,166.366667 L50.0866071,166.366667 Z" id="Path"></path>
            <path d="M95.5988095,188.13244 C94.7802108,188.012193 93.9466825,188.039712 93.1377976,188.21369 C92.4121044,188.352913 91.7127346,188.605084 91.0651786,188.961012 C90.1887132,189.483287 89.3404113,190.051438 88.5238095,190.663095 C87.9439206,191.093326 87.3388772,191.488572 86.7119048,191.846726 C85.5053571,192.449702 84.34375,192.273214 83.527381,191.44881 C82.7072875,190.600161 82.5942692,189.292875 83.2565476,188.316071 C83.5629695,187.876119 83.9360996,187.486622 84.3625,187.161607 C85.6715484,186.109522 87.2755878,185.490935 88.9520833,185.391667 C89.272619,185.37381 89.5979167,185.321429 89.9309524,185.286607 C89.9199405,185.16756 89.9377976,185.06875 89.9053571,185.048512 C89.6577381,184.889583 89.4098214,184.74256 89.166369,184.57381 L88.439881,184.066369 L87.0065476,183.055952 L85.5952381,182.059226 L84.214881,181.012202 L82.8458333,179.990774 C82.3910714,179.653869 81.9321429,179.339881 81.4860119,178.982143 C80.5875,178.289583 79.6860119,177.627976 78.7705357,177.00744 C77.7533455,176.255287 76.6921298,175.564573 75.5925595,174.938988 L75.1818452,174.716964 L74.7747024,174.482738 C74.5022817,174.329167 74.2267857,174.182341 73.9482143,174.042262 C73.389322,173.761138 72.8158956,173.509892 72.2303571,173.289583 C71.6,173.070238 70.9925595,172.825595 70.3610119,172.661607 C69.731299,172.49029 69.0894676,172.367117 68.4410714,172.293155 C67.7821429,172.232143 67.1416667,172.154464 66.4705357,172.155952 C65.783686,172.152308 65.097442,172.197361 64.4169643,172.290774 C63.5369281,172.409059 62.6681216,172.599584 61.8193452,172.860417 C61.0011013,173.122081 60.2135013,173.471327 59.4702381,173.902083 C57.9317776,174.807166 56.5965226,176.019827 55.5479167,177.464286 C54.2125,179.270238 54.0056548,181.355655 54.9892857,183.57381 C55.3397815,184.374026 55.7747912,185.134495 56.2869048,185.842262 C56.8099867,186.522766 57.3980781,187.150728 58.0428571,187.717262 C58.3672619,188.003571 58.7063492,188.276687 59.060119,188.536607 C59.4126038,188.803254 59.7832439,189.04501 60.1693452,189.260119 C60.9652022,189.702095 61.7930082,190.083915 62.6458333,190.402381 C64.1362044,190.967518 65.7089146,191.285297 67.3017857,191.343155 C67.6880952,191.361409 68.072619,191.365774 68.4553571,191.35625 C68.6464286,191.351488 68.8371032,191.343353 69.027381,191.331845 C69.21875,191.316964 69.4119048,191.29256 69.6029762,191.268155 C70.3668757,191.167612 71.1227232,191.01326 71.864881,190.80625 C72.5706001,190.607695 73.241051,190.300334 73.8520833,189.895238 C74.1610826,189.648416 74.3424461,189.275522 74.3458333,188.88006 C74.2872813,188.375936 73.8691104,187.990272 73.3619048,187.972619 C72.75625,187.898214 72.1377976,187.9375 71.5199405,187.913095 C71.058631,187.892262 70.5875,187.900893 70.1264881,187.86756 C69.6648477,187.836721 69.2053604,187.779384 68.7502976,187.695833 C68.184343,187.561739 67.6502952,187.31762 67.1785714,186.977381 C66.7318606,186.694571 66.3765044,186.288568 66.1553571,185.808333 C65.7810314,184.822227 66.0347683,183.707803 66.7991071,182.980952 C67.2059826,182.644696 67.6973397,182.426555 68.2196429,182.350298 C69.5818452,182.104762 70.8386905,182.452679 72.0083333,183.094345 C72.9572121,183.558645 73.8643347,184.103815 74.7196429,184.72381 C75.3298429,185.175987 75.8681688,185.717825 76.316369,186.330952 C77.6061336,188.110221 77.65748,190.50275 76.4452381,192.335714 C75.8977553,193.20335 75.1672076,193.940805 74.3047619,194.496429 C73.8636208,194.783448 73.3983798,195.031604 72.9142857,195.238095 C72.4080449,195.442784 71.8871326,195.609125 71.3559524,195.735714 C70.0934373,196.034205 68.7974021,196.16687 67.5005952,196.130357 C66.1671081,196.050855 64.8434461,195.851843 63.5455357,195.535714 C63.0550595,195.416667 62.5633929,195.302381 62.0928571,195.143155 C61.6223214,194.983929 61.1583333,194.810119 60.702381,194.622917 C59.797087,194.252643 58.9170273,193.82345 58.0678571,193.338095 C57.2364576,192.835467 56.4466329,192.267084 55.7059524,191.638393 C54.9553981,191.01751 54.2591283,190.333785 53.6247024,189.594643 C51.7758929,187.355952 50.84375,184.955655 50.8842262,182.57381 C50.9311949,180.175257 51.8479846,177.875456 53.4639881,176.102381 C54.8621234,174.473014 56.5416944,173.108167 58.422619,172.072917 C59.334468,171.578803 60.2855077,171.16072 61.2660714,170.822917 C62.2647285,170.484596 63.29207,170.237747 64.3354167,170.085417 C64.4497024,170.06875 64.5633929,170.04494 64.6761905,170.018452 C64.7510077,169.985013 64.8228015,169.945182 64.8907738,169.899405 C64.3872024,169.478869 63.9175595,169.080655 63.4622024,168.671131 C62.912626,168.18312 62.4199205,167.634605 61.9934524,167.036012 C61.5836882,166.407242 61.2711424,165.720243 61.066369,164.998214 C60.7974258,164.126354 60.7999169,163.193329 61.0735119,162.322917 C61.2893447,161.519349 61.8453914,160.850136 62.5958333,160.490774 C63.2693217,160.212625 64.0445708,160.378302 64.5455357,160.90744 C64.960961,161.333475 65.3194042,161.811566 65.6119048,162.329762 C66.2223214,163.366964 66.7264881,164.538988 67.4142857,165.571429 C67.816369,166.145833 68.2383929,166.715476 68.6818452,167.275298 C68.9032738,167.555456 69.1300595,167.833234 69.3622024,168.108631 C69.4785714,168.244643 69.5943452,168.384524 69.7151786,168.515179 L70.0869048,168.89494 C70.5565476,169.366071 71.2244048,169.616964 71.8035714,169.969643 L71.9738095,169.783333 C71.8395833,169.494048 71.7208333,169.196429 71.5747024,168.920238 C70.9532738,167.741369 70.4553571,166.541964 70.4354167,165.105357 C70.4014881,163.595238 70.6958333,162.155952 71.725,160.879167 C72.4345238,159.99881 73.216369,159.590476 73.8723214,159.649405 C74.5434524,159.679167 75.1002976,160.163988 75.3738095,161.1375 C75.5456789,161.841617 75.6536565,162.559807 75.6964286,163.283333 C75.7994048,164.360417 75.8491071,165.450893 75.9764881,166.54256 C76.0758213,167.398484 76.2614887,168.242164 76.5306548,169.060714 C76.6575815,169.454522 76.8092728,169.839913 76.9848214,170.214583 C77.1590503,170.575864 77.3519701,170.927828 77.5627976,171.269048 C77.9896365,171.956121 78.4810491,172.600907 79.0303571,173.194643 C79.169246,173.345238 79.3118056,173.493452 79.4580357,173.639286 C79.6068452,173.782738 79.760119,173.911607 79.9166667,174.044643 C80.2303571,174.30754 80.558631,174.560813 80.9014881,174.804464 C81.1277675,174.944653 81.3610029,175.07329 81.6002976,175.189881 C81.4762282,174.811357 81.3841393,174.42309 81.325,174.029167 C81.2616071,172.98244 81.0735119,171.907738 81.275,170.897024 C81.6967262,168.794643 82.8473214,167.247321 84.1833333,166.465476 C84.5093729,166.274182 84.8597648,166.127818 85.225,166.030357 C85.583134,165.925879 85.9532548,165.86806 86.3261905,165.858333 C87.1278334,165.855327 87.9121565,166.091484 88.578869,166.536607 C90.1092262,167.410417 91.1449405,168.947321 91.3130952,171.252976 C91.3832603,172.035255 91.2690961,172.82309 90.9797619,173.553274 C90.6865338,174.253601 90.2154212,174.865165 89.6130952,175.327381 C89.1484499,175.707025 88.5648477,175.910727 87.964881,175.902679 C87.388884,175.893544 86.8408684,175.652688 86.4446429,175.234524 C85.8417275,174.624665 85.5907211,173.749843 85.7785714,172.913095 C85.9482143,171.972024 86.6119048,171.084226 87.6592262,171.575595 C87.943224,171.70736 88.2489726,171.78594 88.5613095,171.80744 C89.335119,171.817262 89.7220238,171.139583 89.4767857,170.315774 C89.342468,169.86893 89.1046858,169.46005 88.7827381,169.122321 C88.6252896,168.955631 88.4507147,168.805995 88.2619048,168.675893 C88.0759026,168.536072 87.8774498,168.413633 87.6690476,168.310119 C86.8370263,167.880022 85.8543047,167.85274 84.9997024,168.236012 C83.0948203,169.100887 82.180359,171.289335 82.9035714,173.252381 C83.0059524,173.548214 83.1199405,173.844345 83.2455357,174.1375 C83.3732143,174.423214 83.5133929,174.699702 83.6666667,174.970833 C83.9651188,175.508419 84.3224774,176.011117 84.7321429,176.469643 C88.3035714,180.404167 92.6818452,183.915774 97.927381,186.194643 C98.7749321,186.541447 99.6466992,186.825836 100.535714,187.045536 C100.978175,187.154266 101.42381,187.245933 101.872619,187.320536 C102.319856,187.390318 102.771261,187.43009 103.22381,187.439583 C104.132396,187.473032 105.042189,187.430723 105.94375,187.313095 C106.170337,187.283333 106.396627,187.24871 106.622619,187.209226 C106.848214,187.160119 107.073214,187.103274 107.297917,187.043155 C107.746925,186.921726 108.193353,186.78006 108.637202,186.618155 C109.275155,186.388028 109.894194,186.108511 110.48869,185.782143 C110.633036,185.701488 110.775,185.620536 110.913988,185.532143 C111.052976,185.44375 111.187798,185.343452 111.320536,185.245238 C111.584093,185.049853 111.837592,184.841253 112.08006,184.620238 C113.066951,183.727557 113.82571,182.611513 114.292857,181.365476 C115.254167,178.7625 114.815476,175.95744 113.653869,173.657143 C113.077589,172.506438 112.317062,171.457686 111.402381,170.552381 C110.96334,170.121512 110.48261,169.735293 109.967262,169.399405 C109.715302,169.23643 109.454593,169.087396 109.18631,168.952976 C108.918935,168.805715 108.643165,168.67424 108.360417,168.559226 C107.106544,168.036844 105.737254,167.853725 104.390179,168.028274 C103.732958,168.126888 103.094221,168.323415 102.495238,168.61131 C102.180655,168.768155 101.866369,168.908929 101.551488,169.092262 C101.224724,169.279388 100.908383,169.484155 100.603869,169.705655 C99.6225856,170.395826 98.8729178,171.366576 98.4532738,172.490476 C98.0464286,173.558036 98.1625,174.370238 98.9083333,175.160417 C99.6637339,175.943228 100.691903,176.404598 101.778869,176.448512 C101.933631,176.459524 102.08869,176.472321 102.244048,176.472321 L102.709524,176.460119 C103.020238,176.45 103.330655,176.43869 103.641071,176.44256 C104.520833,176.453571 105.067262,176.891369 105.328274,177.747024 C105.605102,178.542596 105.294061,179.423817 104.579167,179.869345 C103.815232,180.422185 102.912722,180.751906 101.972321,180.821726 C101.043757,180.838089 100.123947,180.639888 99.2845238,180.24256 C98.1626738,179.748852 97.2098253,178.937637 96.5434524,177.908929 C95.8692125,176.847681 95.461597,175.63913 95.3553571,174.38631 C95.0870538,172.271215 95.7617783,170.145072 97.2005952,168.571726 C98.6842262,166.978571 100.325595,166.041964 102.137798,165.689286 C103.272022,165.391245 104.457802,165.345529 105.611607,165.555357 C106.780899,165.712091 107.907663,166.098468 108.927083,166.692262 C110.058959,167.289515 111.090877,168.059462 111.985714,168.974405 C112.992335,169.985906 113.865305,171.122128 114.583333,172.355357 C115.967857,174.75625 116.871429,177.3375 116.613988,180.215179 C116.484365,181.9735 115.880962,183.663892 114.867857,185.106845 C114.358332,185.791871 113.7648,186.410201 113.10119,186.947321 C112.753471,187.231192 112.39096,187.496445 112.015179,187.741964 C111.627655,188.002782 111.221955,188.23552 110.80119,188.438393 C109.783353,188.922613 108.715454,189.293683 107.616667,189.54494 C107.341667,189.608234 107.064782,189.664881 106.786012,189.714881 C106.506845,189.753571 106.225893,189.781845 105.943452,189.804167 C105.378175,189.850595 104.807837,189.871131 104.23244,189.865774 C103.825,189.862798 103.418155,189.85 103.012202,189.836012 C102.60625,189.822024 102.199405,189.8125 101.793452,189.771429 C99.3125,189.569345 98.1577381,190.319643 97.2821429,192.577083 C97.0605195,193.243711 96.7963865,193.895444 96.491369,194.528274 C95.8366071,195.733631 94.6794643,195.877083 93.6300595,194.902381 C92.4991071,193.860714 92.327381,192.56994 92.8449405,191.23244 C93.3193452,189.989583 94.2032738,189.032143 95.5988095,188.13244 Z" id="Path"></path>
            <path d="M148.391071,170.672024 C148.229272,170.784894 148.073596,170.906296 147.924702,171.035714 C147.328495,171.644208 146.643785,172.159145 145.89375,172.563095 C145.130006,172.936883 144.321108,173.210284 143.487202,173.376488 C143.289583,173.418155 143.093155,173.46369 142.895238,173.499702 C142.514881,173.56875 142.141766,173.65129 141.775893,173.747321 C141.404167,173.834226 141.033631,173.925893 140.671726,174.037202 C139.942869,174.258702 139.236242,174.54765 138.561012,174.900298 C135.165476,176.568452 131.475298,177.338393 127.75,176.864583 C127.289341,176.814144 126.832838,176.731098 126.383929,176.616071 C126.162202,176.558036 125.943155,176.490774 125.726786,176.4125 C125.508532,176.326587 125.29256,176.228571 125.078869,176.118452 C124.43631,175.7875 123.782143,175.505952 123.153274,175.182738 C122.280655,174.73631 122.095833,174.053274 122.534226,173.169048 C122.57686,173.082387 122.624049,172.998043 122.675595,172.916369 C122.965362,172.460377 123.283447,172.02301 123.627976,171.606845 C123.795238,171.402381 123.970238,171.216369 124.144048,171.019643 C124.317857,170.822917 124.495536,170.632738 124.679762,170.450595 C125.394461,169.737719 126.209892,169.133566 127.1,168.65744 C128.13075,168.03583 129.309462,167.7023 130.513095,167.691667 C131.780706,167.645046 133.045228,167.84633 134.235714,168.284226 C134.754167,168.468452 135.252381,168.639881 135.7625,168.841964 L137.29881,169.448214 C138.026083,169.730889 138.769925,169.96893 139.52619,170.161012 C140.279613,170.33826 141.045903,170.455492 141.817857,170.511607 C142.720868,170.588884 143.630234,170.486 144.493155,170.208929 C145.334436,169.898837 146.116454,169.44708 146.805357,168.873214 C147.04831,168.667704 147.251217,168.41909 147.403869,168.139881 C147.659524,167.660417 147.839286,167.131548 148.060417,166.636607 C148.399405,165.865476 149.231548,165.751786 149.805357,166.418452 C150.044967,166.68628 150.21081,167.011813 150.286607,167.363095 C150.428852,168.220562 150.50487,169.087708 150.514061,169.956845 C150.518155,170.624405 150.341964,171.294048 150.308929,171.972024 C150.237798,173.18006 150.160119,174.386607 150.111905,175.614881 C150.073214,176.528869 150.094048,177.450893 150.092262,178.377679 C150.09161,178.840653 150.065678,179.303246 150.014583,179.763393 C149.957752,180.209375 149.876981,180.651978 149.772619,181.089286 C149.559654,181.971441 149.261529,182.830831 148.88244,183.655357 C148.134226,185.357738 146.996726,186.873512 145.647321,188.363393 C145.393155,188.64256 145.132738,188.917163 144.866071,189.187202 C144.598214,189.45506 144.315774,189.69881 144.032738,189.948512 C143.462698,190.442361 142.86994,190.915774 142.254464,191.36875 C141.946925,191.595139 141.634226,191.81627 141.316369,192.032143 L140.833333,192.35119 L140.336012,192.640774 C139.66756,193.021131 138.980258,193.378274 138.274107,193.712202 L137.148214,194.239881 C136.772321,194.416071 136.395536,194.590476 136.009524,194.740476 L133.696726,195.665476 L132.534524,196.119643 L131.952381,196.344643 L131.361905,196.545238 L128.991964,197.332738 L127.846429,197.705952 L127.272619,197.890774 C127.080357,197.948512 126.885714,197.998214 126.69256,198.052083 L124.36369,198.677083 L123.196131,198.98244 C122.805952,199.080952 122.418452,199.192262 122.02381,199.268155 L119.66131,199.761905 C119.071168,199.889739 118.468342,199.949652 117.864583,199.940476 C117.452631,199.955242 117.053302,199.796914 116.763393,199.503869 C116.5236,199.215998 116.429344,198.833926 116.507738,198.46756 C116.559144,198.128739 116.663282,197.800057 116.816369,197.493452 C117.725893,195.654762 118.49256,193.751488 119.416667,191.969345 C120.392904,190.047478 121.647721,188.280384 123.140476,186.725298 C123.505655,186.350893 123.890774,186.013393 124.283036,185.66131 C124.675298,185.309226 125.081845,184.971131 125.505655,184.653274 C125.929464,184.335417 126.36875,184.035417 126.827381,183.754167 C127.283631,183.46756 127.764881,183.224107 128.247619,182.943155 C129.925169,182.058593 131.679723,181.3285 133.489583,180.761905 L135.311905,180.194643 C135.619048,180.107143 135.916667,179.996726 136.216369,179.890179 L137.115774,179.56994 C138.31131,179.132143 139.533036,178.736607 140.687202,178.189881 C141.567262,177.796726 142.434524,177.370833 143.297024,176.935119 C144.143155,176.46875 144.975595,175.976786 145.818452,175.504762 C146.47771,175.122812 147.000011,174.543032 147.31131,173.847619 C147.819264,172.845337 148.18279,171.7762 148.391071,170.672024 Z" id="Path"></path>
            <path d="M183.174702,134.115476 C182.818038,134.858938 182.576584,135.652345 182.458631,136.468452 C182.375989,137.207871 182.408417,137.955631 182.554762,138.685119 C182.754167,139.687798 183.083333,140.631548 183.354464,141.616369 C183.584906,142.305718 183.77863,143.006801 183.934821,143.716667 C184.054988,144.311356 183.981994,144.928883 183.726488,145.479167 C183.468139,145.974706 183.052836,146.370646 182.545536,146.60506 C181.491533,147.127999 180.214803,146.831517 179.499107,145.897619 C179.172229,145.466735 178.913181,144.988385 178.730952,144.479167 C178.44363,143.69964 178.284719,142.878651 178.260417,142.048214 C178.213846,141.215884 178.287013,140.381178 178.477679,139.569643 C178.550595,139.25506 178.623214,138.940476 178.69881,138.614286 C178.581548,138.5875 178.492857,138.539881 178.4625,138.563988 C177.531845,139.298214 176.605357,140.01131 175.691667,140.713095 L172.864286,142.723214 L172.17619,143.223214 L171.466369,143.70625 C170.994345,144.027679 170.528869,144.35129 170.06994,144.677083 C169.611012,145.002877 169.159821,145.332937 168.716369,145.667262 C168.254464,145.988988 167.79375,146.311905 167.347321,146.643452 C166.831448,147.02381 166.331448,147.41498 165.847321,147.816964 L165.490179,148.122024 L165.119643,148.418155 C164.875198,148.61756 164.635516,148.820933 164.400595,149.028274 C163.473855,149.867615 162.602579,150.76623 161.792262,151.718452 C161.367098,152.222851 160.979171,152.757494 160.631548,153.318155 L160.127976,154.15506 C159.964881,154.435417 159.8125,154.722321 159.670833,155.015774 C159.105225,156.238835 158.689031,157.525587 158.43125,158.848214 C157.760417,162.453274 158.418452,165.79881 160.613988,168.86756 C161.915179,170.686607 163.847024,171.537798 166.281845,171.3125 C168.002131,171.107158 169.66273,170.5543 171.162798,169.6875 C171.905161,169.22575 172.605921,168.700254 173.257143,168.116964 C173.589484,167.821131 173.912996,167.509325 174.227679,167.181548 C174.384524,167.017262 174.541369,166.85119 174.691964,166.677976 C174.837798,166.499405 174.981349,166.318155 175.122619,166.134226 C175.612558,165.494525 176.059188,164.822789 176.459524,164.123512 C176.856562,163.449742 177.188994,162.739935 177.452381,162.003571 C177.973205,160.558035 178.279044,159.043883 178.360119,157.509524 C178.379565,156.769763 178.285824,156.031375 178.082143,155.31994 C177.941623,154.949263 177.642716,154.660837 177.267262,154.533631 C176.79256,154.394345 176.33244,154.72381 176.120833,155.202083 C175.882738,155.76756 175.713095,156.356845 175.488988,156.928274 C175.185743,157.804146 174.833196,158.662163 174.433036,159.498214 C174.297601,159.753126 174.126648,159.98751 173.925298,160.194345 C173.718538,160.401103 173.496262,160.591738 173.260417,160.764583 C172.319048,161.4625 171.311607,161.571726 170.369048,161.010119 C169.382738,160.422917 168.99256,159.479167 169.167857,158.331548 C169.270138,157.682363 169.49865,157.059514 169.840476,156.498214 C170.163108,155.929158 170.566394,155.409787 171.037798,154.95625 C171.798116,154.222656 172.602594,153.536255 173.446726,152.900893 C174.610551,151.993049 176.070168,151.549999 177.542262,151.657738 C178.988084,151.784876 180.319047,152.497669 181.22619,153.630655 C181.883669,154.413508 182.35538,155.335054 182.605952,156.32619 C182.860454,157.36677 182.948847,158.441042 182.867857,159.509226 C182.848016,159.831845 182.816766,160.153472 182.774107,160.474107 C182.73502,160.79366 182.676881,161.110594 182.6,161.423214 C182.449535,162.052263 182.261499,162.671727 182.036905,163.278274 C181.581667,164.53404 180.990032,165.736073 180.272619,166.862798 C179.743956,167.705378 179.164512,168.515009 178.5375,169.287202 C178.381548,169.477679 178.225595,169.667262 178.06131,169.849702 C177.897024,170.032143 177.723512,170.203869 177.550893,170.37619 C177.205655,170.720833 176.850198,171.052976 176.484524,171.372619 C175.758418,172.012239 174.984763,172.595764 174.170238,173.118155 C173.334054,173.621232 172.462413,174.062872 171.562202,174.439583 C170.923837,174.708328 170.265619,174.927236 169.593452,175.094345 C168.951663,175.234516 168.299493,175.322009 167.643452,175.355952 C166.431125,175.424571 165.21651,175.269818 164.060119,174.899405 C162.949042,174.535101 161.918413,173.960475 161.024405,173.206845 C160.099728,172.425973 159.312613,171.495499 158.695833,170.454167 C158.130383,169.517402 157.647034,168.533476 157.25119,167.513393 C156.867042,166.531296 156.572586,165.516441 156.371429,164.48125 C156.17495,163.466815 156.073618,162.436251 156.06875,161.402976 C156.0625,160.88244 156.098512,160.379762 156.125893,159.841667 C156.159226,159.309524 156.216567,158.775595 156.297917,158.239881 C156.315476,158.124107 156.327679,158.006845 156.334226,157.889583 C156.324993,157.809196 156.309773,157.72961 156.28869,157.651488 C155.738095,158.00625 155.230952,158.348512 154.71131,158.665179 C153.391369,159.377976 152.008631,159.866667 150.474107,159.811905 C149.552441,159.787274 148.658958,159.488894 147.90744,158.954762 C147.103869,158.371429 146.683333,157.630357 146.636607,156.947619 C146.61033,156.613471 146.686312,156.279234 146.854464,155.989286 C146.942773,155.839396 147.053135,155.70365 147.181845,155.586607 C147.322231,155.452384 147.477506,155.334655 147.644643,155.235714 C148.165637,154.948318 148.730294,154.748436 149.316071,154.644048 C149.615774,154.584524 149.91994,154.533036 150.227381,154.484226 C150.534821,154.435417 150.847321,154.392857 151.14494,154.33006 C151.747917,154.213393 152.355655,154.088988 152.951786,153.919048 C153.628869,153.71994 154.328571,153.520536 154.988393,153.26131 C155.648214,153.002083 156.297917,152.71369 156.944345,152.403571 C157.546429,152.109524 158.020536,151.577679 158.509821,151.111905 L158.383333,150.891071 C158.071726,150.933631 157.75625,150.959226 157.453274,151.01756 C156.123214,151.230952 154.795238,151.305357 153.452083,150.910714 C152.020833,150.494048 150.745536,149.775 149.845238,148.397917 C149.220238,147.445536 149.063393,146.563988 149.309524,145.942857 C149.434524,145.627177 149.673814,145.370142 149.979762,145.222917 C150.369398,145.049571 150.79475,144.971622 151.220536,144.995536 C151.934531,145.039267 152.642872,145.149669 153.33631,145.325298 C154.394048,145.559524 155.465774,145.86369 156.552679,146.086905 C156.773214,146.131845 156.993452,146.171726 157.21131,146.205952 C157.429167,146.240179 157.6375,146.260119 157.849107,146.278571 C159.082893,146.388543 160.326288,146.304894 161.534226,146.030655 C162.322501,145.854069 163.086423,145.582439 163.809226,145.221726 C164.555151,144.859252 165.270313,144.436624 165.947619,143.958036 C166.150257,143.786711 166.341256,143.602076 166.519345,143.405357 C166.125358,143.409072 165.731771,143.379202 165.342857,143.316071 C164.329167,143.052381 163.229762,142.885714 162.331548,142.380357 C161.469931,141.905988 160.713346,141.261985 160.10744,140.487202 C159.8445,140.146351 159.618715,139.778391 159.433929,139.389583 C159.254157,139.023359 159.117048,138.637696 159.025298,138.240179 C158.845872,137.503626 158.877851,136.731399 159.11756,136.012202 C159.179058,135.835364 159.253876,135.663443 159.341369,135.497917 C159.421379,135.322447 159.514603,135.15331 159.620238,134.991964 C159.848094,134.646061 160.124083,134.334396 160.439881,134.066369 C160.775229,133.776282 161.145086,133.528678 161.541071,133.329167 C161.74256,133.23125 161.943155,133.141071 162.144048,133.06131 C162.351068,132.980987 162.563253,132.914667 162.779167,132.862798 C163.767355,132.643951 164.793919,132.668463 165.770536,132.934226 C167.40744,133.340774 168.566071,134.315774 169.131845,135.82619 C169.243519,136.11806 169.306169,136.426384 169.317262,136.73869 C169.332316,137.025193 169.284996,137.311548 169.178571,137.577976 C168.965166,138.111416 168.562475,138.547383 168.047619,138.802381 C167.291739,139.194878 166.386267,139.166705 165.65625,138.727976 C164.816071,138.275298 164.168155,137.361012 164.939286,136.505357 C165.160696,136.282714 165.339708,136.021608 165.46756,135.734821 C165.531745,135.574401 165.553476,135.40014 165.530655,135.228869 C165.502671,135.072401 165.432253,134.926624 165.327083,134.80744 C165.070864,134.541301 164.714543,134.395166 164.345238,134.404762 C163.397349,134.393543 162.489629,134.786943 161.849702,135.48631 C161.536263,135.823427 161.294839,136.220906 161.140179,136.654464 C160.964266,137.079079 160.895677,137.540494 160.940476,137.997917 C161.175469,140.078139 162.971827,141.627117 165.063988,141.553571 C165.693018,141.538935 166.319936,141.475049 166.938988,141.3625 C167.249405,141.304762 167.556548,141.233036 167.85625,141.145833 C168.151327,141.064378 168.438965,140.958044 168.716071,140.827976 C169.909722,140.271032 171.110119,139.670337 172.317262,139.025893 C173.481845,138.35744 174.627083,137.629167 175.775,136.853274 C176.360417,136.470238 176.88244,136.044345 177.428274,135.616964 C177.968155,135.186806 178.503869,134.742262 179.035417,134.283333 C179.3,134.053274 179.569643,133.822024 179.826488,133.582143 C180.075496,133.338889 180.323512,133.092063 180.570536,132.841667 C181.062996,132.340079 181.549107,131.823214 182.028869,131.291071 C182.33631,130.944048 182.646131,130.592857 182.913988,130.222321 C183.181845,129.851786 183.428274,129.469643 183.663393,129.08006 C184.133697,128.302486 184.542195,127.489171 184.885119,126.647619 C185.189549,125.789807 185.420928,124.907799 185.576786,124.011012 C185.655159,123.559821 185.714683,123.103472 185.755357,122.641964 C185.784891,122.173529 185.78658,121.703754 185.760417,121.235119 C185.73175,120.555202 185.650154,119.878551 185.516369,119.21131 C185.395375,118.566906 185.195457,117.939862 184.921131,117.344345 C184.365567,116.129325 183.529071,115.063813 182.480655,114.235714 C181.424668,113.407246 180.18996,112.836566 178.874702,112.569048 C177.584654,112.303846 176.257337,112.2736 174.956548,112.479762 C173.684753,112.669883 172.453934,113.072309 171.315476,113.670238 C170.774763,113.955684 170.264069,114.294685 169.791071,114.682143 C169.309893,115.055311 168.870082,115.478959 168.479167,115.945833 C168.029735,116.480793 167.655721,117.074809 167.36756,117.71131 C167.069135,118.286558 166.865238,118.906087 166.76369,119.546131 C166.713731,119.866821 166.688854,120.190918 166.689286,120.515476 C166.689286,120.679762 166.69881,120.847917 166.704464,121.014286 C166.710119,121.180655 166.716964,121.347024 166.732143,121.516369 C166.804761,122.242742 166.96249,122.958064 167.202083,123.647619 C167.385802,124.190505 167.634746,124.70908 167.943452,125.191964 C168.273196,125.703989 168.68483,126.158355 169.161905,126.536905 C170.064286,127.258929 170.84256,127.388988 171.860714,126.940476 C172.119622,126.829403 172.364724,126.688575 172.591071,126.520833 C172.799018,126.359259 172.989534,126.176424 173.159524,125.975298 C173.497687,125.567345 173.767366,125.107191 173.958036,124.612798 C174.072917,124.325595 174.172321,124.031845 174.270536,123.738095 C174.318452,123.589286 174.371429,123.445238 174.416369,123.297024 C174.46131,123.14881 174.502976,122.999405 174.550595,122.852381 C174.821131,122.019048 175.399405,121.632143 176.291071,121.647024 C177.135253,121.631693 177.879414,122.198251 178.089286,123.016071 C178.237458,123.477988 178.324996,123.957196 178.349702,124.441667 C178.357305,124.894238 178.298444,125.345475 178.175,125.780952 C177.917418,126.66976 177.45702,127.486638 176.83006,128.167262 C175.572707,129.515213 173.813867,130.283143 171.970536,130.288988 C171.317664,130.288011 170.666827,130.216162 170.029464,130.074702 C168.98145,129.860511 167.989797,129.429564 167.118155,128.809524 C166.70885,128.512862 166.333648,128.171796 165.999405,127.79256 C165.649011,127.401351 165.33984,126.975094 165.076786,126.520536 C164.092823,124.838144 163.657665,122.89091 163.831845,120.949702 C163.862132,120.655993 163.907529,120.364038 163.967857,120.075 C164.011538,119.787685 164.071153,119.50302 164.146429,119.222321 C164.29533,118.669431 164.505668,118.134951 164.773512,117.628869 C165.043188,117.121445 165.345303,116.631937 165.677976,116.163393 C166.032839,115.684929 166.431376,115.24046 166.868452,114.835714 C167.089881,114.627381 167.335417,114.425893 167.571429,114.227679 C167.80744,114.029464 168.050298,113.836607 168.307738,113.651488 C168.840799,113.270031 169.40147,112.928714 169.985119,112.630357 C170.607828,112.311561 171.251473,112.035429 171.911607,111.803869 C172.598924,111.557605 173.301241,111.355409 174.014286,111.198512 C176.714583,110.615179 179.445238,110.547024 182.112202,111.674702 C183.747175,112.327938 185.168922,113.421859 186.219345,114.834821 C186.719986,115.53079 187.131987,116.286408 187.445833,117.084226 C187.612365,117.502951 187.75681,117.930125 187.878571,118.363988 C187.9921,118.813452 188.080334,119.268929 188.142857,119.728274 C188.30126,120.847676 188.334998,121.981195 188.243452,123.108036 C188.100977,124.236437 187.852458,125.348897 187.50119,126.430655 C187.370833,126.81756 187.25506,127.208036 187.095238,127.584226 L186.633631,128.718155 C186.16994,129.875893 186.027976,130.784524 186.238988,131.599702 C186.422321,132.403274 186.964286,133.11756 187.89881,133.88125 C188.466679,134.30016 189.00726,134.754852 189.517262,135.24256 C189.945733,135.632898 190.158864,136.206424 190.089286,136.781845 C189.95374,137.365575 189.549664,137.850576 189,138.089286 C187.616071,138.825298 186.356845,138.595238 185.239286,137.684821 C184.729847,137.270964 184.304334,136.763419 183.985714,136.189583 C183.815624,135.884049 183.669837,135.565606 183.549702,135.237202 C183.403834,134.870597 183.278638,134.4961 183.174702,134.115476 Z" id="Path"></path>
            <path d="M182.859821,78.4943452 C182.921112,78.6823592 182.992445,78.8669498 183.073512,79.0473214 C183.486368,79.7945699 183.756828,80.6120066 183.871131,81.4580357 C183.996157,82.2954365 184.018645,83.1449551 183.938095,83.9877976 C183.916667,84.1883929 183.889286,84.391369 183.857738,84.591369 C183.731311,85.3459584 183.666613,86.1095988 183.664286,86.8747024 C183.676326,87.6352907 183.731873,88.3945671 183.830655,89.1488095 C183.957334,90.0784241 184.035318,91.0140268 184.064286,91.9517857 C184.079321,92.416375 184.065605,92.8814496 184.023214,93.3443452 C183.988492,93.8074405 183.940972,94.2678571 183.880655,94.7255952 C183.820337,95.1833333 183.747123,95.6375992 183.661012,96.0883929 C183.615774,96.3139881 183.57619,96.5380952 183.517262,96.7622024 C183.458333,96.9863095 183.391667,97.208631 183.324107,97.4315476 C183.054074,98.3200987 182.730364,99.1914425 182.354762,100.040774 C181.98806,100.903665 181.46018,101.688717 180.799405,102.353869 C180.293452,102.863988 179.83006,103.400893 179.334821,103.901488 C178.648512,104.595238 177.943452,104.561607 177.229167,103.871726 C177.159035,103.804317 177.092476,103.733288 177.029762,103.658929 C176.341996,102.846737 175.764301,101.947422 175.311607,100.984226 C174.846182,100.081299 174.512915,99.1161789 174.322024,98.1184524 C174.265271,97.8151652 174.228781,97.5084348 174.212798,97.2002976 C174.183677,96.9036226 174.172347,96.6054699 174.178869,96.3074405 C174.195974,95.717369 174.290533,95.1321024 174.460119,94.5666667 C174.84283,93.3593916 175.424876,92.224673 176.182143,91.2095238 C176.50119,90.7758929 176.848512,90.3514881 177.206845,89.9279762 L177.750298,89.2919643 C177.930952,89.0797619 178.098214,88.86875 178.271429,88.6547619 C179.252056,87.4457396 180.06763,86.1117367 180.696726,84.6877976 C181.03131,83.8523685 181.201973,82.9603508 181.199405,82.0604167 C181.197525,81.6179231 181.156091,81.1764835 181.075595,80.741369 C180.982111,80.2965556 180.844526,79.8621667 180.664881,79.4446429 C180.537329,79.1509555 180.357302,78.882983 180.133631,78.653869 C179.758036,78.2616071 179.33006,77.921131 178.93869,77.5547619 C178.798339,77.4280503 178.69089,77.2691234 178.625595,77.0916667 C178.562867,76.9385514 178.543609,76.7710957 178.56994,76.6077381 C178.649921,76.2453867 178.913294,75.9510942 179.264583,75.8315476 C179.59483,75.6869503 179.956755,75.6298581 180.315476,75.6657738 C181.178422,75.7881005 182.029336,75.983952 182.858929,76.2511905 C183.485417,76.4571429 184.054464,76.8363095 184.678869,77.0809524 C185.807738,77.5232143 186.955357,77.9633929 188.119048,78.3904762 C188.989881,78.7074405 189.841369,78.9821429 190.716071,79.2735119 C192.448642,79.8647371 194.037068,80.8146689 195.377679,82.0613095 C196.050167,82.7062681 196.670278,83.4037065 197.232143,84.1470238 C197.522024,84.5267857 197.802679,84.9215278 198.074107,85.33125 C198.210218,85.5358135 198.344048,85.7441468 198.475595,85.95625 C198.605655,86.1678571 198.719643,86.3845238 198.839286,86.6032738 C199.554219,87.9374876 200.161313,89.326737 200.654762,90.7577381 C201.097324,92.2307107 201.426461,93.7354057 201.639286,95.258631 C201.704167,95.6681548 201.740774,96.0785714 201.776488,96.4892857 L201.884226,97.7232143 L202.076488,100.198512 L202.120238,100.818452 C202.13006,101.025 202.13244,101.231845 202.138393,101.43869 L202.168155,102.680655 L202.210714,105.169048 C202.236607,105.969048 202.194643,106.769048 202.166369,107.569643 L202.064286,109.97381 C202.044345,110.374405 202.028869,110.775595 202.002976,111.17619 L201.889881,112.375893 L201.651786,114.77619 C201.622024,115.07381 201.577381,115.376786 201.516667,115.67381 C201.48631,115.822421 201.451687,115.969246 201.412798,116.114286 C201.369345,116.258631 201.318452,116.400298 201.263988,116.53869 C200.899107,117.468155 200.202083,117.761012 199.436607,117.376488 C199.128947,117.223204 198.847005,117.022993 198.600893,116.783036 C197.172321,115.359226 195.56756,114.043155 194.149702,112.616369 C193.376254,111.847347 192.663881,111.019247 192.019048,110.139583 C191.371587,109.298188 190.79614,108.403757 190.29881,107.465774 C190.055357,107.003274 189.834127,106.532044 189.635119,106.052083 C189.534821,105.811905 189.443452,105.569345 189.352083,105.324405 C189.252877,105.079167 189.15873,104.831151 189.069643,104.580357 C188.710012,103.56228 188.444612,102.513333 188.276786,101.446726 L188.062202,100.038095 C187.997321,99.5684524 187.947718,99.0980159 187.913393,98.6267857 C187.879067,98.1555556 187.858631,97.683631 187.852083,97.2110119 C187.848512,96.974504 187.848512,96.7376984 187.852083,96.5005952 L187.83869,95.7904762 C187.825298,94.5223214 187.844048,93.2491071 187.841071,91.9729167 C187.785714,90.7017857 187.724405,89.4261905 187.629167,88.1502976 C187.604167,87.6672619 187.51875,87.1925595 187.450595,86.714881 C187.38244,86.2372024 187.297917,85.7625 187.215774,85.2863095 C187.049702,84.3339286 186.893452,83.3797619 186.665476,82.4404762 C186.483385,81.7025254 186.095167,81.031583 185.546131,80.5059524 C185.17366,80.1152199 184.770049,79.7554046 184.339286,79.4300595 C183.868698,79.0838256 183.374322,78.7711481 182.859821,78.4943452 Z" id="Path"></path>
            <path d="M158.82381,34.1369048 C159.408417,34.7222043 160.095496,35.195221 160.850893,35.5324405 C161.024405,35.6089286 161.200595,35.6755952 161.37619,35.7369048 C161.551786,35.7982143 161.721726,35.860119 161.897024,35.9107143 C162.250255,36.0114894 162.610046,36.0876639 162.97381,36.1386905 C163.986769,36.2358139 165.004182,36.2789305 166.021726,36.2678571 C166.746093,36.2510844 167.47075,36.2845974 168.190476,36.3681548 C169.518452,36.5919643 170.348512,37.4214286 170.522321,38.5669643 C170.68844,39.7336946 170.01165,40.856497 168.902381,41.2544643 C168.394067,41.4290267 167.862237,41.5255589 167.325,41.5407738 C165.648563,41.6191394 163.989147,41.1750894 162.575893,40.2699405 L161.71875,39.7821429 C161.657738,39.8848214 161.584821,39.9541667 161.599702,39.9904762 C162.046131,41.0669643 162.399107,42.2068452 162.773214,43.3035714 L163.324107,44.94375 C163.508929,45.4842262 163.658631,46.052381 163.83006,46.5979167 L164.336012,48.23125 C164.503869,48.7732143 164.693155,49.2952381 164.84375,49.8470238 C165.164286,50.9354167 165.50506,52.0005952 165.881845,53.041369 C166.261903,54.2487892 166.71614,55.4315945 167.241964,56.5830357 C167.379464,56.8616071 167.50119,57.1514881 167.632143,57.4357143 C167.763095,57.7199405 167.9,58.0011905 168.04494,58.2767857 C168.333428,58.8321299 168.65134,59.3716865 168.997321,59.8931548 L169.550893,60.7166667 C169.738194,60.9865079 169.934325,61.2480159 170.139286,61.5011905 C170.550509,62.0086655 170.999613,62.4842346 171.482738,62.9238095 C171.731845,63.1416667 171.965476,63.3651786 172.214881,63.5785714 C172.464286,63.7919643 172.723512,63.9952381 172.993155,64.1940476 C173.549082,64.5990361 174.132871,64.9643266 174.740179,65.2872024 C175.149702,65.5032738 175.560119,65.6988095 175.95506,65.8824405 C176.352416,66.0606874 176.758938,66.2177529 177.172917,66.3529762 C177.990628,66.619931 178.834661,66.7982365 179.690476,66.8848214 C180.557633,66.9714727 181.431508,66.9664848 182.297619,66.8699405 C183.199008,66.7705706 184.088171,66.5811323 184.951786,66.3044643 C185.969021,65.9975447 186.882407,65.4171039 187.592262,64.6264881 C188.304127,63.7817603 188.785934,62.7676086 188.991071,61.6821429 C189.379687,59.9861941 189.365417,58.2227707 188.949405,56.5333333 C188.756892,55.6764407 188.484573,54.8394547 188.136012,54.0333333 C187.74961,53.2097616 187.301923,52.4163613 186.796726,51.6598214 C186.569742,51.3177579 186.334028,50.987004 186.089583,50.6675595 C185.96756,50.5088294 185.843353,50.3519841 185.716964,50.1970238 C185.584028,50.0474206 185.449107,49.9005952 185.312202,49.7565476 C184.772534,49.1881729 184.194167,48.6578378 183.58125,48.1693452 C182.984132,47.6868985 182.347572,47.2554236 181.678274,46.8794643 C181.000715,46.5134518 180.298177,46.1956987 179.575893,45.9285714 C178.888055,45.6760267 178.165137,45.5319452 177.433036,45.5014881 C177.037942,45.5200747 176.672158,45.7153707 176.436905,46.0333333 C176.188644,46.4750126 176.3009,47.03186 176.700893,47.3428571 C177.147321,47.7580357 177.671429,48.0886905 178.159226,48.4690476 C178.912738,49.0085659 179.619048,49.6111298 180.270536,50.2702381 C180.650733,50.7097311 180.940581,51.2198487 181.123512,51.7714286 C181.555948,52.7538423 181.290197,53.9036942 180.470536,54.5967262 C179.600893,55.3589286 178.602679,55.427381 177.565774,54.9071429 C176.315774,54.308631 175.50119,53.2904762 174.928869,52.0877976 C174.438897,51.1524985 174.025925,50.1788426 173.694048,49.1764881 C173.221726,47.6258929 173.222917,46.1794643 173.75625,44.9095238 C174.325264,43.5717433 175.414433,42.5233002 176.772917,42.0056548 C177.725244,41.6250683 178.749202,41.4570664 179.773214,41.5133929 C180.29806,41.5400681 180.81958,41.6124654 181.331845,41.7297619 C181.86041,41.8628819 182.378713,42.033859 182.882738,42.241369 C184.07926,42.7387491 185.205899,43.3898611 186.234226,44.1782738 C187.263045,45.0271382 188.21723,45.962604 189.08631,46.9744048 C189.742376,47.7239047 190.331906,48.5291309 190.848214,49.3809524 C191.365462,50.2101868 191.827763,51.0724542 192.232143,51.9622024 C192.601828,52.860565 192.906675,53.7842589 193.144345,54.7261905 C193.263393,55.1960317 193.365278,55.6701389 193.45,56.1485119 C193.492262,56.3866071 193.530159,56.6264881 193.56369,56.8681548 C193.591369,57.1119048 193.610417,57.3583333 193.627381,57.6044643 C193.728822,58.953077 193.615506,60.3092433 193.291667,61.6223214 C193.213095,61.9279762 193.124107,62.2244048 193.020238,62.5151786 C192.909921,62.8074405 192.788194,63.0909722 192.65506,63.3657738 C192.395336,63.9051149 192.086492,64.4193899 191.73244,64.9020833 C190.288581,66.8173255 188.197172,68.1417785 185.848512,68.6282738 C183.759072,69.1272464 181.597116,69.2477022 179.465179,68.9839286 C178.952679,68.91875 178.458333,68.8252976 177.949107,68.7160714 C177.439881,68.6068452 176.933333,68.4779762 176.433929,68.3244048 C175.425108,68.0136051 174.446588,67.6118569 173.510417,67.1241071 C173.407738,67.0708333 173.302083,67.0235119 173.194643,66.9791667 C173.116256,66.9621559 173.036639,66.9514077 172.956548,66.9470238 C173.109524,67.5869048 173.264881,68.1806548 173.391369,68.7791667 C173.555957,69.4959374 173.632021,70.2301878 173.617857,70.9654762 C173.581876,71.7140394 173.432869,72.4528533 173.175893,73.1568452 C172.883237,74.0198899 172.33444,74.7732133 171.602679,75.316369 C170.955882,75.8398374 170.11302,76.0553345 169.294345,75.9065476 C168.585876,75.7379873 168.054329,75.1506001 167.957143,74.428869 C167.904598,74.1391476 167.880277,73.8450125 167.884524,73.5505952 C167.884524,73.4017857 167.893452,73.2482143 167.904167,73.0970238 C167.909226,72.9482143 167.919345,72.7994048 167.933929,72.6505952 C168.049702,71.452381 168.313095,70.2157738 168.377976,68.96875 C168.3875,68.2685516 168.376786,67.5616071 168.345833,66.8479167 C168.329762,66.4907738 168.307837,66.133631 168.28006,65.7764881 C168.250298,65.4193452 168.224107,65.0571429 168.161012,64.7107143 C168.055357,64.0541667 167.659821,63.4607143 167.396131,62.8357143 L167.14881,62.8869048 C167.089286,63.1994048 167.010417,63.510119 166.967262,63.8193452 C166.883563,64.473472 166.745384,65.1194667 166.554167,65.7505952 C166.343747,66.4010633 166.039228,67.0172202 165.650298,67.5794643 C164.794048,68.8214286 163.7125,69.8139881 162.129762,70.2443452 C161.038095,70.5419643 160.16369,70.4142857 159.665179,69.9830357 C159.15625,69.5553571 158.973512,68.84375 159.325298,67.8928571 C159.5975,67.2221043 159.930119,66.577487 160.319048,65.9669643 C160.602579,65.5018849 160.886607,65.0363095 161.171131,64.5702381 C161.45625,64.1053571 161.741369,63.6369048 162.008036,63.1583333 C162.428779,62.4069558 162.772395,61.6149238 163.033631,60.7943452 C163.290682,60.018463 163.446143,59.2125508 163.496131,58.3967262 C163.620286,56.7618452 163.404755,55.1189607 162.863095,53.5714286 C162.76207,53.3249255 162.648732,53.0836497 162.523512,52.8485119 C162.401764,53.2277343 162.24845,53.5960868 162.065179,53.9497024 C161.501786,54.8342262 161.023512,55.814881 160.266071,56.5142857 C158.68869,57.9681548 156.849107,58.5431548 155.306548,58.3892857 C154.556095,58.3042649 153.837395,58.0387608 153.211905,57.6154762 C152.561973,57.1427466 152.06522,56.4895163 151.783333,55.7369048 C151.411563,54.9294237 151.257652,54.0386877 151.336905,53.1532738 C151.444525,52.1416942 151.787841,51.1694423 152.339286,50.3145833 C152.742684,49.6409363 153.298691,49.0714733 153.9625,48.6520833 C154.612492,48.2524831 155.357123,48.0330692 156.11994,48.016369 C157.416667,47.9747024 158.437798,48.7681548 158.628274,49.9598214 C158.757156,50.808681 158.445283,51.6647906 157.800595,52.2318452 C157.106845,52.8958333 156.056845,53.2139881 155.48631,52.2092262 C155.33491,51.9345592 155.134479,51.6899474 154.89494,51.4875 C154.277083,51.0214286 153.565179,51.3404762 153.277976,52.1520833 C153.12326,52.5937139 153.074429,53.0655084 153.135417,53.5294643 C153.203035,53.9871041 153.347957,54.4299196 153.563988,54.8389881 C153.983871,55.6780218 154.762714,56.2804174 155.680357,56.4758929 C157.731351,56.8987295 159.76033,55.66432 160.327679,53.6485119 C160.416964,53.3491071 160.500595,53.0419643 160.570238,52.7315476 C160.63244,52.4270833 160.683036,52.1184524 160.719048,51.8089286 C160.794216,51.1978036 160.801104,50.5802089 160.739583,49.9675595 C160.163095,44.6824405 158.689286,39.2699405 155.786607,34.3467262 C155.311779,33.5603103 154.780314,32.8095154 154.196429,32.1002976 C153.909436,31.7480312 153.59763,31.4167305 153.263393,31.1089286 C152.935417,30.7974206 152.59504,30.4992063 152.242262,30.2142857 C151.889484,29.9293651 151.525298,29.6592262 151.149702,29.403869 C150.96131,29.2770833 150.772024,29.1508929 150.576488,29.0339286 C150.378075,28.9230159 150.175992,28.815873 149.970238,28.7125 C149.140752,28.2944913 148.276731,27.9488631 147.387798,27.6794643 C146.736292,27.4784886 146.065254,27.3473938 145.386012,27.2883929 C144.73302,27.2221771 144.075107,27.2201834 143.421726,27.2824405 C142.775123,27.3408286 142.138735,27.4822704 141.528274,27.7032738 C140.887994,27.9402404 140.278,28.2521306 139.711012,28.6324405 C137.403571,30.1744048 136.122024,32.6800595 135.69881,35.2479167 C135.48829,36.5050573 135.494329,37.7889431 135.716667,39.0440476 C135.895723,40.2606323 136.332,41.4250873 136.996429,42.4598214 C137.09881,42.6143849 137.203968,42.7625992 137.311905,42.9044643 C137.414881,43.0550595 137.520437,43.1996032 137.628571,43.3380952 C137.83819,43.6072108 138.066959,43.860846 138.313095,44.0970238 C139.280115,44.9838295 140.465734,45.5972861 141.748214,45.8744048 C142.468699,46.0057231 143.199212,46.0743332 143.931548,46.0794643 C145.123872,46.1079364 146.296273,45.7702491 147.290774,45.1119048 C148.263393,44.4702381 148.624405,43.772619 148.499107,42.6824405 C148.43817,42.1383721 148.263454,41.6132097 147.98631,41.1410714 C147.720764,40.6795982 147.366783,40.2750484 146.944643,39.9505952 C146.459226,39.5657738 145.932738,39.2345238 145.441071,38.8556548 C145.125412,38.6312326 144.892806,38.3087443 144.779464,37.9383929 C144.683766,37.5635182 144.707594,37.1681097 144.847619,36.8074405 C144.969036,36.4288077 145.206288,36.0978625 145.525893,35.8613095 C145.870404,35.6193929 146.286195,35.5002211 146.706548,35.5229167 C148.614961,35.5460626 150.348782,36.6386862 151.193155,38.3502976 C151.494773,38.890041 151.725544,39.466419 151.879762,40.0651786 C151.95518,40.3540612 152.003995,40.6492413 152.025595,40.9470238 C152.050288,41.2448849 152.05506,41.5440624 152.039881,41.8425595 C151.95562,43.1008532 151.570305,44.3204908 150.916369,45.3988095 C149.891647,47.2642342 148.096183,48.582599 146.009524,49.0017857 C145.495341,49.1028454 144.974904,49.1689689 144.451786,49.1997024 C143.963134,49.233151 143.4725,49.2240892 142.985417,49.172619 C142.524232,49.1237391 142.068283,49.0341031 141.622917,48.9047619 C141.40119,48.8452381 141.191964,48.7613095 140.96994,48.6919643 C140.747917,48.622619 140.53125,48.5410714 140.315179,48.453869 C139.24555,47.9954663 138.269841,47.3433462 137.437202,46.5303571 C137.023691,46.1249268 136.653356,45.6776917 136.332143,45.1958333 C136.171429,44.946131 136.009524,44.7032738 135.855952,44.4535714 C135.702381,44.203869 135.561012,43.9392857 135.428571,43.6669643 C134.301898,41.1849448 133.8758,38.4419643 134.196429,35.735119 C134.268501,35.0461843 134.377788,34.3616525 134.52381,33.6845238 C134.664709,33.0225571 134.852078,32.3713412 135.084524,31.7357143 C135.558136,30.4282807 136.267823,29.218938 137.178274,28.1678571 C138.312348,26.8337731 139.787629,25.8329357 141.446429,25.2723214 C141.851296,25.1380219 142.264343,25.029765 142.683036,24.9482143 C143.107783,24.8602344 143.539151,24.8079686 143.972619,24.7919643 C144.883864,24.7575333 145.796266,24.8145646 146.696131,24.9622024 C147.257045,25.0450815 147.811044,25.1694302 148.353571,25.3342262 C148.888157,25.5065034 149.413204,25.7070842 149.926488,25.935119 C150.972742,26.3842995 151.959565,26.9608792 152.864583,27.6517857 C153.513988,28.146131 154.139583,28.6693452 154.775298,29.1776786 C155.016964,29.3738095 155.255655,29.5386905 155.477381,29.6940476 C155.683304,29.8423899 155.899414,29.9760535 156.124107,30.0940476 C156.509804,30.3027065 156.934044,30.4304141 157.370833,30.4693452 C158.200893,30.533631 159.053274,30.228869 160.074107,29.5702381 C160.651031,29.155718 161.253516,28.7779846 161.877976,28.4392857 C163.116369,27.8532738 164.129167,28.4252976 164.398512,29.8380952 C164.6875,31.3610119 164.085119,32.4821429 162.868155,33.2702381 C161.747024,33.9934524 160.47619,34.2386905 158.82381,34.1369048 Z" id="Path"></path>
            <path d="M105.84375,17.2404762 C106.041626,17.2378368 106.239224,17.2247233 106.435714,17.2011905 C107.276602,17.0705313 108.132625,17.0705313 108.973512,17.2011905 C109.389243,17.2641476 109.800431,17.3541198 110.204464,17.4705357 C110.407143,17.5300595 110.608929,17.5895833 110.808333,17.6666667 C111.007738,17.74375 111.20506,17.8339286 111.40119,17.9258929 C111.585119,18.0122024 111.770536,18.0946429 111.95119,18.1857143 C113.319278,18.8632486 114.777326,19.3414138 116.280952,19.6056548 C117.206804,19.7570116 118.122358,19.965747 119.022321,20.2306548 C119.901701,20.5245795 120.764132,20.8669686 121.605655,21.25625 C122.025517,21.4446839 122.435656,21.6540743 122.834524,21.883631 C123.231349,22.1217262 123.621329,22.3712302 124.004464,22.6321429 C124.770842,23.1498833 125.501191,23.7190487 126.190476,24.3357143 C126.879418,24.9708427 127.458474,25.7156317 127.904167,26.539881 C128.231548,27.1764881 128.606845,27.760119 128.923512,28.3979167 C129.359524,29.2907738 129.108631,29.9511905 128.240774,30.3919643 C128.15598,30.4353203 128.068954,30.4741642 127.98006,30.5083333 C126.993888,30.9207575 125.958835,31.204827 124.900298,31.3535714 C123.899766,31.4845017 122.887557,31.5007778 121.883333,31.4020833 C121.281184,31.3310319 120.690585,31.1833072 120.125893,30.9625 C119.570042,30.7719025 119.041848,30.5086064 118.55506,30.1794643 C118.047986,29.8344326 117.579955,29.4352588 117.159226,28.9889881 C116.699873,28.5273457 116.276608,28.0311482 115.893155,27.5047619 C115.2625,26.6389881 114.702679,25.6758929 114.103571,24.7279762 C113.256331,23.4267625 112.234944,22.2476608 111.067857,21.2235119 C110.889286,21.0665675 110.705952,20.9202381 110.517857,20.7845238 C110.333327,20.6556357 110.140775,20.5386329 109.941369,20.4342262 C109.551778,20.2263057 109.143166,20.0561835 108.721131,19.9261905 C108.298618,19.7959528 107.865213,19.7041121 107.42619,19.6517857 C107.204762,19.6246032 106.980754,19.6068452 106.754167,19.5985119 C106.525117,19.5859818 106.295435,19.5915547 106.067262,19.6151786 C105.747679,19.6498779 105.437016,19.742139 105.150298,19.8875 C104.661012,20.1294643 104.204762,20.4360119 103.734821,20.7017857 C103.006548,21.114881 102.266667,20.7059524 102.19494,19.8282738 C102.158671,19.4715579 102.216226,19.1115556 102.361905,18.7839286 C102.751099,18.0129547 103.199674,17.2734225 103.703571,16.5720238 C104.092857,16.0363095 104.628869,15.6047619 105.053869,15.0815476 C105.820536,14.1275794 106.587599,13.1728175 107.35506,12.2172619 C107.922917,11.5092262 108.447321,10.7589286 108.991964,10.0178571 C109.535423,9.28069703 110.156441,8.6040032 110.844345,7.99940476 C111.185431,7.69714031 111.543131,7.41416004 111.915774,7.15178571 C112.286607,6.89940476 112.672024,6.66319444 113.072024,6.44315476 C113.892278,5.99532957 114.746621,5.6129899 115.627083,5.29970238 C116.077679,5.13839286 116.540476,4.98630952 117.0125,4.85327381 C117.482738,4.73561508 117.963194,4.63045635 118.453869,4.53779762 C119.190972,4.39751984 119.937004,4.28700397 120.691964,4.20625 C121.068948,4.16656746 121.447718,4.13353175 121.828274,4.10714286 C122.209524,4.07738095 122.585714,4.08839286 122.966964,4.08839286 C123.727282,4.09791667 124.491964,4.13710317 125.261012,4.20595238 C125.645337,4.24027778 126.02996,4.28214286 126.414881,4.33154762 C126.801507,4.37552362 127.185637,4.43919767 127.565774,4.52232143 C128.375298,4.69156746 129.185119,4.8671627 129.995238,5.04910714 L131.210119,5.32529762 L131.81756,5.46636905 C132.019048,5.51696429 132.217857,5.57619048 132.418155,5.63125 L134.816667,6.31577381 L136.015476,6.66666667 L136.614583,6.8452381 L137.20506,7.04761905 L139.479464,7.84077381 L140.615179,8.24613095 L141.182738,8.45059524 L141.741071,8.67738095 L143.969345,9.60238095 L145.082143,10.0705357 C145.453571,10.2258929 145.82619,10.3824405 146.185417,10.5604167 C146.733977,10.8146468 147.251716,11.1306818 147.728571,11.502381 C148.505952,12.1241071 148.570536,12.8714286 147.964881,13.483631 C147.722304,13.730065 147.443367,13.9378375 147.137798,14.0997024 C146.229464,14.5758929 145.345238,15.0782738 144.464583,15.5717262 C143.583929,16.0651786 142.710714,16.5416667 141.801488,17.0166667 C137.978866,19.0276266 133.617678,19.7766133 129.343155,19.15625 C128.871528,19.0875992 128.405258,19.0032738 127.944345,18.9032738 C127.481845,18.8041667 127.012798,18.7261905 126.553571,18.6142857 C125.631339,18.3982507 124.722134,18.1299607 123.830357,17.8107143 L120.192262,16.6553571 C119.586607,16.4488095 118.967857,16.2982143 118.350298,16.1401786 C117.732738,15.9821429 117.111905,15.8291667 116.488988,15.6839286 C116.018155,15.5806548 115.54881,15.460119 115.071429,15.391369 C114.594048,15.322619 114.116071,15.252381 113.6375,15.1883929 C112.679167,15.0660714 111.721429,14.9303571 110.761607,14.8264881 C110.00175,14.7808617 109.244494,14.9512159 108.577381,15.3178571 C108.094699,15.5592517 107.62877,15.8327836 107.182738,16.1366071 C106.956845,16.2916667 106.733631,16.4550595 106.510714,16.6345238 C106.288492,16.8234127 106.066171,17.0253968 105.84375,17.2404762 Z" id="Path"></path>
        </g>
    </g>
</svg>