<?xml version="1.0" encoding="UTF-8"?>
<svg width="209px" height="200px" viewBox="0 0 209 200" version="1.1" xmlns="http://www.w3.org/2000/svg" xmlns:xlink="http://www.w3.org/1999/xlink">
    <!-- Generator: Sketch 56.3 (81716) - https://sketch.com -->
    <title>1</title>
    <desc>Created with Sketch.</desc>
    <g id="Page-1" stroke="none" stroke-width="1" fill="none" fill-rule="evenodd">
        <g id="1" fill="#000000" fill-rule="nonzero">
            <path d="M128.039604,70.6534653 L107.247525,26.4158416 C106.930693,25.7425743 106.257426,25.3069307 105.50495,25.3069307 C104.752475,25.3069307 104.079208,25.7029703 103.722772,26.3762376 L81.2673267,69.8217822 C81.2673267,69.8217822 79.7227723,72.8712871 79.049505,74.0990099 C77.6633663,74.2574257 74.2574257,74.6930693 74.2574257,74.6930693 L25.7425743,80.7920792 C24.990099,80.8712871 24.3960396,81.3861386 24.1188119,82.0990099 C24.039604,82.2970297 24,82.5346535 24,82.7326733 C24,83.2475248 24.1980198,83.7227723 24.5544554,84.1188119 L58.8910891,118.930693 C58.8910891,118.930693 61.2673267,121.386139 62.2574257,122.376238 C61.980198,123.762376 61.3465347,127.128713 61.3465347,127.128713 L52.2772277,175.009901 C52.2376238,175.128713 52.2376238,175.247525 52.2376238,175.366337 C52.2376238,175.960396 52.5148515,176.554455 53.029703,176.950495 C53.6237624,177.386139 54.4158416,177.465347 55.0891089,177.148515 L98.7722772,155.247525 C98.7722772,155.247525 101.821782,153.70297 103.089109,153.108911 C104.316832,153.782178 150.138614,179.009901 150.138614,179.009901 C150.811881,179.366337 151.60396,179.326733 152.19802,178.891089 C152.712871,178.534653 153.029703,177.940594 153.029703,177.306931 C153.029703,177.227723 153.029703,177.108911 152.990099,177.029703 L145.663366,128.673267 C145.663366,128.673267 145.148515,125.306931 144.950495,123.920792 C145.980198,122.970297 148.475248,120.594059 148.475248,120.594059 L184.118812,87.1683168 C184.514851,86.7722772 184.752475,86.2574257 184.752475,85.7425743 C184.752475,85.5445545 184.712871,85.3465347 184.673267,85.1881188 C184.475248,84.4752475 183.841584,83.960396 183.128713,83.8415842 C183.128713,83.8415842 131.524752,75.3267327 130.138614,75.0891089 C129.50495,73.7425743 128.039604,70.6534653 128.039604,70.6534653 Z M178.534653,86.970297 C173.663366,91.5643564 145.782178,117.70297 145.782178,117.70297 L141.50495,121.70297 C141.108911,122.059406 140.871287,122.574257 140.871287,123.128713 C140.871287,123.207921 140.871287,123.326733 140.910891,123.405941 L141.782178,129.188119 C141.782178,129.188119 147.524752,167.009901 148.514851,173.623762 C142.653465,170.376238 104.039604,149.148515 104.039604,149.148515 C103.485149,148.831683 102.811881,148.831683 102.217822,149.108911 L97.029703,151.683168 C97.029703,151.683168 62.8514851,168.831683 56.8712871,171.841584 C58.1386139,165.267327 65.3069307,127.722772 65.3069307,127.722772 L66.3762376,121.980198 C66.4158416,121.861386 66.4158416,121.742574 66.4158416,121.623762 C66.4158416,121.108911 66.2178218,120.633663 65.8613861,120.237624 L61.7821782,116.079208 C61.7821782,116.079208 34.9306931,88.8712871 30.2178218,84.1188119 C36.8712871,83.2871287 80.5940594,77.7821782 80.5940594,77.7821782 C81.2277228,77.7029703 81.7821782,77.3069307 82.0990099,76.7524752 L84.7920792,71.5643564 C84.7920792,71.5643564 102.376238,37.6237624 105.425743,31.6831683 C108.277228,37.7425743 124.554455,72.3168317 124.554455,72.3168317 L127.049505,77.6237624 C127.326733,78.2178218 127.881188,78.6138614 128.514851,78.7326733 L134.257426,79.6831683 C134.178218,79.6435644 171.920792,85.8613861 178.534653,86.970297 Z M122.49505,85.029703 C121.90099,83.7623762 117.980198,75.4059406 117.980198,75.4059406 L106.772277,51.4851485 C106.455446,50.8118812 105.782178,50.3762376 105.029703,50.3762376 C104.277228,50.3762376 103.60396,50.7722772 103.247525,51.4455446 L91.1287129,74.8514851 L88.4356436,80.039604 C88.4356436,80.039604 86.8514851,83.0891089 86.2178218,84.3168317 C84.8316832,84.4752475 81.4257426,84.9108911 81.4257426,84.9108911 C81.4257426,84.9108911 81.4257426,84.9108911 81.4257426,84.9108911 L75.6039604,85.6237624 L49.4653465,88.9108911 C48.7128713,88.990099 48.1188119,89.5049505 47.8415842,90.2178218 C47.7623762,90.4158416 47.7227723,90.6534653 47.7227723,90.8514851 C47.7227723,91.3663366 47.9207921,91.8415842 48.2772277,92.2376238 L66.8118812,111.049505 C66.8118812,111.049505 73.2673267,117.623762 74.2574257,118.613861 C73.980198,120 72.2772277,129.069307 72.2772277,129.069307 L67.3267327,154.930693 C67.2871287,155.049505 67.2871287,155.168317 67.2871287,155.287129 C67.2871287,155.881188 67.5643564,156.475248 68.0792079,156.831683 C68.6732673,157.267327 69.4653465,157.346535 70.1386139,157.029703 L93.7425743,145.188119 L98.970297,142.613861 C98.970297,142.613861 102.019802,141.108911 103.247525,140.475248 C104.475248,141.148515 107.445545,142.772277 107.445545,142.772277 L112.594059,145.584158 L135.683168,158.29703 C136.316832,158.653465 137.148515,158.613861 137.742574,158.178218 C138.257426,157.821782 138.574257,157.227723 138.574257,156.594059 C138.574257,156.514851 138.574257,156.39604 138.534653,156.277228 L134.574257,130.178218 L133.70297,124.39604 C133.70297,124.39604 133.188119,121.029703 132.990099,119.643564 C134.019802,118.693069 159.960396,94.3366337 159.960396,94.3366337 C160.356436,93.980198 160.594059,93.4257426 160.594059,92.9108911 C160.594059,92.7128713 160.554455,92.5148515 160.514851,92.3564356 C160.277228,91.6435644 159.683168,91.1287129 158.970297,91.009901 L133.029703,86.7326733 L127.287129,85.7821782 C127.287129,85.7821782 123.881188,85.2277228 122.49505,85.029703 Z M154.49505,94.2574257 C150.336634,98.1782178 129.663366,117.584158 129.663366,117.584158 C129.267327,117.940594 129.029703,118.49505 129.029703,119.009901 C129.029703,119.089109 129.029703,119.207921 129.069307,119.287129 L129.940594,125.069307 L130.811881,130.851485 C130.811881,130.851485 133.306931,147.366337 134.178218,153.029703 C129.148515,150.257426 114.574257,142.217822 114.574257,142.217822 L109.425743,139.405941 L104.316832,136.633663 C103.762376,136.316832 103.089109,136.316832 102.49505,136.594059 L97.3069307,139.168317 L92.0792079,141.742574 C92.0792079,141.742574 77.1485149,149.227723 72.039604,151.80198 C73.1089109,146.178218 76.2376238,129.821782 76.2376238,129.821782 L78.4158416,118.336634 C78.4554455,118.217822 78.4554455,118.09901 78.4554455,117.980198 C78.4554455,117.465347 78.2574257,116.990099 77.9009901,116.594059 L69.7425743,108.277228 C69.7425743,108.277228 58.019802,96.3960396 53.980198,92.3168317 C59.6831683,91.6039604 76.1980198,89.5445545 76.1980198,89.5445545 L82.019802,88.8316832 L87.8415842,88.1188119 C88.4752475,88.039604 89.029703,87.6435644 89.3465347,87.0891089 L92.039604,81.9009901 L94.7326733,76.7128713 C94.7326733,76.7128713 102.415842,61.9009901 105.029703,56.7920792 C107.485149,61.980198 114.574257,77.0693069 114.574257,77.0693069 L119.524752,87.6435644 C119.80198,88.2376238 120.356436,88.6336634 120.990099,88.7524752 L126.772277,89.7029703 L132.514851,90.6534653 C132.39604,90.6138614 148.831683,93.3069307 154.49505,94.2574257 Z M208.752475,78.3762376 C208.752475,78.1782178 208.712871,77.980198 208.673267,77.8217822 C208.475248,77.1089109 207.841584,76.5940594 207.128713,76.4752475 C207.128713,76.4752475 139.643564,65.3465347 137.663366,65.029703 C136.831683,63.2079208 107.762376,1.34653465 107.762376,1.34653465 C107.445545,0.673267327 106.772277,0.237623762 106.019802,0.237623762 C105.267327,0.237623762 104.594059,0.633663366 104.237624,1.30693069 C104.237624,1.30693069 72.8316832,62.0594059 71.9207921,63.8019802 C69.9405941,64.039604 2.0990099,72.5940594 2.0990099,72.5940594 C1.34653465,72.6732673 0.752475248,73.1881188 0.475247525,73.9009901 C0.396039604,74.0990099 0.356435644,74.3366337 0.356435644,74.5346535 C0.356435644,75.049505 0.554455446,75.5247525 0.910891089,75.9207921 C0.910891089,75.9207921 48.950495,124.594059 50.3762376,126.019802 C49.980198,128 37.1485149,195.128713 37.1485149,195.128713 C37.1089109,195.247525 37.1089109,195.366337 37.1089109,195.485149 C37.1089109,196.079208 37.3861386,196.673267 37.9009901,197.029703 C38.4950495,197.465347 39.2871287,197.544554 39.960396,197.227723 C39.960396,197.227723 101.108911,166.574257 102.891089,165.663366 C104.633663,166.613861 164.554455,199.60396 164.554455,199.60396 C165.227723,199.960396 166.019802,199.920792 166.613861,199.485149 C167.128713,199.128713 167.445545,198.49505 167.445545,197.861386 C167.445545,197.782178 167.445545,197.663366 167.405941,197.584158 C167.405941,197.584158 157.148515,129.980198 156.831683,128 C158.29703,126.613861 208.158416,79.8811881 208.158416,79.8811881 C208.514851,79.4059406 208.752475,78.8910891 208.752475,78.3762376 Z M153.346535,125.782178 C152.950495,126.138614 152.712871,126.653465 152.712871,127.207921 C152.712871,127.287129 152.712871,127.405941 152.752475,127.485149 C152.752475,127.485149 161.821782,187.168317 162.891089,194.138614 C156.673267,190.732673 103.80198,161.623762 103.80198,161.623762 C103.247525,161.306931 102.574257,161.306931 101.980198,161.584158 C101.980198,161.584158 48,188.633663 41.7029703,191.841584 C43.049505,184.871287 54.3762376,125.623762 54.3762376,125.623762 C54.4158416,125.50495 54.4158416,125.386139 54.4158416,125.267327 C54.4158416,124.752475 54.2178218,124.277228 53.8613861,123.881188 C53.8613861,123.881188 11.4455446,80.9108911 6.45544554,75.8811881 C13.4653465,75.009901 73.3861386,67.4851485 73.3861386,67.4851485 C74.019802,67.4059406 74.5742574,67.009901 74.8910891,66.4554455 C74.8910891,66.4554455 102.613861,12.8316832 105.861386,6.53465347 C108.871287,12.950495 134.534653,67.5643564 134.534653,67.5643564 C134.811881,68.1584158 135.366337,68.5544554 136,68.6732673 C136,68.6732673 195.564356,78.4950495 202.574257,79.6435644 C197.386139,84.5148515 153.346535,125.782178 153.346535,125.782178 Z" id="Shape"></path>
        </g>
    </g>
</svg>